<svg width="30" height="30" viewBox="0 0 30 30" fill="none" xmlns="http://www.w3.org/2000/svg">
<path fill-rule="evenodd" clip-rule="evenodd" d="M15 30C23.2843 30 30 23.2843 30 15C30 6.71573 23.2843 0 15 0C6.71573 0 0 6.71573 0 15C0 23.2843 6.71573 30 15 30ZM22.7732 12.8593C22.9315 12.8586 23.0897 12.8508 23.2473 12.8359H23.25V9.71603C22.0466 9.63049 20.9124 9.13632 20.0457 8.31994C19.1791 7.50355 18.6351 6.41691 18.5089 5.25H15.7471L15.7183 18.3401C15.7183 19.9462 14.2597 21.2115 12.6082 21.2115C11.8152 21.2115 11.0547 20.9052 10.494 20.3599C9.93329 19.8147 9.61828 19.0751 9.61828 18.3041C9.61828 17.533 9.93329 16.7934 10.494 16.2482C11.0547 15.7029 11.8152 15.3966 12.6082 15.3966C12.7001 15.3966 12.789 15.4084 12.878 15.4203C12.9087 15.4243 12.9394 15.4284 12.9702 15.432V12.6248C12.9417 12.6231 12.9132 12.6211 12.8847 12.6192C12.7931 12.613 12.7014 12.6068 12.6082 12.6068C11.4495 12.6068 10.3169 12.9409 9.35354 13.5668C8.39017 14.1928 7.63932 15.0825 7.19593 16.1234C6.75254 17.1643 6.63653 18.3097 6.86257 19.4147C7.0886 20.5198 7.64654 21.5348 8.46582 22.3315C9.2851 23.1282 10.3289 23.6707 11.4653 23.8905C12.6017 24.1103 13.7795 23.9975 14.85 23.5664C15.9204 23.1352 16.8353 22.4051 17.479 21.4683C18.1228 20.5314 18.4663 19.4301 18.4663 18.3034V10.5959C18.9345 11.2912 19.5734 11.8622 20.3253 12.2574C21.0772 12.6526 21.9185 12.8594 22.7732 12.8593Z" fill="white"/>
</svg>
