<svg width="488" height="79" viewBox="0 0 488 79" fill="none" xmlns="http://www.w3.org/2000/svg">
<path d="M89.9297 47.1494L91.2264 44.157L99.2207 77.6346H111.646L100.928 36.1122L111.17 1.88501H99.2207L89.9297 32.8424V1.88501H77.7063V77.6346H89.9297V47.1494Z" fill="white"/>
<path d="M24.1137 76.3251C26.1783 75.4579 27.9801 74.0727 29.3421 72.3056C30.8827 70.2213 31.9851 67.8508 32.5838 65.3351C33.3898 62.0139 33.7675 58.6047 33.708 55.1891C33.7699 52.0653 33.3915 48.9483 32.5838 45.9285C31.9979 43.649 30.87 41.5421 29.2945 39.7842C27.8618 38.269 25.9656 37.2649 23.8995 36.9275C25.5558 36.5106 27.0592 35.6368 28.2357 34.4073C29.5469 32.9762 30.5058 31.2629 31.0373 29.4021C31.7528 26.8941 32.0856 24.2938 32.0247 21.6879C32.0247 17.4461 31.5587 14.0327 30.6269 11.4475C29.8882 9.15256 28.5573 7.08931 26.7665 5.46258C25.1511 4.06976 23.2176 3.08916 21.1337 2.60588C18.9278 2.1002 16.6702 1.85063 14.4063 1.8622H0V77.6354H17.0057C19.4397 77.6775 21.8573 77.2319 24.1137 76.3251ZM12.2174 13.106H14.335C15.6965 13.0557 17.0417 13.4136 18.1953 14.133C19.2668 14.8837 20.0773 15.9457 20.5151 17.1727C21.0825 18.7795 21.3486 20.4758 21.3002 22.1778C21.3285 23.9989 21.157 25.8177 20.7887 27.6019C20.5442 28.9234 19.8592 30.1249 18.8436 31.0135C17.884 31.8004 16.4723 32.1939 14.6086 32.1939H12.2293L12.2174 13.106ZM12.2174 65.943V43.2193H14.7454C16.2489 43.1451 17.7358 43.5595 18.9804 44.3998C20.1304 45.3428 20.9232 46.6456 21.2288 48.0946C21.746 50.3332 21.9758 52.6277 21.9129 54.9235C21.9129 58.5357 21.4013 61.2783 20.3783 63.1512C19.3552 65.0242 17.4994 65.9587 14.8108 65.9548L12.2174 65.943Z" fill="white"/>
<path d="M51.6468 47.1494L52.9494 44.157L60.9377 77.6346H73.3634L62.6448 36.1122L72.8875 1.88501H60.9377L51.6468 32.8424V1.88501H39.4293V77.6346H51.6468V47.1494Z" fill="white"/>
<path d="M145.769 43.6511H155.404V32.0515H145.769V13.2486H158.406V1.83447H133.546V77.6155H158.54V66.294H145.769V43.6511Z" fill="white"/>
<path d="M176.303 1.83447H164.079V77.6155H189.007V66.294H176.303V1.83447Z" fill="white"/>
<path d="M206.018 43.6511H215.653V32.0515H206.018V13.2486H218.655V1.83447H193.795V77.6155H218.789V66.294H206.018V43.6511Z" fill="white"/>
<path d="M249.775 3.52932C246.983 1.54956 243.593 0.577636 240.167 0.775108C236.591 0.579721 233.064 1.67565 230.239 3.86036C227.645 6.17599 225.84 9.23466 225.075 12.613C224.007 17.0481 223.514 21.6001 223.607 26.159V53.4762C223.532 57.9615 224.034 62.438 225.101 66.7971C225.87 70.1855 227.673 73.2561 230.266 75.5895C233.077 77.8051 236.609 78.9216 240.194 78.7277C244.344 78.7277 247.56 77.7478 249.868 75.7881C252.266 73.6523 253.955 70.8452 254.712 67.7373C255.671 63.9595 256.119 60.0723 256.047 56.1775V49.6362H244.037V57.5811C244.037 59.0906 243.97 60.5471 243.837 61.9905C243.763 63.2174 243.412 64.4122 242.809 65.4862C242.525 65.9245 242.128 66.2787 241.658 66.5117C241.188 66.7448 240.664 66.8479 240.14 66.8104C239.626 66.8333 239.113 66.7306 238.648 66.5113C238.183 66.2919 237.779 65.9627 237.472 65.5524C236.794 64.5415 236.373 63.3831 236.244 62.1759C236.032 60.6401 235.93 59.0914 235.937 57.5413V21.9482C235.933 20.4619 236.013 18.9765 236.177 17.4991C236.284 16.2557 236.681 15.0543 237.338 13.9901C237.644 13.5303 238.066 13.1585 238.563 12.9122C239.06 12.6658 239.613 12.5534 240.167 12.5865C240.712 12.5315 241.261 12.6259 241.755 12.8594C242.249 13.0929 242.669 13.4565 242.969 13.9106C243.559 14.9597 243.901 16.1278 243.97 17.327C244.077 18.6511 244.13 20.1209 244.13 21.6304V29.2046H256.14V22.65C256.196 18.7982 255.715 14.9573 254.712 11.2359C253.918 8.21854 252.191 5.52369 249.775 3.52932Z" fill="white"/>
<path d="M259.436 14.2815H267.762V77.6155H280.066V14.2815H288.326V1.83447H259.436V14.2815Z" fill="white"/>
<path d="M305.474 1.83447H293.25V77.6155H305.474V1.83447Z" fill="white"/>
<path d="M339.531 3.75344C336.666 1.64843 333.149 0.603848 329.589 0.800574C326.063 0.605172 322.58 1.65087 319.754 3.75344C317.177 5.96721 315.361 8.92585 314.563 12.2147C313.427 16.5807 312.898 21.0803 312.989 25.5886V53.7533C312.904 58.2612 313.434 62.7599 314.563 67.1272C315.355 70.4599 317.169 73.467 319.754 75.7341C322.569 77.8612 326.057 78.9223 329.589 78.7267C333.155 78.9234 336.676 77.8635 339.531 75.7341C342.129 73.4729 343.953 70.4645 344.748 67.1272C345.878 62.7599 346.408 58.2612 346.323 53.7533V25.5886C346.414 21.0803 345.885 16.5807 344.748 12.2147C343.946 8.92146 342.121 5.96169 339.531 3.75344ZM333.819 57.964C333.819 59.3718 333.729 60.7781 333.553 62.1749C333.427 63.3686 333.03 64.5185 332.392 65.5382C332.079 65.9802 331.657 66.3346 331.166 66.5666C330.675 66.7987 330.132 66.9005 329.589 66.8623C329.052 66.9056 328.512 66.8057 328.027 66.5729C327.541 66.3401 327.127 65.9829 326.827 65.5382C326.206 64.5155 325.832 63.3646 325.733 62.1749C325.571 60.777 325.491 59.371 325.493 57.964V21.4705C325.49 20.0495 325.579 18.6297 325.759 17.22C325.891 16.04 326.288 14.9043 326.92 13.8964C327.211 13.4649 327.61 13.116 328.078 12.8838C328.546 12.6517 329.067 12.5443 329.589 12.5722C330.132 12.534 330.675 12.6359 331.166 12.868C331.657 13.1 332.079 13.4543 332.392 13.8964C333.024 14.9043 333.421 16.04 333.553 17.22C333.733 18.6297 333.822 20.0495 333.819 21.4705V57.964Z" fill="white"/>
<path d="M373.718 38.328L362.375 1.83447H353.768V77.6155H364.217V38.328L375.56 77.6155H383.82V1.83447H373.718V38.328Z" fill="white"/>
<path d="M488.001 0.946289H405.719V7.15492H488.001V0.946289Z" fill="white"/>
<path d="M405.798 62.1931V55.6287L413.687 39.0479C414.277 37.8218 414.847 36.6335 415.379 35.4828C415.891 34.3443 416.323 33.1719 416.672 31.9742C417.023 30.7473 417.196 29.477 417.185 28.2016C417.249 27.2008 417.053 26.2004 416.615 25.2966C416.469 25.015 416.249 24.7784 415.977 24.6121C415.706 24.4459 415.394 24.3564 415.075 24.3535C414.74 24.3323 414.405 24.3997 414.104 24.5489C413.804 24.698 413.548 24.9234 413.364 25.2023C412.909 25.8599 412.622 26.6173 412.528 27.4094C412.368 28.4455 412.292 29.4925 412.3 30.5406V32.7665H405.722V30.3708C405.684 27.9557 405.998 25.5479 406.654 23.2217C407.158 21.3267 408.185 19.6087 409.619 18.2607C411.407 16.8966 413.658 16.274 415.899 16.5238C418.14 16.7736 420.195 17.8763 421.633 19.6C423.277 22.2233 424.061 25.2877 423.877 28.3713C423.89 30.0763 423.679 31.7757 423.249 33.4267C422.837 34.9848 422.277 36.5006 421.576 37.9539C420.892 39.4252 420.151 40.9531 419.371 42.5565L413.364 54.8364H422.983V62.1365L405.798 62.1931Z" fill="white"/>
<path d="M436.192 63.0224C434.394 63.0747 432.636 62.4932 431.23 61.3813C429.819 60.1756 428.778 58.6002 428.227 56.8352C427.505 54.6704 427.157 52.3999 427.2 50.12V29.6911C427.16 27.3476 427.487 25.0122 428.17 22.7683C428.703 20.9683 429.745 19.3579 431.173 18.128C432.642 17.0497 434.421 16.4678 436.249 16.4678C438.076 16.4678 439.855 17.0497 441.324 18.128C442.718 19.3695 443.727 20.9789 444.233 22.7683C444.915 25.0122 445.242 27.3476 445.202 29.6911V50.1954C445.24 52.4688 444.893 54.7324 444.176 56.8918C443.625 58.6623 442.584 60.2439 441.172 61.4568C439.758 62.5595 437.988 63.1157 436.192 63.0224ZM436.192 54.7226C436.482 54.7361 436.77 54.6624 437.018 54.5109C437.265 54.3595 437.461 54.1374 437.579 53.8738C437.874 53.2437 438.055 52.5667 438.112 51.8743C438.112 51.1009 438.207 50.4406 438.207 49.8936V29.9175C438.207 29.295 438.207 28.5782 438.207 27.7859C438.169 27.0562 437.995 26.3398 437.693 25.6733C437.568 25.4002 437.366 25.1688 437.111 25.0065C436.857 24.8443 436.561 24.758 436.258 24.758C435.956 24.758 435.66 24.8443 435.405 25.0065C435.151 25.1688 434.949 25.4002 434.823 25.6733C434.521 26.3398 434.347 27.0562 434.31 27.7859C434.31 28.5782 434.31 29.295 434.31 29.9175V49.8936C434.31 50.4469 434.348 51.1072 434.424 51.8743C434.487 52.5679 434.673 53.2449 434.975 53.8738C435.079 54.1127 435.248 54.3183 435.463 54.4681C435.678 54.6179 435.93 54.7059 436.192 54.7226Z" fill="white"/>
<path d="M449.023 62.1926V55.6282L456.893 39.0475C457.483 37.8214 458.053 36.633 458.585 35.4824C459.105 34.3472 459.538 33.1742 459.878 31.9738C460.229 30.7469 460.402 29.4765 460.391 28.2011C460.455 27.2003 460.259 26.1999 459.821 25.2962C459.675 25.0146 459.455 24.7779 459.183 24.6117C458.912 24.4454 458.6 24.356 458.281 24.353C457.946 24.3318 457.611 24.3993 457.31 24.5484C457.01 24.6975 456.754 24.923 456.57 25.2019C456.123 25.8635 455.837 26.619 455.734 27.4089C455.581 28.4456 455.511 29.4926 455.525 30.5401V32.7661H448.928V30.3704C448.896 27.9543 449.216 25.5464 449.879 23.2213C450.369 21.3203 451.398 19.5985 452.844 18.2602C454.629 16.8973 456.877 16.2752 459.115 16.525C461.352 16.7749 463.405 17.8772 464.839 19.5995C466.483 22.2229 467.267 25.2873 467.083 28.3709C467.096 30.0759 466.885 31.7753 466.455 33.4262C466.041 34.9811 465.488 36.4963 464.801 37.9534C464.098 39.4248 463.376 40.9527 462.577 42.5561L456.57 54.836H466.189V62.136L449.023 62.1926Z" fill="white"/>
<path d="M469.897 62.1926V55.6282L477.767 39.0475C478.375 37.8214 478.927 36.633 479.459 35.4824C479.987 34.3505 480.42 33.1769 480.752 31.9738C481.103 30.7469 481.276 29.4765 481.265 28.2011C481.329 27.2003 481.133 26.1999 480.695 25.2962C480.549 25.0146 480.329 24.7779 480.057 24.6117C479.786 24.4454 479.474 24.356 479.155 24.353C478.821 24.3428 478.49 24.415 478.191 24.5632C477.893 24.7114 477.636 24.9308 477.444 25.2019C476.997 25.8635 476.711 26.619 476.607 27.4089C476.465 28.4466 476.395 29.4928 476.398 30.5401V32.7661H469.821V30.3704C469.783 27.9553 470.097 25.5474 470.752 23.2213C471.243 21.3203 472.272 19.5985 473.718 18.2602C475.502 16.8973 477.751 16.2752 479.988 16.525C482.226 16.7749 484.279 17.8772 485.713 19.5995C487.365 22.2202 488.155 25.2852 487.975 28.3709C487.988 30.0759 487.777 31.7753 487.348 33.4262C486.919 34.979 486.359 36.4934 485.675 37.9534C484.991 39.4248 484.249 40.9527 483.451 42.5561L477.444 54.836H487.082V62.136L469.897 62.1926Z" fill="white"/>
<path d="M488.001 72.3455H405.719V78.5541H488.001V72.3455Z" fill="white"/>
</svg>
