<svg width="745" height="120" viewBox="0 0 745 120" fill="none" xmlns="http://www.w3.org/2000/svg">
<path d="M137.29 71.3839L139.27 66.7801L151.474 118.284H170.444L154.08 54.4036L169.717 1.74634H151.474L137.29 49.373V1.74634H118.63V118.284H137.29V71.3839Z" fill="black"/>
<path d="M36.8129 116.269C39.9648 114.935 42.7155 112.804 44.7948 110.086C47.1468 106.879 48.8298 103.232 49.7437 99.3616C50.9741 94.2522 51.5508 89.0071 51.46 83.7524C51.5545 78.9466 50.9768 74.1512 49.7437 69.5053C48.8492 65.9984 47.1273 62.757 44.7221 60.0526C42.535 57.7215 39.6401 56.1768 36.486 55.6577C39.0145 55.0163 41.3096 53.672 43.1058 51.7804C45.1074 49.5787 46.5714 46.9429 47.3828 44.0802C48.4751 40.2216 48.9832 36.2212 48.8901 32.2121C48.8901 25.6863 48.1788 20.4348 46.7562 16.4576C45.6284 12.927 43.5968 9.75275 40.8629 7.25009C38.3967 5.10729 35.4449 3.59867 32.2635 2.85517C28.896 2.07719 25.4495 1.69324 21.9933 1.71104H0V118.285H25.9615C29.6774 118.35 33.3682 117.664 36.8129 116.269ZM18.6516 19.0092H21.8843C23.9629 18.9318 26.0166 19.4824 27.7777 20.5892C29.4134 21.7442 30.6507 23.378 31.3191 25.2656C32.1853 27.7376 32.5916 30.3474 32.5178 32.9658C32.561 35.7675 32.2991 38.5656 31.7368 41.3106C31.3636 43.3436 30.3178 45.1921 28.7674 46.5591C27.3024 47.7698 25.1473 48.3752 22.302 48.3752H18.6698L18.6516 19.0092ZM18.6516 100.297V65.3374H22.5109C24.8062 65.2231 27.0762 65.8608 28.9763 67.1535C30.7319 68.6042 31.9423 70.6086 32.4088 72.8378C33.1983 76.2818 33.5492 79.8118 33.4531 83.3438C33.4531 88.901 32.6721 93.1204 31.1103 96.0019C29.5484 98.8834 26.7152 100.321 22.6108 100.315L18.6516 100.297Z" fill="black"/>
<path d="M78.8461 71.3839L80.8347 66.7801L93.03 118.284H111.999L95.6362 54.4036L111.273 1.74634H93.03L78.8461 49.373V1.74634H60.1945V118.284H78.8461V71.3839Z" fill="black"/>
<path d="M222.537 66.0017H237.245V48.1563H222.537V19.2287H241.829V1.66846H203.876V118.255H242.033V100.837H222.537V66.0017Z" fill="black"/>
<path d="M269.151 1.66846H250.49V118.255H288.545V100.837H269.151V1.66846Z" fill="black"/>
<path d="M314.515 66.0017H329.224V48.1563H314.515V19.2287H333.808V1.66846H295.854V118.255H334.011V100.837H314.515V66.0017Z" fill="black"/>
<path d="M381.316 4.27587C377.054 1.23009 371.878 -0.265176 366.648 0.0386277C361.189 -0.261967 355.805 1.42408 351.492 4.78516C347.531 8.34768 344.776 13.0533 343.608 18.2507C341.978 25.0739 341.225 32.0771 341.367 39.0908V81.1172C341.252 88.0177 342.019 94.9046 343.648 101.611C344.821 106.824 347.575 111.548 351.532 115.138C355.824 118.546 361.216 120.264 366.689 119.966C373.025 119.966 377.935 118.458 381.459 115.443C385.12 112.157 387.698 107.839 388.854 103.057C390.317 97.2454 391.002 91.2651 390.891 85.273V75.2095H372.556V87.4324C372.556 89.7548 372.454 91.9956 372.251 94.2161C372.138 96.1037 371.602 97.9418 370.682 99.5942C370.249 100.268 369.641 100.813 368.924 101.172C368.208 101.53 367.407 101.689 366.608 101.631C365.822 101.667 365.04 101.509 364.329 101.171C363.619 100.834 363.002 100.327 362.533 99.696C361.499 98.1407 360.856 96.3586 360.659 94.5013C360.336 92.1385 360.18 89.756 360.19 87.3713V32.6127C360.184 30.326 360.307 28.0407 360.557 25.7678C360.72 23.855 361.327 22.0066 362.33 20.3694C362.797 19.662 363.442 19.0901 364.2 18.711C364.958 18.3319 365.802 18.1591 366.648 18.21C367.48 18.1253 368.318 18.2706 369.073 18.6298C369.827 18.989 370.468 19.5485 370.927 20.2471C371.827 21.8611 372.349 23.6581 372.454 25.503C372.617 27.5402 372.699 29.8014 372.699 32.1238V43.7763H391.034V33.6923C391.119 27.7665 390.385 21.8573 388.854 16.1321C387.641 11.4901 385.005 7.34413 381.316 4.27587V4.27587Z" fill="black"/>
<path d="M396.064 20.8177H408.777V118.255H427.56V20.8177H440.17V1.66846H396.064V20.8177Z" fill="black"/>
<path d="M466.348 1.66846H447.687V118.255H466.348V1.66846Z" fill="black"/>
<path d="M518.341 4.62073C513.967 1.38226 508.598 -0.224793 503.164 0.0778619C497.78 -0.222756 492.463 1.38601 488.15 4.62073C484.214 8.02653 481.443 12.5783 480.225 17.6381C478.49 24.355 477.682 31.2775 477.821 38.2133V81.5435C477.692 88.4789 478.501 95.3999 480.225 102.119C481.433 107.246 484.202 111.872 488.15 115.36C492.447 118.633 497.771 120.265 503.164 119.964C508.607 120.267 513.983 118.636 518.341 115.36C522.308 111.882 525.092 107.253 526.306 102.119C528.031 95.3999 528.839 88.4789 528.71 81.5435V38.2133C528.85 31.2775 528.041 24.355 526.306 17.6381C525.081 12.5715 522.295 8.01805 518.341 4.62073V4.62073ZM509.622 88.0216C509.621 90.1874 509.484 92.351 509.214 94.4998C509.022 96.3364 508.416 98.1054 507.442 99.6742C506.965 100.354 506.321 100.899 505.571 101.256C504.822 101.613 503.992 101.77 503.164 101.711C502.343 101.778 501.52 101.624 500.778 101.266C500.037 100.908 499.405 100.358 498.947 99.6742C497.999 98.1008 497.428 96.3302 497.276 94.4998C497.03 92.3493 496.908 90.1863 496.91 88.0216V31.8778C496.906 29.6916 497.042 27.5073 497.317 25.3385C497.518 23.5231 498.124 21.7758 499.089 20.2253C499.534 19.5615 500.143 19.0247 500.857 18.6675C501.571 18.3103 502.366 18.1451 503.164 18.1881C503.992 18.1293 504.822 18.2861 505.571 18.6431C506.321 19.0001 506.965 19.5452 507.442 20.2253C508.407 21.7758 509.013 23.5231 509.214 25.3385C509.49 27.5073 509.626 29.6916 509.622 31.8778V88.0216Z" fill="black"/>
<path d="M570.532 57.8124L553.216 1.66846H540.076V118.255H556.027V57.8124L573.344 118.255H585.954V1.66846H570.532V57.8124Z" fill="black"/>
<path d="M745.001 0.302002H619.387V9.85374H745.001V0.302002Z" fill="black"/>
<path d="M619.508 94.5282V84.4292L631.551 58.9203C632.451 57.0339 633.322 55.2057 634.134 53.4355C634.916 51.6839 635.575 49.8803 636.108 48.0376C636.644 46.1501 636.908 44.1957 636.891 42.2336C636.989 40.6939 636.689 39.1548 636.021 37.7644C635.798 37.3312 635.462 36.9671 635.047 36.7113C634.633 36.4556 634.157 36.3179 633.67 36.3134C633.158 36.2808 632.646 36.3846 632.188 36.614C631.729 36.8434 631.339 37.1903 631.058 37.6194C630.364 38.631 629.925 39.7963 629.781 41.0148C629.538 42.6089 629.421 44.2196 629.433 45.8321V49.2565H619.391V45.5709C619.333 41.8553 619.812 38.1509 620.814 34.5723C621.584 31.6568 623.152 29.0138 625.341 26.9399C628.07 24.8414 631.506 23.8834 634.927 24.2677C638.348 24.652 641.487 26.3486 643.682 29.0003C646.191 33.0363 647.388 37.7508 647.107 42.4948C647.126 45.1178 646.804 47.7323 646.149 50.2722C645.519 52.6693 644.664 55.0014 643.595 57.2371C642.55 59.5007 641.418 61.8514 640.229 64.3181L631.058 83.2103H645.743V94.4411L619.508 94.5282Z" fill="black"/>
<path d="M665.907 95.8039C663.163 95.8843 660.48 94.9898 658.333 93.2791C656.178 91.4242 654.589 89.0006 653.748 86.2852C652.645 82.9547 652.115 79.4615 652.18 75.954V44.525C652.119 40.9197 652.619 37.3266 653.66 33.8745C654.475 31.1053 656.066 28.6277 658.246 26.7356C660.489 25.0767 663.205 24.1814 665.994 24.1814C668.784 24.1814 671.5 25.0767 673.743 26.7356C675.871 28.6455 677.411 31.1217 678.183 33.8745C679.225 37.3266 679.724 40.9197 679.663 44.525V76.0701C679.721 79.5677 679.191 83.0501 678.096 86.3723C677.255 89.0961 675.666 91.5293 673.511 93.3952C671.351 95.0917 668.65 95.9475 665.907 95.8039V95.8039ZM665.907 83.0349C666.351 83.0558 666.79 82.9423 667.168 82.7093C667.546 82.4763 667.845 82.1347 668.026 81.7291C668.476 80.7597 668.751 79.7182 668.838 78.6529C668.838 77.4631 668.984 76.4473 668.984 75.6057V44.8732C668.984 43.9156 668.984 42.8128 668.984 41.5939C668.926 40.4713 668.661 39.3691 668.2 38.3437C668.008 37.9236 667.7 37.5676 667.311 37.3179C666.923 37.0683 666.471 36.9355 666.009 36.9355C665.547 36.9355 665.095 37.0683 664.707 37.3179C664.318 37.5676 664.01 37.9236 663.818 38.3437C663.357 39.3691 663.091 40.4713 663.034 41.5939C663.034 42.8128 663.034 43.9156 663.034 44.8732V75.6057C663.034 76.457 663.092 77.4728 663.208 78.6529C663.305 79.72 663.59 80.7616 664.05 81.7291C664.209 82.0966 664.467 82.413 664.795 82.6434C665.123 82.8738 665.508 83.0093 665.907 83.0349V83.0349Z" fill="black"/>
<path d="M685.497 94.5273V84.4283L697.511 58.9194C698.411 57.0331 699.282 55.2048 700.094 53.4346C700.888 51.6881 701.548 49.8836 702.068 48.0368C702.604 46.1493 702.868 44.1948 702.851 42.2327C702.949 40.693 702.649 39.154 701.981 37.7636C701.758 37.3303 701.422 36.9662 701.007 36.7105C700.593 36.4547 700.117 36.3171 699.63 36.3125C699.118 36.28 698.607 36.3837 698.148 36.6131C697.689 36.8425 697.299 37.1894 697.018 37.6185C696.335 38.6363 695.898 39.7986 695.741 41.0139C695.509 42.6088 695.402 44.2195 695.422 45.8312V49.2557H685.352V45.57C685.302 41.853 685.791 38.1485 686.803 34.5714C687.551 31.6468 689.122 28.998 691.33 26.939C694.054 24.8422 697.486 23.8851 700.902 24.2695C704.319 24.6539 707.452 26.3497 709.642 28.9995C712.151 33.0354 713.348 37.7499 713.067 42.4939C713.086 45.117 712.764 47.7314 712.109 50.2713C711.477 52.6635 710.632 54.9945 709.584 57.2363C708.51 59.4998 707.408 61.8505 706.189 64.3172L697.018 83.2094H711.703V94.4402L685.497 94.5273Z" fill="black"/>
<path d="M717.363 94.5273V84.4283L729.378 58.9194C730.307 57.0331 731.148 55.2048 731.961 53.4346C732.768 51.6933 733.428 49.8878 733.934 48.0368C734.471 46.1493 734.734 44.1948 734.718 42.2327C734.816 40.693 734.516 39.154 733.847 37.7636C733.625 37.3303 733.288 36.9662 732.874 36.7105C732.46 36.4547 731.983 36.3171 731.497 36.3125C730.987 36.2968 730.482 36.4079 730.026 36.6359C729.57 36.8638 729.178 37.2015 728.885 37.6185C728.202 38.6363 727.765 39.7986 727.608 41.0139C727.39 42.6104 727.283 44.22 727.288 45.8312V49.2557H717.247V45.57C717.189 41.8545 717.668 38.1501 718.669 34.5714C719.418 31.6468 720.989 28.998 723.197 26.939C725.921 24.8422 729.353 23.8851 732.769 24.2695C736.185 24.6539 739.319 26.3497 741.509 28.9995C744.03 33.0313 745.237 37.7466 744.962 42.4939C744.982 45.117 744.66 47.7314 744.005 50.2713C743.349 52.6601 742.495 54.99 741.451 57.2363C740.406 59.4998 739.274 61.8505 738.055 64.3172L728.885 83.2094H743.598V94.4402L717.363 94.5273Z" fill="black"/>
<path d="M745.001 110.147H619.387V119.699H745.001V110.147Z" fill="black"/>
</svg>
