<svg width="187" height="30" viewBox="0 0 187 30" fill="none" xmlns="http://www.w3.org/2000/svg">
<path d="M34.3217 17.8462L34.8165 16.6952L37.8676 29.5712H42.6098L38.5191 13.6011L42.4282 0.436768H37.8676L34.3217 12.3434V0.436768H29.6566V29.5712H34.3217V17.8462Z" fill="black"/>
<path d="M9.20298 29.0674C9.99094 28.7339 10.6786 28.2012 11.1984 27.5215C11.7864 26.7198 12.2071 25.8081 12.4356 24.8405C12.7432 23.5632 12.8874 22.2519 12.8646 20.9382C12.8883 19.7368 12.7439 18.5379 12.4356 17.3764C12.212 16.4997 11.7815 15.6894 11.1802 15.0133C10.6335 14.4305 9.90976 14.0443 9.12126 13.9145C9.75336 13.7542 10.3271 13.4181 10.7762 12.9452C11.2765 12.3948 11.6425 11.7359 11.8454 11.0202C12.1184 10.0555 12.2455 9.05542 12.2222 8.05314C12.2222 6.4217 12.0444 5.10883 11.6887 4.11452C11.4068 3.23187 10.8989 2.43831 10.2154 1.81264C9.59892 1.27694 8.86098 0.899789 8.06566 0.713914C7.22381 0.519419 6.3622 0.423432 5.49818 0.427882H0V29.5714H6.49021C7.41916 29.5876 8.34183 29.4162 9.20298 29.0674ZM4.66278 4.75242H5.47094C5.99057 4.73308 6.50397 4.87073 6.94423 5.14742C7.35316 5.43616 7.66248 5.84463 7.82957 6.31652C8.04612 6.93453 8.14768 7.58697 8.12922 8.24156C8.14003 8.94199 8.07456 9.64152 7.934 10.3278C7.84068 10.836 7.57924 11.2981 7.19167 11.6399C6.82543 11.9426 6.28666 12.0939 5.57536 12.0939H4.66732L4.66278 4.75242ZM4.66278 25.0743V16.3345H5.62757C6.20139 16.3059 6.76887 16.4653 7.24388 16.7885C7.68277 17.1512 7.98535 17.6523 8.10198 18.2096C8.29936 19.0706 8.38707 19.9531 8.36304 20.8361C8.36304 22.2254 8.16781 23.2802 7.77736 24.0006C7.3869 24.721 6.67863 25.0804 5.65254 25.0789L4.66278 25.0743Z" fill="black"/>
<path d="M19.711 17.8462L20.2082 16.6952L23.2569 29.5712H27.9991L23.9084 13.6011L27.8175 0.436768H23.2569L19.711 12.3434V0.436768H15.0482V29.5712H19.711V17.8462Z" fill="black"/>
<path d="M55.6327 16.5005H59.3098V12.0392H55.6327V4.8073H60.4557V0.417236H50.9677V29.5638H60.5066V25.2094H55.6327V16.5005Z" fill="black"/>
<path d="M67.286 0.417236H62.621V29.5638H72.1345V25.2094H67.286V0.417236Z" fill="black"/>
<path d="M78.6267 16.5005H82.3038V12.0392H78.6267V4.8073H83.4497V0.417236H73.9617V29.5638H83.5006V25.2094H78.6267V16.5005Z" fill="black"/>
<path d="M95.3267 1.06897C94.2612 0.307523 92.9672 -0.0662939 91.6598 0.00965692C90.2949 -0.0654917 88.9489 0.356021 87.8707 1.19629C86.8806 2.08692 86.1918 3.26333 85.8998 4.56268C85.4924 6.26849 85.3041 8.01927 85.3395 9.77269V20.2793C85.3109 22.0044 85.5026 23.7261 85.9099 25.4027C86.2031 26.706 86.8914 27.887 87.8809 28.7844C88.9538 29.6366 90.3018 30.066 91.67 29.9914C93.2539 29.9914 94.4813 29.6146 95.3623 28.8608C96.2775 28.0393 96.9221 26.9597 97.211 25.7643C97.5767 24.3113 97.7479 22.8163 97.7203 21.3183V18.8024H93.1367V21.8581C93.1367 22.4387 93.1113 22.9989 93.0603 23.554C93.0321 24.0259 92.8981 24.4854 92.6682 24.8985C92.5598 25.0671 92.408 25.2034 92.2288 25.293C92.0496 25.3826 91.8495 25.4223 91.6496 25.4078C91.4532 25.4166 91.2576 25.3771 91.0801 25.2928C90.9025 25.2084 90.7483 25.0818 90.631 24.924C90.3725 24.5352 90.2118 24.0896 90.1625 23.6253C90.0818 23.0346 90.0426 22.439 90.0454 21.8428V8.15316C90.0438 7.58149 90.0744 7.01018 90.137 6.44195C90.1778 5.96375 90.3295 5.50164 90.5801 5.09234C90.6969 4.9155 90.8581 4.77251 91.0476 4.67775C91.2372 4.58299 91.4483 4.53979 91.6598 4.5525C91.8676 4.53133 92.0772 4.56765 92.2658 4.65745C92.4544 4.74726 92.6148 4.88711 92.7293 5.06178C92.9543 5.46527 93.0849 5.91452 93.1113 6.37575C93.152 6.88504 93.1724 7.45035 93.1724 8.03094V10.9441H97.756V8.42309C97.7772 6.94163 97.5938 5.46433 97.211 4.03303C96.9078 2.87251 96.2488 1.83603 95.3267 1.06897Z" fill="black"/>
<path d="M99.0135 5.20455H102.192V29.5638H106.887V5.20455H110.04V0.417236H99.0135V5.20455Z" fill="black"/>
<path d="M116.584 0.417236H111.919V29.5638H116.584V0.417236Z" fill="black"/>
<path d="M129.582 1.15524C128.488 0.345625 127.146 -0.0561372 125.788 0.0195265C124.442 -0.0556281 123.113 0.346563 122.034 1.15524C121.05 2.00669 120.358 3.14463 120.053 4.40959C119.619 6.08882 119.417 7.81943 119.452 9.5534V20.3859C119.42 22.1198 119.622 23.85 120.053 25.5298C120.355 26.8116 121.047 27.9681 122.034 28.8401C123.108 29.6582 124.439 30.0664 125.788 29.9911C127.149 30.0668 128.492 29.6591 129.582 28.8401C130.573 27.9704 131.27 26.8133 131.573 25.5298C132.004 23.85 132.206 22.1198 132.174 20.3859V9.5534C132.209 7.81943 132.007 6.08882 131.573 4.40959C131.267 3.14294 130.57 2.00457 129.582 1.15524ZM127.402 22.0055C127.402 22.5469 127.368 23.0878 127.3 23.625C127.252 24.0842 127.101 24.5264 126.857 24.9186C126.738 25.0886 126.577 25.2249 126.389 25.3142C126.202 25.4034 125.995 25.4426 125.788 25.4279C125.582 25.4445 125.377 25.4061 125.191 25.3166C125.006 25.227 124.848 25.0896 124.733 24.9186C124.497 24.5253 124.354 24.0826 124.316 23.625C124.254 23.0874 124.224 22.5466 124.224 22.0055V7.9695C124.223 7.42295 124.257 6.8769 124.326 6.33469C124.376 5.88083 124.528 5.44402 124.769 5.05638C124.88 4.89043 125.032 4.75622 125.211 4.66693C125.39 4.57764 125.588 4.53634 125.788 4.54709C125.995 4.53239 126.202 4.57157 126.389 4.66083C126.577 4.75008 126.738 4.88635 126.857 5.05638C127.098 5.44402 127.25 5.88083 127.3 6.33469C127.369 6.8769 127.403 7.42295 127.402 7.9695V22.0055Z" fill="black"/>
<path d="M142.629 14.4532L138.3 0.417236H135.016V29.5638H139.003V14.4532L143.332 29.5638H146.485V0.417236H142.629V14.4532Z" fill="black"/>
<path d="M186.245 0.0754395H154.843V2.46337H186.245V0.0754395Z" fill="black"/>
<path d="M154.873 23.6318V21.107L157.884 14.7298C158.108 14.2582 158.326 13.8012 158.529 13.3586C158.725 12.9207 158.89 12.4698 159.023 12.0092C159.157 11.5373 159.223 11.0487 159.219 10.5582C159.243 10.1732 159.168 9.78847 159.001 9.44086C158.945 9.33256 158.861 9.24153 158.758 9.17759C158.654 9.11365 158.535 9.07924 158.413 9.07811C158.285 9.06996 158.157 9.0959 158.043 9.15325C157.928 9.21061 157.831 9.29733 157.76 9.4046C157.587 9.65751 157.477 9.94882 157.441 10.2535C157.38 10.652 157.351 11.0547 157.354 11.4578V12.3139H154.844V11.3925C154.829 10.4636 154.949 9.53749 155.199 8.64282C155.392 7.91396 155.784 7.25321 156.331 6.73473C157.013 6.2101 157.872 5.9706 158.728 6.06668C159.583 6.16276 160.367 6.58691 160.916 7.24984C161.544 8.25883 161.843 9.43744 161.772 10.6234C161.777 11.2792 161.697 11.9328 161.533 12.5678C161.376 13.1671 161.162 13.7501 160.894 14.309C160.633 14.8749 160.35 15.4626 160.053 16.0793L157.76 20.8023H161.431V23.61L154.873 23.6318Z" fill="black"/>
<path d="M166.472 23.9508C165.786 23.9709 165.116 23.7473 164.579 23.3196C164.04 22.8559 163.643 22.25 163.433 21.5711C163.157 20.7385 163.025 19.8652 163.041 18.9883V11.1311C163.026 10.2297 163.15 9.33148 163.411 8.46845C163.614 7.77615 164.012 7.15675 164.557 6.6837C165.118 6.26899 165.797 6.04517 166.494 6.04517C167.192 6.04517 167.871 6.26899 168.431 6.6837C168.963 7.1612 169.348 7.78023 169.541 8.46845C169.802 9.33148 169.927 10.2297 169.911 11.1311V19.0173C169.926 19.8917 169.793 20.7623 169.52 21.5929C169.309 22.2738 168.912 22.8821 168.373 23.3486C167.833 23.7727 167.158 23.9867 166.472 23.9508ZM166.472 20.7586C166.583 20.7638 166.693 20.7354 166.788 20.6771C166.882 20.6189 166.957 20.5335 167.002 20.4321C167.115 20.1897 167.183 19.9294 167.205 19.663C167.205 19.3656 167.241 19.1117 167.241 18.9013V11.2181C167.241 10.9787 167.241 10.703 167.241 10.3983C167.227 10.1176 167.161 9.84208 167.046 9.58574C166.998 9.48073 166.92 9.39171 166.823 9.3293C166.726 9.26689 166.613 9.2337 166.498 9.2337C166.382 9.2337 166.269 9.26689 166.172 9.3293C166.075 9.39171 165.998 9.48073 165.95 9.58574C165.835 9.84208 165.768 10.1176 165.754 10.3983C165.754 10.703 165.754 10.9787 165.754 11.2181V18.9013C165.754 19.1141 165.769 19.368 165.798 19.663C165.822 19.9298 165.893 20.1902 166.008 20.4321C166.048 20.524 166.112 20.6031 166.194 20.6607C166.276 20.7183 166.372 20.7521 166.472 20.7586Z" fill="black"/>
<path d="M171.37 23.6316V21.1069L174.373 14.7297C174.598 14.2581 174.816 13.801 175.019 13.3585C175.217 12.9219 175.382 12.4707 175.512 12.009C175.646 11.5371 175.712 11.0485 175.708 10.558C175.733 10.1731 175.658 9.78831 175.491 9.44071C175.435 9.3324 175.351 9.24137 175.247 9.17743C175.144 9.11349 175.025 9.07909 174.903 9.07795C174.775 9.06981 174.647 9.09575 174.532 9.1531C174.418 9.21045 174.32 9.29717 174.25 9.40444C174.079 9.65889 173.97 9.94947 173.931 10.2533C173.873 10.652 173.846 11.0547 173.851 11.4576V12.3137H171.333V11.3923C171.321 10.4631 171.443 9.53693 171.696 8.64267C171.883 7.91151 172.276 7.24931 172.828 6.73458C173.509 6.21038 174.367 5.97109 175.221 6.06719C176.075 6.16328 176.858 6.58724 177.406 7.24968C178.033 8.25867 178.332 9.43729 178.262 10.6233C178.267 11.2791 178.186 11.9327 178.023 12.5676C177.864 13.1657 177.653 13.7484 177.391 14.3089C177.123 14.8748 176.847 15.4624 176.543 16.0791L174.25 20.8022H177.921V23.6099L171.37 23.6316Z" fill="black"/>
<path d="M179.336 23.6316V21.1069L182.34 14.7297C182.572 14.2581 182.782 13.801 182.985 13.3585C183.187 12.9232 183.352 12.4718 183.479 12.009C183.613 11.5371 183.679 11.0485 183.675 10.558C183.699 10.1731 183.624 9.78831 183.457 9.44071C183.401 9.3324 183.317 9.24137 183.214 9.17743C183.11 9.11349 182.991 9.07909 182.869 9.07795C182.742 9.07402 182.616 9.1018 182.502 9.15879C182.388 9.21578 182.29 9.30019 182.216 9.40444C182.046 9.65889 181.936 9.94947 181.897 10.2533C181.843 10.6524 181.816 11.0548 181.817 11.4576V12.3137H179.307V11.3923C179.292 10.4634 179.412 9.53733 179.662 8.64267C179.85 7.91151 180.242 7.24931 180.794 6.73458C181.475 6.21038 182.333 5.97109 183.187 6.06719C184.041 6.16328 184.825 6.58724 185.372 7.24968C186.002 8.25765 186.304 9.43647 186.236 10.6233C186.241 11.2791 186.16 11.9327 185.996 12.5676C185.832 13.1649 185.619 13.7473 185.358 14.3089C185.097 14.8748 184.814 15.4624 184.509 16.0791L182.216 20.8022H185.895V23.6099L179.336 23.6316Z" fill="black"/>
<path d="M186.245 27.5366H154.843V29.9246H186.245V27.5366Z" fill="black"/>
</svg>
