<svg width="85" height="28" viewBox="0 0 85 28" fill="none" xmlns="http://www.w3.org/2000/svg">
<path d="M61.0098 27.0106V23.7983L62.0705 23.5594C62.3116 23.5337 62.3635 23.4528 62.3635 23.1919V12.9154C62.3635 12.7059 62.3116 12.6251 62.0705 12.5479L61.0098 12.2869V9.09302H69.0913V12.309L68.0268 12.5736C67.7895 12.6508 67.7338 12.7317 67.7338 12.9412V23.2066C67.7338 23.4418 67.7895 23.4969 68.0009 23.5741L69.0913 23.8645V27.0253L61.0098 27.0106Z" fill="black"/>
<path d="M46.297 27.0107L41.7908 12.8751C41.7751 12.8139 41.7413 12.7588 41.6937 12.7169C41.6461 12.675 41.5869 12.6482 41.5238 12.6398L40.1182 12.4046V9.14453H49.2122V12.4046L48.1514 12.7207C48.0489 12.7341 47.9547 12.7839 47.8864 12.861C47.8182 12.9381 47.7806 13.0372 47.7806 13.1397C47.7987 13.4341 47.8522 13.7253 47.94 14.0071L49.876 21.5747H50.0058L51.9344 14.0181C52.0193 13.7356 52.0728 13.4447 52.0939 13.1507C52.0877 13.0459 52.0446 12.9465 51.9721 12.8699C51.8996 12.7934 51.8022 12.7445 51.6971 12.7317L50.6623 12.4156V9.15556H59.5189V12.3899L58.0614 12.6766C57.9955 12.6898 57.935 12.7219 57.8875 12.769C57.84 12.816 57.8076 12.876 57.7943 12.9412L53.4217 27.0217L46.297 27.0107Z" fill="black"/>
<path d="M70.8975 25.7205C70.915 24.0905 71.0314 22.4631 71.2461 20.8469H75.5965L76.023 22.9015C76.5803 23.087 77.1635 23.185 77.7513 23.1918C78.7601 23.1918 79.424 22.7434 79.424 22.0304C79.424 21.1373 78.2817 20.7955 76.9243 20.3985C74.2131 19.5826 70.9716 18.5278 70.9716 14.3635C70.9716 10.1993 73.7347 8.83203 77.9108 8.83203C80.57 8.83203 82.2983 9.51566 84.1564 10.3867C84.1831 11.9282 84.0864 13.4694 83.8672 14.9957H79.513L79.3016 13.18C78.8802 13.0043 78.4274 12.9143 77.9702 12.9154C76.9873 12.9154 76.3494 13.1506 76.3494 13.9151C76.3494 14.8119 77.5733 15.3412 78.9011 15.7859C81.4972 16.6276 84.8055 17.789 84.8055 21.6114C84.8055 25.4338 82.3577 27.3009 77.7328 27.3009C75.3639 27.2863 73.0283 26.7463 70.8975 25.7205Z" fill="black"/>
<path d="M10.6331 9.14433V12.3971L11.9349 12.7646C12.4764 12.9079 12.469 13.1836 12.1871 14.0179L9.66515 21.5929H9.48342L7.5363 14.0179C7.31748 13.2093 7.32118 12.8712 7.78849 12.7646L9.17188 12.3971V9.14433H0V12.3971L1.48352 12.6837C1.62817 12.7205 1.66155 12.7903 1.69863 12.9337L6.1492 27.0105H12.5469L14.7722 19.531L16.9975 26.9994H23.4137L27.8643 12.9226C27.8813 12.8611 27.9142 12.805 27.9597 12.7599C28.0052 12.7148 28.0618 12.6822 28.1239 12.6654L29.5592 12.386V9.1333H20.3947V12.386L21.7781 12.7536C22.2491 12.8602 22.2491 13.1983 22.0303 14.0069L20.0832 21.5819H19.9052L17.3683 14.0179C17.0902 13.1836 17.0791 12.9153 17.6205 12.7646L18.9223 12.3971V9.14433H10.6331Z" fill="black"/>
<path d="M33.7538 18.9393H36.1534V18.263C36.1534 17.5279 35.7306 17.1383 34.9666 17.1383C34.2026 17.1383 33.7538 17.5316 33.7538 18.263V18.9393ZM28.6394 22.0229V18.5754C28.6394 15.4145 31.1169 13.3232 34.8628 13.3232C38.6087 13.3232 41.0825 15.4145 41.0825 18.5754V21.5157H33.7538V22.2214C33.7538 22.9785 34.6514 23.4747 35.6082 23.4747C36.5651 23.4747 37.5072 23.0557 37.6629 22.4052H41.0639V24.978C39.6954 26.5731 37.611 27.2788 35.4488 27.2788C31.3839 27.2751 28.6394 25.1838 28.6394 22.0229Z" fill="black"/>
<path d="M65.1675 7.49777C66.7448 7.49777 68.0233 6.23071 68.0233 4.66771C68.0233 3.10471 66.7448 1.83765 65.1675 1.83765C63.5903 1.83765 62.3118 3.10471 62.3118 4.66771C62.3118 6.23071 63.5903 7.49777 65.1675 7.49777Z" fill="black"/>
</svg>
