<svg width="92" height="28" viewBox="0 0 92 28" fill="none" xmlns="http://www.w3.org/2000/svg">
<g clip-path="url(#clip0_1358_42251)">
<path d="M91.752 25.2856H0.498047V28H91.752V25.2856Z" fill="#FF0000"/>
<path d="M28.3743 0.434648H37.9227C37.9772 0.429605 38.0321 0.436966 38.0834 0.456181C38.1346 0.475395 38.1808 0.505962 38.2186 0.54559C38.2543 0.580014 38.2826 0.621408 38.3017 0.667208C38.3208 0.713009 38.3302 0.76224 38.3295 0.811853V3.0307C38.3292 3.07907 38.3193 3.1269 38.3002 3.17136C38.2812 3.21581 38.2534 3.25601 38.2186 3.28957C38.1802 3.32787 38.1336 3.35706 38.0824 3.37498C38.0312 3.3929 37.9766 3.3991 37.9227 3.39312H34.9643V9.73164C34.9643 9.83168 34.9245 9.92762 34.8538 9.99836C34.783 10.0691 34.6871 10.1088 34.5871 10.1088H31.7247C31.6761 10.1104 31.6277 10.1013 31.583 10.0821C31.5383 10.0629 31.4983 10.0342 31.4659 9.9979C31.4301 9.96348 31.4018 9.92208 31.3828 9.87628C31.3637 9.83048 31.3542 9.78125 31.3549 9.73164V3.39312H28.3965C28.299 3.39122 28.206 3.35165 28.1371 3.28271C28.0681 3.21376 28.0285 3.1208 28.0266 3.02331V0.804456C28.0259 0.754844 28.0354 0.705613 28.0545 0.659812C28.0736 0.614012 28.1019 0.572617 28.1376 0.538194C28.2011 0.475778 28.2853 0.438918 28.3743 0.434648Z" fill="black"/>
<path d="M46.7168 0.434608H49.5717C49.6201 0.43489 49.6679 0.444851 49.7124 0.463905C49.7568 0.482959 49.797 0.51072 49.8306 0.545551C49.8663 0.579974 49.8946 0.621368 49.9137 0.667169C49.9328 0.71297 49.9422 0.762201 49.9415 0.811813V9.74639C49.9422 9.796 49.9328 9.84524 49.9137 9.89104C49.8946 9.93684 49.8663 9.97823 49.8306 10.0127C49.797 10.0475 49.7568 10.0752 49.7124 10.0943C49.6679 10.1134 49.6201 10.1233 49.5717 10.1236H46.7168C46.6684 10.1233 46.6206 10.1134 46.5761 10.0943C46.5317 10.0752 46.4915 10.0475 46.4579 10.0127C46.4222 9.97823 46.3939 9.93684 46.3748 9.89104C46.3557 9.84524 46.3463 9.796 46.347 9.74639V6.78792H43.5808V9.74639C43.5808 9.84643 43.5411 9.94238 43.4703 10.0131C43.3996 10.0839 43.3037 10.1236 43.2036 10.1236H40.3561C40.2573 10.1245 40.162 10.0875 40.0898 10.0201C40.0535 9.9845 40.0249 9.94186 40.0059 9.89478C39.9868 9.84769 39.9776 9.79718 39.9789 9.74639V0.811813C39.9782 0.762201 39.9876 0.71297 40.0067 0.667169C40.0258 0.621368 40.0541 0.579974 40.0898 0.545551C40.1242 0.509817 40.1656 0.481532 40.2114 0.462448C40.2572 0.443365 40.3065 0.433889 40.3561 0.434608H43.2036C43.2532 0.433889 43.3025 0.443365 43.3483 0.462448C43.3941 0.481532 43.4354 0.509817 43.4699 0.545551C43.5056 0.579974 43.5339 0.621368 43.553 0.667169C43.5721 0.71297 43.5815 0.762201 43.5808 0.811813V3.64455H46.3544V0.811813C46.3537 0.762201 46.3631 0.71297 46.3822 0.667169C46.4013 0.621368 46.4296 0.579974 46.4653 0.545551C46.5313 0.476986 46.6217 0.437136 46.7168 0.434608Z" fill="black"/>
<path d="M56.0803 7.42399H61.5978C61.6511 7.42008 61.7046 7.428 61.7545 7.44718C61.8043 7.46636 61.8493 7.49633 61.8863 7.53494C61.9211 7.5685 61.9488 7.60869 61.9679 7.65315C61.987 7.69761 61.9969 7.74543 61.9972 7.7938V9.74639C61.9972 9.84643 61.9575 9.94238 61.8867 10.0131C61.816 10.0839 61.72 10.1236 61.62 10.1236H52.8555C52.7555 10.1236 52.6595 10.0839 52.5888 10.0131C52.5181 9.94238 52.4783 9.84643 52.4783 9.74639V0.811813C52.4776 0.762201 52.4871 0.71297 52.5062 0.667169C52.5252 0.621368 52.5535 0.579974 52.5893 0.545551C52.6237 0.509817 52.6651 0.481532 52.7109 0.462448C52.7567 0.443365 52.8059 0.433889 52.8555 0.434608H61.4647C61.513 0.43489 61.5609 0.444851 61.6053 0.463905C61.6498 0.482959 61.69 0.51072 61.7235 0.545551C61.7593 0.579974 61.7876 0.621368 61.8066 0.667169C61.8257 0.71297 61.8352 0.762201 61.8345 0.811813V2.75701C61.8352 2.80662 61.8257 2.85585 61.8066 2.90165C61.7876 2.94745 61.7593 2.98885 61.7235 3.02327C61.69 3.0581 61.6498 3.08586 61.6053 3.10492C61.5609 3.12397 61.513 3.13393 61.4647 3.13421H56.0803V4.00696H60.7029C60.7512 4.00724 60.7991 4.0172 60.8435 4.03626C60.888 4.05531 60.9282 4.08307 60.9617 4.1179C60.9973 4.15092 61.0255 4.19102 61.0446 4.2356C61.0637 4.28018 61.0733 4.32827 61.0727 4.37677V6.17404C61.0734 6.22365 61.0639 6.27288 61.0448 6.31868C61.0258 6.36448 60.9975 6.40588 60.9617 6.4403C60.9282 6.47513 60.888 6.50289 60.8435 6.52195C60.7991 6.541 60.7512 6.55096 60.7029 6.55125H56.0803V7.42399Z" fill="black"/>
<path d="M9.51398 17.4458C9.83479 17.6812 10.0911 17.9937 10.2591 18.3544C10.4272 18.7151 10.5016 19.1123 10.4755 19.5094C10.4651 19.9711 10.3296 20.4214 10.0834 20.8121C9.83722 21.2029 9.4896 21.5195 9.07761 21.7282C7.94584 22.3445 6.66679 22.6386 5.37952 22.5788C4.125 22.6514 2.87634 22.3585 1.78498 21.7356C1.40823 21.533 1.09116 21.2351 0.865357 20.8718C0.639558 20.5084 0.512916 20.0922 0.498047 19.6647C0.498047 19.4576 0.601593 19.3614 0.816082 19.3614H3.65621C3.82777 19.3552 3.99498 19.4163 4.12217 19.5316C4.51376 19.8075 4.99152 19.9335 5.46828 19.8866C6.34102 19.8866 6.7774 19.7534 6.7774 19.4946C6.7774 19.2357 6.64427 19.2061 6.36321 19.1174C5.82558 18.9754 5.27589 18.8838 4.72126 18.8437C2.11288 18.5429 0.806221 17.5839 0.80129 15.9666C0.800047 15.5194 0.915346 15.0796 1.13583 14.6905C1.35631 14.3014 1.67436 13.9765 2.05864 13.7477C3.07225 13.1327 4.24725 12.8364 5.43129 12.8972C6.63454 12.8408 7.82571 13.1586 8.84093 13.8069C9.18947 14.0009 9.48671 14.2752 9.70796 14.607C9.92922 14.9389 10.0681 15.3188 10.1131 15.7151C10.115 15.7563 10.1081 15.7974 10.0928 15.8357C10.0774 15.874 10.0541 15.9085 10.0243 15.937C9.95565 15.9931 9.86882 16.022 9.78025 16.0184H6.82178C6.67188 16.0174 6.52741 15.9622 6.41499 15.8631C6.128 15.6493 5.77326 15.5468 5.4165 15.5746C4.80262 15.5746 4.49198 15.7003 4.49198 15.9444C4.49198 16.1885 4.61032 16.1885 4.85439 16.2624C5.32581 16.3784 5.80555 16.4576 6.28925 16.4991C7.42472 16.5504 8.53101 16.8751 9.51398 17.4458Z" fill="black"/>
<path d="M11.9918 12.8896H21.5403C21.6378 12.8915 21.7307 12.9311 21.7997 13.0001C21.8686 13.069 21.9082 13.162 21.9101 13.2595V15.4783C21.9082 15.5758 21.8686 15.6688 21.7997 15.7377C21.7307 15.8067 21.6378 15.8462 21.5403 15.8481H18.5818V22.1866C18.5839 22.2358 18.5758 22.2848 18.558 22.3306C18.5402 22.3765 18.513 22.4181 18.4783 22.4529C18.4438 22.4886 18.4024 22.5169 18.3566 22.536C18.3108 22.5551 18.2616 22.5646 18.212 22.5638H15.3423C15.2422 22.5638 15.1463 22.5241 15.0755 22.4534C15.0048 22.3826 14.9651 22.2867 14.9651 22.1866V15.8629H12.0066C11.957 15.8636 11.9078 15.8542 11.862 15.8351C11.8162 15.816 11.7748 15.7877 11.7403 15.752C11.7055 15.7184 11.6777 15.6782 11.6587 15.6338C11.6396 15.5893 11.6297 15.5415 11.6294 15.4931V13.2742C11.6297 13.2259 11.6396 13.1781 11.6587 13.1336C11.6777 13.0891 11.7055 13.0489 11.7403 13.0154C11.7718 12.9787 11.8102 12.9487 11.8534 12.9271C11.8966 12.9055 11.9436 12.8928 11.9918 12.8896Z" fill="black"/>
<path d="M24.4765 22.5786H21.8582C21.8176 22.5795 21.7772 22.5714 21.7401 22.5547C21.703 22.5381 21.6701 22.5134 21.6437 22.4825C21.6182 22.4616 21.5972 22.4357 21.582 22.4065C21.5667 22.3773 21.5575 22.3452 21.555 22.3123C21.55 22.2706 21.55 22.2284 21.555 22.1866L24.5726 13.3482C24.5997 13.2077 24.6786 13.0825 24.7937 12.9975C24.9088 12.9126 25.0517 12.874 25.1939 12.8896H29.0399C29.1821 12.874 29.325 12.9126 29.4401 12.9975C29.5553 13.0825 29.6342 13.2077 29.6612 13.3482L32.6788 22.2236C32.6838 22.2654 32.6838 22.3076 32.6788 22.3493C32.6763 22.3822 32.6671 22.4142 32.6519 22.4435C32.6366 22.4727 32.6156 22.4985 32.5901 22.5194C32.5637 22.5504 32.5308 22.5751 32.4937 22.5917C32.4566 22.6083 32.4162 22.6165 32.3756 22.6156H29.7869C29.6455 22.617 29.5076 22.5712 29.3951 22.4855C29.2826 22.3998 29.2018 22.279 29.1657 22.1422L28.818 21.1437H25.4454L25.0978 22.1126C25.0602 22.248 24.9789 22.3672 24.8665 22.4514C24.7541 22.5357 24.617 22.5805 24.4765 22.5786ZM28.1154 18.4367L27.1243 15.5596L26.1406 18.4367H28.1154Z" fill="black"/>
<path d="M40.9478 12.8897H43.5216C43.5701 12.8891 43.6182 12.8987 43.6628 12.9178C43.7074 12.9369 43.7475 12.9651 43.7805 13.0007C43.8153 13.0342 43.8431 13.0744 43.8621 13.1189C43.8812 13.1633 43.8911 13.2112 43.8914 13.2595V22.2015C43.8921 22.2511 43.8827 22.3004 43.8636 22.3462C43.8445 22.392 43.8162 22.4333 43.7805 22.4678C43.7475 22.5033 43.7074 22.5315 43.6628 22.5506C43.6182 22.5697 43.5701 22.5793 43.5216 22.5787H41.3028C41.1933 22.5776 41.0858 22.5502 40.9892 22.4987C40.8926 22.4472 40.8099 22.3732 40.7481 22.2829L37.7304 18.4369V22.2015C37.7304 22.3016 37.6907 22.3975 37.6199 22.4682C37.5492 22.539 37.4533 22.5787 37.3532 22.5787H34.7719C34.7236 22.5784 34.6758 22.5685 34.6313 22.5494C34.5868 22.5304 34.5466 22.5026 34.5131 22.4678C34.4773 22.4333 34.4491 22.392 34.43 22.3462C34.4109 22.3004 34.4014 22.2511 34.4021 22.2015V13.2595C34.404 13.162 34.4436 13.0691 34.5125 13.0001C34.5815 12.9312 34.6745 12.8916 34.7719 12.8897H36.9908C37.0963 12.8876 37.2008 12.9114 37.2949 12.9591C37.3891 13.0068 37.4701 13.077 37.5307 13.1634L40.541 17.3274V13.2595C40.5412 13.2112 40.5512 13.1633 40.5703 13.1189C40.5893 13.0744 40.6171 13.0342 40.6519 13.0007C40.6896 12.961 40.7359 12.9305 40.7871 12.9113C40.8383 12.892 40.8933 12.8847 40.9478 12.8897Z" fill="black"/>
<path d="M46.3543 12.8898H50.792C51.6884 12.8715 52.5814 13.0066 53.4324 13.2892C54.1585 13.5447 54.7868 14.0205 55.2297 14.6501C55.7283 15.3398 55.988 16.1734 55.9693 17.0243V18.4369C56.0205 19.0563 55.9113 19.6783 55.6522 20.2432C55.3931 20.808 54.9929 21.2965 54.49 21.6617C53.3763 22.329 52.0885 22.6484 50.792 22.5788H46.3543C46.2542 22.5788 46.1583 22.5391 46.0875 22.4683C46.0168 22.3976 45.9771 22.3016 45.9771 22.2016V13.2596C45.9773 13.2113 45.9873 13.1634 46.0063 13.119C46.0254 13.0745 46.0532 13.0343 46.088 13.0008C46.1224 12.965 46.1638 12.9367 46.2096 12.9177C46.2554 12.8986 46.3046 12.8891 46.3543 12.8898ZM49.579 15.5894V19.8792H50.8363C51.2049 19.8999 51.569 19.7899 51.8644 19.5686C51.997 19.4645 52.103 19.3305 52.1738 19.1775C52.2445 19.0245 52.2779 18.8568 52.2712 18.6884V16.7802C52.2805 16.6136 52.2506 16.4472 52.1837 16.2943C52.1169 16.1414 52.0152 16.0064 51.8866 15.9001C51.5912 15.6787 51.2271 15.5687 50.8585 15.5894H49.579Z" fill="black"/>
<path d="M59.8376 22.5786H57.2267C57.1861 22.5795 57.1457 22.5714 57.1086 22.5547C57.0715 22.5381 57.0386 22.5134 57.0122 22.4825C56.9867 22.4616 56.9657 22.4357 56.9504 22.4065C56.9352 22.3772 56.926 22.3452 56.9235 22.3123C56.9191 22.2705 56.9191 22.2284 56.9235 22.1866L59.9411 13.3482C59.9713 13.2079 60.0521 13.0836 60.168 12.999C60.284 12.9145 60.427 12.8755 60.5698 12.8896H64.4158C64.558 12.874 64.7009 12.9126 64.816 12.9975C64.9311 13.0825 65.0101 13.2077 65.0371 13.3482L68.0547 22.2236C68.0597 22.2654 68.0597 22.3076 68.0547 22.3493C68.0522 22.383 68.0423 22.4157 68.0257 22.4451C68.009 22.4745 67.9861 22.4999 67.9586 22.5194C67.9326 22.5508 67.8997 22.5758 67.8625 22.5925C67.8253 22.6091 67.7848 22.617 67.7441 22.6156H65.1554C65.014 22.617 64.8761 22.5712 64.7636 22.4855C64.651 22.3998 64.5703 22.279 64.5341 22.1422L64.1865 21.1437H60.8065L60.4662 22.1126C60.4261 22.248 60.3431 22.3666 60.2298 22.4507C60.1164 22.5347 59.9787 22.5796 59.8376 22.5786ZM63.4765 18.4367L62.5002 15.5596L61.5165 18.4367H63.4765Z" fill="black"/>
<path d="M79.8663 22.1498C79.8757 22.1986 79.8757 22.2488 79.8663 22.2977C79.8649 22.333 79.8563 22.3675 79.841 22.3993C79.8257 22.4311 79.8041 22.4595 79.7775 22.4826C79.7512 22.5136 79.7182 22.5383 79.6811 22.5549C79.644 22.5715 79.6037 22.5797 79.563 22.5788H76.4197C76.2996 22.5864 76.18 22.5572 76.0769 22.4951C75.9739 22.4329 75.8922 22.3409 75.8428 22.2311L74.6224 19.4872H73.4834V22.2016C73.4841 22.2512 73.4746 22.3004 73.4556 22.3462C73.4365 22.392 73.4082 22.4334 73.3725 22.4678C73.3389 22.5027 73.2987 22.5304 73.2542 22.5495C73.2098 22.5685 73.162 22.5785 73.1136 22.5788H70.1181C70.0698 22.5785 70.0219 22.5685 69.9775 22.5495C69.933 22.5304 69.8928 22.5027 69.8593 22.4678C69.8235 22.4334 69.7953 22.392 69.7762 22.3462C69.7571 22.3004 69.7476 22.2512 69.7483 22.2016V13.2596C69.7502 13.1621 69.7898 13.0691 69.8587 13.0002C69.9277 12.9312 70.0207 12.8917 70.1181 12.8898H75.5026C76.5784 12.8284 77.6416 13.1478 78.5054 13.7921C78.8705 14.0836 79.1613 14.4574 79.3542 14.8829C79.547 15.3084 79.6363 15.7736 79.6148 16.2402C79.6491 16.7871 79.5285 17.3325 79.2668 17.814C79.0052 18.2954 78.6131 18.6933 78.1356 18.962L79.8663 22.1498ZM73.4834 15.4932V16.9725H75.1993C75.2881 16.9769 75.3768 16.9612 75.4588 16.9267C75.5407 16.8921 75.6138 16.8395 75.6727 16.7728C75.787 16.6309 75.8449 16.4518 75.8354 16.2698C75.8419 16.0792 75.7846 15.8918 75.6727 15.7373C75.6209 15.6608 75.5499 15.5994 75.4668 15.5591C75.3837 15.5189 75.2914 15.5012 75.1993 15.508L73.4834 15.4932Z" fill="black"/>
<path d="M82.1519 12.8898H86.5896C87.4861 12.8715 88.3791 13.0066 89.2301 13.2892C89.9643 13.5407 90.6009 14.0168 91.0495 14.6501C91.5264 15.3477 91.7675 16.1797 91.7374 17.0243V18.4369C91.7901 19.0564 91.6815 19.679 91.4223 20.2441C91.1631 20.8092 90.762 21.2975 90.2581 21.6617C89.1574 22.3213 87.8861 22.6404 86.6044 22.5788H82.1667C82.1184 22.5785 82.0705 22.5686 82.0261 22.5495C81.9816 22.5305 81.9414 22.5027 81.9079 22.4679C81.8721 22.4334 81.8438 22.392 81.8248 22.3462C81.8057 22.3004 81.7962 22.2512 81.7969 22.2016V13.2596C81.7988 13.1621 81.8384 13.0692 81.9073 13.0002C81.9763 12.9313 82.0692 12.8917 82.1667 12.8898H82.1519ZM85.3767 15.5894V19.8792H86.634C87.0049 19.9004 87.3715 19.7904 87.6695 19.5686C87.7958 19.4607 87.8956 19.3252 87.961 19.1726C88.0264 19.0199 88.0557 18.8543 88.0467 18.6884V16.7802C88.0557 16.6144 88.0264 16.4487 87.961 16.296C87.8956 16.1434 87.7958 16.0079 87.6695 15.9001C87.3715 15.6782 87.0049 15.5682 86.634 15.5894H85.3767Z" fill="black"/>
</g>
<defs>
<clipPath id="clip0_1358_42251">
<rect width="91.254" height="27.5655" fill="white" transform="translate(0.498047 0.43457)"/>
</clipPath>
</defs>
</svg>
