<svg width="92" height="29" viewBox="0 0 92 29" fill="none" xmlns="http://www.w3.org/2000/svg">
<g clip-path="url(#clip0_772_31877)">
<path d="M91.4552 25.7856H0.201172V28.5H91.4552V25.7856Z" fill="#FF0000"/>
<path d="M28.0774 0.934648H37.6259C37.6803 0.929605 37.7353 0.936966 37.7865 0.956181C37.8377 0.975395 37.884 1.00596 37.9217 1.04559C37.9574 1.08001 37.9857 1.12141 38.0048 1.16721C38.0239 1.21301 38.0334 1.26224 38.0326 1.31185V3.5307C38.0324 3.57907 38.0224 3.6269 38.0033 3.67136C37.9843 3.71581 37.9565 3.75601 37.9217 3.78957C37.8833 3.82787 37.8368 3.85706 37.7856 3.87498C37.7343 3.8929 37.6798 3.8991 37.6259 3.89312H34.6674V10.2316C34.6674 10.3317 34.6276 10.4276 34.5569 10.4984C34.4862 10.5691 34.3902 10.6088 34.2902 10.6088H31.4279C31.3792 10.6104 31.3308 10.6013 31.2861 10.5821C31.2414 10.5629 31.2014 10.5342 31.169 10.4979C31.1333 10.4635 31.105 10.4221 31.0859 10.3763C31.0668 10.3305 31.0573 10.2813 31.0581 10.2316V3.89312H28.0996C28.0021 3.89122 27.9091 3.85165 27.8402 3.78271C27.7712 3.71376 27.7317 3.6208 27.7298 3.52331V1.30446C27.7291 1.25484 27.7385 1.20561 27.7576 1.15981C27.7767 1.11401 27.805 1.07262 27.8407 1.03819C27.9042 0.975778 27.9885 0.938918 28.0774 0.934648Z" fill="white"/>
<path d="M46.4199 0.934608H49.2748C49.3232 0.93489 49.371 0.944851 49.4155 0.963905C49.46 0.982959 49.5001 1.01072 49.5337 1.04555C49.5694 1.07997 49.5977 1.12137 49.6168 1.16717C49.6359 1.21297 49.6454 1.2622 49.6446 1.31181V10.2464C49.6454 10.296 49.6359 10.3452 49.6168 10.391C49.5977 10.4368 49.5694 10.4782 49.5337 10.5127C49.5001 10.5475 49.46 10.5752 49.4155 10.5943C49.371 10.6134 49.3232 10.6233 49.2748 10.6236H46.4199C46.3716 10.6233 46.3237 10.6134 46.2793 10.5943C46.2348 10.5752 46.1946 10.5475 46.1611 10.5127C46.1253 10.4782 46.097 10.4368 46.078 10.391C46.0589 10.3452 46.0494 10.296 46.0501 10.2464V7.28792H43.2839V10.2464C43.2839 10.3464 43.2442 10.4424 43.1735 10.5131C43.1027 10.5839 43.0068 10.6236 42.9067 10.6236H40.0592C39.9605 10.6245 39.8651 10.5875 39.7929 10.5201C39.7566 10.4845 39.7281 10.4419 39.709 10.3948C39.6899 10.3477 39.6807 10.2972 39.682 10.2464V1.31181C39.6813 1.2622 39.6908 1.21297 39.7098 1.16717C39.7289 1.12137 39.7572 1.07997 39.7929 1.04555C39.8274 1.00982 39.8688 0.981532 39.9146 0.962448C39.9604 0.943365 40.0096 0.933889 40.0592 0.934608H42.9067C42.9563 0.933889 43.0056 0.943365 43.0514 0.962448C43.0972 0.981532 43.1386 1.00982 43.173 1.04555C43.2087 1.07997 43.237 1.12137 43.2561 1.16717C43.2752 1.21297 43.2847 1.2622 43.2839 1.31181V4.14455H46.0575V1.31181C46.0568 1.2622 46.0663 1.21297 46.0853 1.16717C46.1044 1.12137 46.1327 1.07997 46.1685 1.04555C46.2345 0.976986 46.3248 0.937136 46.4199 0.934608Z" fill="white"/>
<path d="M55.7834 7.92399H61.3009C61.3542 7.92008 61.4077 7.928 61.4576 7.94718C61.5074 7.96636 61.5525 7.99633 61.5894 8.03494C61.6242 8.0685 61.652 8.10869 61.671 8.15315C61.6901 8.19761 61.7 8.24543 61.7003 8.2938V10.2464C61.7003 10.3464 61.6606 10.4424 61.5898 10.5131C61.5191 10.5839 61.4232 10.6236 61.3231 10.6236H52.5586C52.4586 10.6236 52.3627 10.5839 52.2919 10.5131C52.2212 10.4424 52.1814 10.3464 52.1814 10.2464V1.31181C52.1807 1.2622 52.1902 1.21297 52.2093 1.16717C52.2284 1.12137 52.2566 1.07997 52.2924 1.04555C52.3268 1.00982 52.3682 0.981532 52.414 0.962448C52.4598 0.943365 52.509 0.933889 52.5586 0.934608H61.1678C61.2162 0.93489 61.264 0.944851 61.3085 0.963905C61.3529 0.982959 61.3931 1.01072 61.4267 1.04555C61.4624 1.07997 61.4907 1.12137 61.5098 1.16717C61.5288 1.21297 61.5383 1.2622 61.5376 1.31181V3.25701C61.5383 3.30662 61.5288 3.35585 61.5098 3.40165C61.4907 3.44745 61.4624 3.48885 61.4267 3.52327C61.3931 3.5581 61.3529 3.58586 61.3085 3.60492C61.264 3.62397 61.2162 3.63393 61.1678 3.63421H55.7834V4.50696H60.406C60.4544 4.50724 60.5022 4.5172 60.5466 4.53626C60.5911 4.55531 60.6313 4.58307 60.6649 4.6179C60.7004 4.65092 60.7286 4.69102 60.7477 4.7356C60.7668 4.78018 60.7764 4.82827 60.7758 4.87677V6.67404C60.7765 6.72365 60.767 6.77288 60.748 6.81868C60.7289 6.86448 60.7006 6.90588 60.6649 6.9403C60.6313 6.97513 60.5911 7.00289 60.5466 7.02195C60.5022 7.041 60.4544 7.05096 60.406 7.05125H55.7834V7.92399Z" fill="white"/>
<path d="M9.21711 17.9458C9.53792 18.1812 9.7942 18.4937 9.96226 18.8544C10.1303 19.2151 10.2047 19.6123 10.1786 20.0094C10.1682 20.4711 10.0327 20.9214 9.78653 21.3121C9.54035 21.7029 9.19273 22.0195 8.78073 22.2282C7.64897 22.8445 6.36992 23.1386 5.08265 23.0788C3.82812 23.1514 2.57947 22.8585 1.48811 22.2356C1.11135 22.033 0.794281 21.7351 0.568482 21.3718C0.342683 21.0084 0.216041 20.5922 0.201172 20.1647C0.201172 19.9576 0.304718 19.8614 0.519207 19.8614H3.35934C3.5309 19.8552 3.6981 19.9163 3.8253 20.0316C4.21689 20.3075 4.69464 20.4335 5.1714 20.3866C6.04415 20.3866 6.48052 20.2534 6.48052 19.9946C6.48052 19.7357 6.34739 19.7061 6.06634 19.6174C5.5287 19.4754 4.97901 19.3838 4.42439 19.3437C1.816 19.0429 0.509346 18.0839 0.504415 16.4666C0.503172 16.0194 0.618471 15.5796 0.838951 15.1905C1.05943 14.8014 1.37748 14.4765 1.76176 14.2477C2.77538 13.6327 3.95038 13.3364 5.13442 13.3972C6.33767 13.3408 7.52883 13.6586 8.54406 14.3069C8.8926 14.5009 9.18984 14.7752 9.41109 15.107C9.63234 15.4389 9.77122 15.8188 9.8162 16.2151C9.81812 16.2563 9.81119 16.2974 9.79588 16.3357C9.78057 16.374 9.75723 16.4085 9.72744 16.437C9.65877 16.4931 9.57194 16.522 9.48337 16.5184H6.5249C6.37501 16.5174 6.23053 16.4622 6.11811 16.3631C5.83113 16.1493 5.47639 16.0468 5.11963 16.0746C4.50575 16.0746 4.19511 16.2003 4.19511 16.4444C4.19511 16.6885 4.31344 16.6885 4.55752 16.7624C5.02894 16.8784 5.50867 16.9576 5.99238 16.9991C7.12785 17.0504 8.23414 17.3751 9.21711 17.9458Z" fill="white"/>
<path d="M11.6948 13.3896H21.2433C21.3408 13.3915 21.4337 13.4311 21.5027 13.5001C21.5716 13.569 21.6112 13.662 21.6131 13.7595V15.9783C21.6112 16.0758 21.5716 16.1688 21.5027 16.2377C21.4337 16.3067 21.3408 16.3462 21.2433 16.3481H18.2848V22.6866C18.2869 22.7358 18.2788 22.7848 18.261 22.8306C18.2432 22.8765 18.216 22.9181 18.1813 22.9529C18.1468 22.9886 18.1054 23.0169 18.0596 23.036C18.0138 23.0551 17.9646 23.0646 17.915 23.0638H15.0453C14.9452 23.0638 14.8493 23.0241 14.7786 22.9534C14.7078 22.8826 14.6681 22.7867 14.6681 22.6866V16.3629H11.7096C11.66 16.3636 11.6108 16.3542 11.565 16.3351C11.5192 16.316 11.4778 16.2877 11.4433 16.252C11.4085 16.2184 11.3807 16.1782 11.3617 16.1338C11.3426 16.0893 11.3327 16.0415 11.3324 15.9931V13.7742C11.3327 13.7259 11.3426 13.6781 11.3617 13.6336C11.3807 13.5891 11.4085 13.5489 11.4433 13.5154C11.4748 13.4787 11.5132 13.4487 11.5564 13.4271C11.5996 13.4055 11.6466 13.3928 11.6948 13.3896Z" fill="white"/>
<path d="M24.1796 23.0786H21.5614C21.5207 23.0795 21.4804 23.0714 21.4433 23.0547C21.4062 23.0381 21.3732 23.0134 21.3469 22.9825C21.3214 22.9616 21.3003 22.9357 21.2851 22.9065C21.2698 22.8773 21.2607 22.8452 21.2581 22.8123C21.2532 22.7706 21.2532 22.7284 21.2581 22.6866L24.2758 13.8482C24.3028 13.7077 24.3817 13.5825 24.4968 13.4975C24.6119 13.4126 24.7548 13.374 24.897 13.3896H28.743C28.8853 13.374 29.0282 13.4126 29.1433 13.4975C29.2584 13.5825 29.3373 13.7077 29.3643 13.8482L32.382 22.7236C32.3869 22.7654 32.3869 22.8076 32.382 22.8493C32.3794 22.8822 32.3703 22.9142 32.355 22.9435C32.3398 22.9727 32.3187 22.9985 32.2932 23.0194C32.2668 23.0504 32.2339 23.0751 32.1968 23.0917C32.1597 23.1083 32.1194 23.1165 32.0787 23.1156H29.4901C29.3486 23.117 29.2107 23.0712 29.0982 22.9855C28.9857 22.8998 28.905 22.779 28.8688 22.6422L28.5212 21.6437H25.1485L24.8009 22.6126C24.7633 22.748 24.682 22.8672 24.5696 22.9514C24.4572 23.0357 24.3201 23.0805 24.1796 23.0786ZM27.8185 18.9367L26.8274 16.0596L25.8437 18.9367H27.8185Z" fill="white"/>
<path d="M40.6509 13.3897H43.2247C43.2732 13.3891 43.3213 13.3987 43.3659 13.4178C43.4105 13.4369 43.4506 13.4651 43.4836 13.5007C43.5184 13.5342 43.5462 13.5744 43.5653 13.6189C43.5843 13.6633 43.5943 13.7112 43.5946 13.7595V22.7015C43.5953 22.7511 43.5858 22.8004 43.5667 22.8462C43.5476 22.892 43.5193 22.9333 43.4836 22.9678C43.4506 23.0033 43.4105 23.0315 43.3659 23.0506C43.3213 23.0697 43.2732 23.0793 43.2247 23.0787H41.0059C40.8965 23.0776 40.7889 23.0502 40.6923 22.9987C40.5958 22.9472 40.513 22.8732 40.4512 22.7829L37.4335 18.9369V22.7015C37.4335 22.8016 37.3938 22.8975 37.3231 22.9682C37.2523 23.039 37.1564 23.0787 37.0563 23.0787H34.4751C34.4267 23.0784 34.3789 23.0685 34.3344 23.0494C34.29 23.0304 34.2498 23.0026 34.2162 22.9678C34.1805 22.9333 34.1522 22.892 34.1331 22.8462C34.114 22.8004 34.1045 22.7511 34.1053 22.7015V13.7595C34.1072 13.662 34.1467 13.5691 34.2157 13.5001C34.2846 13.4312 34.3776 13.3916 34.4751 13.3897H36.6939C36.7995 13.3876 36.9039 13.4114 36.9981 13.4591C37.0922 13.5068 37.1732 13.577 37.2338 13.6634L40.2441 17.8274V13.7595C40.2444 13.7112 40.2543 13.6633 40.2734 13.6189C40.2924 13.5744 40.3202 13.5342 40.355 13.5007C40.3928 13.461 40.439 13.4305 40.4902 13.4113C40.5415 13.392 40.5964 13.3847 40.6509 13.3897Z" fill="white"/>
<path d="M46.0574 13.3898H50.4951C51.3916 13.3715 52.2846 13.5066 53.1355 13.7892C53.8616 14.0447 54.4899 14.5205 54.9328 15.1501C55.4314 15.8398 55.6912 16.6734 55.6724 17.5243V18.9369C55.7236 19.5563 55.6145 20.1783 55.3554 20.7432C55.0963 21.308 54.696 21.7965 54.1932 22.1617C53.0794 22.829 51.7916 23.1484 50.4951 23.0788H46.0574C45.9573 23.0788 45.8614 23.0391 45.7907 22.9683C45.7199 22.8976 45.6802 22.8016 45.6802 22.7016V13.7596C45.6805 13.7113 45.6904 13.6634 45.7095 13.619C45.7285 13.5745 45.7563 13.5343 45.7911 13.5008C45.8255 13.465 45.8669 13.4367 45.9127 13.4177C45.9585 13.3986 46.0078 13.3891 46.0574 13.3898ZM49.2821 16.0894V20.3792H50.5395C50.908 20.3999 51.2721 20.2899 51.5675 20.0686C51.7001 19.9645 51.8062 19.8305 51.8769 19.6775C51.9476 19.5245 51.981 19.3568 51.9743 19.1884V17.2802C51.9836 17.1136 51.9537 16.9472 51.8869 16.7943C51.8201 16.6414 51.7183 16.5064 51.5897 16.4001C51.2943 16.1787 50.9302 16.0687 50.5616 16.0894H49.2821Z" fill="white"/>
<path d="M59.5407 23.0786H56.9298C56.8892 23.0795 56.8488 23.0714 56.8117 23.0547C56.7746 23.0381 56.7417 23.0134 56.7154 22.9825C56.6898 22.9616 56.6688 22.9357 56.6536 22.9065C56.6383 22.8772 56.6291 22.8452 56.6266 22.8123C56.6222 22.7705 56.6222 22.7284 56.6266 22.6866L59.6442 13.8482C59.6744 13.7079 59.7552 13.5836 59.8711 13.499C59.9871 13.4145 60.1301 13.3755 60.2729 13.3896H64.1189C64.2611 13.374 64.404 13.4126 64.5191 13.4975C64.6343 13.5825 64.7132 13.7077 64.7402 13.8482L67.7578 22.7236C67.7628 22.7654 67.7628 22.8076 67.7578 22.8493C67.7553 22.883 67.7454 22.9157 67.7288 22.9451C67.7122 22.9745 67.6893 22.9999 67.6617 23.0194C67.6357 23.0508 67.6028 23.0758 67.5656 23.0925C67.5284 23.1091 67.4879 23.117 67.4472 23.1156H64.8585C64.7171 23.117 64.5792 23.0712 64.4667 22.9855C64.3542 22.8998 64.2734 22.779 64.2373 22.6422L63.8896 21.6437H60.5096L60.1694 22.6126C60.1293 22.748 60.0463 22.8666 59.9329 22.9507C59.8195 23.0347 59.6818 23.0796 59.5407 23.0786ZM63.1796 18.9367L62.2033 16.0596L61.2196 18.9367H63.1796Z" fill="white"/>
<path d="M79.5694 22.6498C79.5788 22.6986 79.5788 22.7488 79.5694 22.7977C79.568 22.833 79.5594 22.8675 79.5441 22.8993C79.5289 22.9311 79.5073 22.9595 79.4807 22.9826C79.4543 23.0136 79.4214 23.0383 79.3843 23.0549C79.3472 23.0715 79.3068 23.0797 79.2662 23.0788H76.1228C76.0027 23.0864 75.8831 23.0572 75.7801 22.9951C75.677 22.9329 75.5953 22.8409 75.5459 22.7311L74.3255 19.9872H73.1865V22.7016C73.1872 22.7512 73.1778 22.8004 73.1587 22.8462C73.1396 22.892 73.1113 22.9334 73.0756 22.9678C73.042 23.0027 73.0018 23.0304 72.9574 23.0495C72.9129 23.0685 72.8651 23.0785 72.8167 23.0788H69.8213C69.7729 23.0785 69.7251 23.0685 69.6806 23.0495C69.6362 23.0304 69.596 23.0027 69.5624 22.9678C69.5267 22.9334 69.4984 22.892 69.4793 22.8462C69.4602 22.8004 69.4507 22.7512 69.4515 22.7016V13.7596C69.4533 13.6621 69.4929 13.5691 69.5619 13.5002C69.6308 13.4312 69.7238 13.3917 69.8213 13.3898H75.2057C76.2816 13.3284 77.3447 13.6478 78.2085 14.2921C78.5736 14.5836 78.8645 14.9574 79.0573 15.3829C79.2501 15.8084 79.3394 16.2736 79.3179 16.7402C79.3522 17.2871 79.2316 17.8325 78.9699 18.314C78.7083 18.7954 78.3162 19.1933 77.8387 19.462L79.5694 22.6498ZM73.1865 15.9932V17.4725H74.9024C74.9913 17.4769 75.08 17.4612 75.1619 17.4267C75.2439 17.3921 75.317 17.3395 75.3758 17.2728C75.4901 17.1309 75.5481 16.9518 75.5385 16.7698C75.545 16.5792 75.4877 16.3918 75.3758 16.2373C75.324 16.1608 75.253 16.0994 75.1699 16.0591C75.0868 16.0189 74.9945 16.0012 74.9024 16.008L73.1865 15.9932Z" fill="white"/>
<path d="M81.8551 13.3898H86.2928C87.1892 13.3715 88.0822 13.5066 88.9332 13.7892C89.6675 14.0407 90.304 14.5168 90.7527 15.1501C91.2296 15.8477 91.4706 16.6797 91.4405 17.5243V18.9369C91.4932 19.5564 91.3847 20.179 91.1254 20.7441C90.8662 21.3092 90.4652 21.7975 89.9613 22.1617C88.8606 22.8213 87.5893 23.1404 86.3076 23.0788H81.8698C81.8215 23.0785 81.7737 23.0686 81.7292 23.0495C81.6847 23.0305 81.6445 23.0027 81.611 22.9679C81.5752 22.9334 81.547 22.892 81.5279 22.8462C81.5088 22.8004 81.4993 22.7512 81.5 22.7016V13.7596C81.5019 13.6621 81.5415 13.5692 81.6105 13.5002C81.6794 13.4313 81.7724 13.3917 81.8698 13.3898H81.8551ZM85.0798 16.0894V20.3792H86.3371C86.7081 20.4004 87.0746 20.2904 87.3726 20.0686C87.4989 19.9607 87.5987 19.8252 87.6641 19.6726C87.7295 19.5199 87.7589 19.3543 87.7498 19.1884V17.2802C87.7589 17.1144 87.7295 16.9487 87.6641 16.796C87.5987 16.6434 87.4989 16.5079 87.3726 16.4001C87.0746 16.1782 86.7081 16.0682 86.3371 16.0894H85.0798Z" fill="white"/>
</g>
<defs>
<clipPath id="clip0_772_31877">
<rect width="91.254" height="27.5655" fill="white" transform="translate(0.201172 0.93457)"/>
</clipPath>
</defs>
</svg>
