<svg width="132" height="29" viewBox="0 0 132 29" fill="none" xmlns="http://www.w3.org/2000/svg">
<g clip-path="url(#clip0_772_31891)">
<path d="M6.1958 3.23952C7.28379 2.46706 8.4959 1.88768 9.77932 1.52659C17.6568 -0.819589 25.6695 4.0348 27.2914 12.1216C28.775 19.5437 23.6898 27.0022 16.264 28.2803C14.2627 28.6412 12.2073 28.5627 10.2392 28.0505C10.1691 28.0268 10.1003 27.9992 10.0332 27.9678C10.7079 26.105 11.381 24.2416 12.0524 22.3777L13.7749 17.6208C14.8975 20.7127 15.9936 23.7285 17.1096 26.8005C17.1689 26.6451 17.2068 26.5542 17.2398 26.4698C17.881 24.7139 18.5173 22.9564 19.1651 21.2021C19.2524 20.9841 19.2524 20.7406 19.1651 20.5225C17.5167 16.0032 15.8727 11.4839 14.2332 6.96463C14.0865 6.55624 13.9381 6.15943 13.7749 5.72954C13.7337 5.82213 13.7107 5.86512 13.6942 5.91142C13.0249 7.74504 12.3623 9.58528 11.6848 11.4189C11.6262 11.5966 11.6399 11.7902 11.7227 11.9579C12.2074 13.2917 12.6925 14.6265 13.1782 15.9625C13.2472 16.0808 13.2668 16.2216 13.2326 16.3543C12.8617 17.3596 12.5041 18.3682 12.1084 19.4677C10.1172 13.9966 8.15734 8.61969 6.1958 3.23952ZM20.4129 17.5133H20.4936C21.1815 15.6174 21.8711 13.7221 22.5623 11.8273C22.5849 11.7507 22.5921 11.6703 22.5836 11.5909C22.5751 11.5114 22.5511 11.4344 22.5129 11.3643C21.9733 9.87628 21.4332 8.38822 20.8925 6.90015C20.7574 6.5364 20.6239 6.16935 20.459 5.72954C20.403 5.85355 20.3766 5.9048 20.3568 5.95936C19.6909 7.79023 19.0244 9.61559 18.3574 11.4354C18.3042 11.5877 18.3113 11.7545 18.3771 11.9017C18.6695 12.6975 18.959 13.4934 19.2458 14.2892L20.4129 17.5133Z" fill="#C62227"/>
<path d="M9.13824 27.6734C8.73871 27.5816 8.35413 27.4335 7.99593 27.2336C3.4712 24.99 0.728339 21.3922 0.131634 16.3493C-0.47496 11.2799 1.35801 7.11832 5.27615 3.87269C5.31628 3.84385 5.35874 3.81841 5.40307 3.79663C5.76241 4.78867 6.11516 5.76418 6.48769 6.743C6.56685 6.93804 6.56685 7.1564 6.48769 7.35145C5.99154 8.68575 5.51681 10.0283 5.02395 11.351C4.94654 11.5453 4.94654 11.7619 5.02395 11.9562C6.62066 16.3333 8.21407 20.711 9.80418 25.0892C9.89815 25.3179 9.89815 25.5747 9.80418 25.8034C9.57011 26.4251 9.35912 27.0584 9.13824 27.6734Z" fill="#C62227"/>
<path d="M39.5966 12.5945C39.267 13.4443 38.9604 14.1933 38.6637 14.9456C38.0867 16.4072 37.5098 17.8672 36.9411 19.3337C36.9185 19.4372 36.8571 19.5279 36.7697 19.5873C36.6823 19.6467 36.5755 19.6701 36.4714 19.6528C36.3065 19.638 36.1417 19.6528 35.9867 19.6528C35.2565 19.6528 35.2681 19.6528 35.0126 18.9419C33.8917 15.8202 32.7659 12.6997 31.6351 9.5803C31.4966 9.19671 31.5032 9.17522 31.8972 9.17191C32.3702 9.17191 32.8433 9.19175 33.3148 9.17191C33.623 9.15373 33.7582 9.28269 33.8571 9.55385C34.4257 11.1114 35.0109 12.6656 35.5829 14.2214C35.7378 14.6381 35.8944 15.0481 36.0774 15.5309C36.2809 15.1966 36.4426 14.8384 36.5587 14.4645C37.2065 12.8441 37.851 11.2205 38.4774 9.59188C38.601 9.26946 38.7659 9.14546 39.1087 9.17191C39.5066 9.19837 39.9059 9.19837 40.3038 9.17191C40.6071 9.15538 40.7604 9.24797 40.8725 9.55385C41.5516 11.404 42.2571 13.2442 42.9543 15.0878C43.0054 15.2234 43.0681 15.3573 43.1455 15.5425C43.2876 15.3693 43.3895 15.1665 43.4439 14.9489C44.1494 13.1235 44.8494 11.2954 45.5439 9.46457C45.5651 9.37384 45.6188 9.29409 45.6948 9.24044C45.7707 9.1868 45.8637 9.163 45.956 9.17357C46.4291 9.18514 46.9021 9.18679 47.3752 9.17357C47.6785 9.16365 47.7461 9.26616 47.6406 9.55054C47.2368 10.6368 46.8461 11.7297 46.4488 12.8193C45.6593 14.9687 44.8631 17.1182 44.0835 19.2841C44.0558 19.4042 43.9847 19.5096 43.8838 19.5799C43.7829 19.6502 43.6596 19.6803 43.5378 19.6644C42.3955 19.6644 42.3972 19.6644 41.9834 18.6195C41.2362 16.7169 40.4873 14.8139 39.7367 12.9103C39.7054 12.8392 39.6741 12.7681 39.5966 12.5945Z" fill="white"/>
<path d="M104.66 14.3354C105.295 14.3354 105.93 14.3453 106.564 14.3354C106.849 14.3354 106.965 14.4148 106.961 14.7157C106.948 15.8268 106.951 16.9378 106.961 18.0489C106.971 18.1483 106.952 18.2485 106.905 18.3367C106.859 18.425 106.787 18.4975 106.699 18.545C104.794 19.6825 102.761 20.1372 100.577 19.6114C98.5564 19.1154 97.1685 17.5298 96.8817 15.4779C96.7169 14.3056 96.7811 13.1631 97.2493 12.062C97.9647 10.3904 99.28 9.43966 101.04 9.12717C102.618 8.82258 104.251 9.05841 105.679 9.7968C105.745 9.82987 105.812 9.86294 105.877 9.90096C106.394 10.2035 106.404 10.2316 106.206 10.7806C106.089 11.1228 105.956 11.4601 105.847 11.804C105.783 12.0124 105.705 12.0669 105.517 11.9297C104.656 11.3229 103.641 10.9706 102.59 10.9128C100.633 10.7756 99.0361 12.1331 98.8894 13.9336C98.7427 15.7342 99.4515 17.0007 100.912 17.5926C101.81 17.9563 102.737 17.9233 103.668 17.7579C104.131 17.6564 104.584 17.5108 105.02 17.3231C105.065 17.3135 105.107 17.2945 105.145 17.2674C105.182 17.2402 105.213 17.2055 105.237 17.1654C105.26 17.1254 105.274 17.0809 105.279 17.0348C105.284 16.9888 105.279 16.9422 105.265 16.8982C105.241 16.7248 105.241 16.549 105.265 16.3757C105.308 15.9359 105.298 15.9177 104.838 15.916C104.13 15.916 103.419 15.9061 102.71 15.916C102.422 15.916 102.32 15.8251 102.315 15.5291C102.298 14.3304 102.29 14.3304 103.469 14.3304L104.66 14.3354Z" fill="white"/>
<path d="M68.0356 14.3882C68.0356 12.8026 68.0439 11.217 68.0356 9.63139C68.0356 9.27756 68.128 9.15852 68.4939 9.16017C71.0335 9.1756 73.5736 9.1756 76.1143 9.16017C76.4439 9.16017 76.5923 9.24946 76.5643 9.60163C76.5387 9.92574 76.5387 10.2514 76.5643 10.5755C76.5923 10.9293 76.4736 11.05 76.106 11.0467C74.2763 11.0302 72.445 11.0467 70.6153 11.0467C70.0582 11.0467 70.0565 11.0467 70.0565 11.5923C70.0565 12.004 70.0763 12.419 70.0565 12.8274C70.0351 13.1829 70.1488 13.3069 70.5164 13.3019C71.723 13.2805 72.9313 13.3019 74.1428 13.2887C74.4494 13.2887 74.5714 13.3813 74.5516 13.6938C74.5318 14.0308 74.5318 14.3687 74.5516 14.7057C74.573 15.0364 74.4511 15.1703 74.1033 15.1653C72.9329 15.1488 71.7626 15.1653 70.5923 15.1653C70.0681 15.1653 70.0664 15.1653 70.0664 15.7093V17.2453C70.0664 17.7876 70.0664 17.7876 70.5923 17.7876H76.1967C76.7209 17.7876 76.7225 17.7876 76.7225 18.3299V19.1566C76.7225 19.6626 76.7225 19.6626 76.2 19.6626C74.8175 19.6626 73.4351 19.6626 72.0527 19.6626C70.8824 19.6626 69.712 19.6626 68.5417 19.6626C68.0554 19.6626 68.0472 19.6626 68.0472 19.1666L68.0356 14.3882Z" fill="white"/>
<path d="M83.5813 9.01651C85.1011 8.97021 86.428 9.50261 87.6478 10.369C87.8654 10.5228 87.9379 10.665 87.7912 10.9212C87.5802 11.2883 87.4039 11.6752 87.2209 12.0571C87.122 12.2638 87.028 12.3613 86.8105 12.1662C85.9852 11.4291 84.9366 10.9923 83.8335 10.9262C83.1841 10.8749 82.5396 10.9493 81.9709 11.318C81.6412 11.5297 81.4286 11.824 81.5077 12.2258C81.5802 12.6011 81.8786 12.7631 82.2297 12.8392C83.1297 13.0343 84.0511 13.0789 84.9593 13.2128C85.5531 13.2821 86.1313 13.4497 86.6703 13.7089C87.6198 14.1933 88.0549 15.0134 88.1324 16.0236C88.3104 18.3582 86.8236 19.4131 84.9231 19.7239C83.1841 20.0067 81.6264 19.4825 80.1297 18.6806C79.4192 18.3004 79.4341 18.2772 79.7225 17.5051C79.8231 17.2372 79.9269 16.9694 80.0094 16.6949C80.0918 16.4204 80.1874 16.4221 80.4231 16.5808C81.5885 17.3678 82.8379 17.9234 84.2868 17.8457C84.7869 17.828 85.272 17.6693 85.6863 17.3877C85.8513 17.2738 85.9892 17.1247 86.0901 16.9512C86.3736 16.4684 86.2072 15.9889 85.6747 15.8203C84.9478 15.5888 84.1912 15.5491 83.4363 15.4516C82.8083 15.3689 82.1736 15.3242 81.5638 15.1391C80.0258 14.6711 79.5083 13.2658 79.6517 11.9728C79.8725 9.98871 81.3148 9.13059 83.0588 9.00824C83.2319 9.00659 83.4066 9.01651 83.5813 9.01651Z" fill="white"/>
<path d="M60.3807 9.00487C61.6697 8.96353 63.0296 9.51246 64.2708 10.4185C64.3067 10.4364 64.3384 10.4617 64.3636 10.4929C64.3889 10.524 64.4073 10.5602 64.4174 10.5991C64.4276 10.6379 64.4293 10.6785 64.4225 10.7181C64.4157 10.7577 64.4005 10.7954 64.378 10.8286C64.1582 11.2629 63.9488 11.7038 63.7499 12.1513C63.656 12.3563 63.5703 12.3728 63.4005 12.2125C62.5319 11.4084 61.4023 10.9473 60.2208 10.9145C59.6323 10.8695 59.0443 11.0068 58.5362 11.3081C58.3793 11.3902 58.2493 11.5159 58.1616 11.6701C58.074 11.8243 58.0323 12.0005 58.0417 12.1777C58.0681 12.5713 58.3829 12.7416 58.7225 12.8275C59.4461 13.0144 60.1944 13.0441 60.9329 13.14C61.7109 13.2409 62.484 13.3467 63.1994 13.7071C63.6062 13.903 63.9552 14.2014 64.2124 14.5733C64.4696 14.9452 64.626 15.3777 64.6664 15.8285C64.9664 18.1647 63.5258 19.3915 61.5346 19.7305C59.5813 20.0612 57.8884 19.3701 56.2384 18.4623C56.0406 18.3532 56.0488 18.1895 56.1098 18.011C56.2746 17.5513 56.4395 17.095 56.5878 16.632C56.667 16.3857 56.7444 16.4369 56.9175 16.5593C58.0829 17.386 59.3521 17.9217 60.8076 17.8539C61.4373 17.8258 62.0373 17.6604 62.489 17.1611C63.0049 16.5923 62.8516 16.0037 62.1115 15.8004C61.2098 15.5457 60.2719 15.516 59.3488 15.392C58.4917 15.2762 57.6494 15.144 56.9966 14.4892C55.9351 13.4211 55.9087 11.3312 56.9241 10.2152C57.7961 9.2628 58.8988 9.00817 60.3807 9.00487Z" fill="white"/>
<path d="M110.624 14.4114C110.624 12.8274 110.624 11.2429 110.624 9.65784C110.624 9.17008 110.624 9.17008 111.119 9.16181H112.128C112.622 9.16181 112.632 9.16181 112.632 9.68594C112.632 10.721 112.632 11.7566 112.632 12.7927C112.632 13.2589 112.65 13.2755 113.126 13.2755C114.61 13.2755 116.093 13.2656 117.569 13.2755C117.94 13.2755 118.032 13.1482 118.025 12.7993C118.007 11.7262 118.025 10.6499 118.012 9.58013C118.012 9.25937 118.098 9.12544 118.434 9.14693C118.818 9.17159 119.204 9.17159 119.588 9.14693C119.929 9.12544 120.036 9.24614 120.035 9.5917C120.023 12.3248 120.035 15.0578 120.035 17.7909C120.035 18.2869 120.025 18.783 120.035 19.279C120.035 19.5386 119.944 19.6378 119.685 19.6295C119.301 19.6163 118.914 19.6295 118.531 19.6295C118.037 19.6295 118.024 19.6163 118.022 19.1335C118.022 17.948 118.01 16.7609 118.022 15.577C118.022 15.2265 117.908 15.1289 117.57 15.1323C116.065 15.1466 114.559 15.1466 113.054 15.1323C112.724 15.1323 112.625 15.2397 112.629 15.5638C112.645 16.7741 112.629 17.986 112.642 19.2013C112.642 19.5535 112.526 19.6626 112.19 19.6427C111.817 19.6204 111.444 19.6204 111.071 19.6427C110.731 19.6626 110.611 19.5386 110.614 19.1914C110.636 17.6057 110.624 16.0086 110.624 14.4114Z" fill="white"/>
<path d="M127.413 9.16844C128.782 9.16844 130.152 9.18167 131.52 9.16844C131.908 9.16844 132.026 9.28914 131.997 9.66446C131.975 10.0136 131.975 10.3636 131.997 10.7127C132.008 10.9773 131.893 11.0583 131.642 11.0566C130.709 11.0467 129.775 11.0665 128.84 11.0451C128.491 11.0451 128.397 11.1591 128.398 11.4964C128.41 14.0559 128.398 16.622 128.398 19.1715C128.398 19.6676 128.398 19.6676 127.904 19.6676C127.554 19.6676 127.203 19.6428 126.859 19.6676C126.465 19.7039 126.381 19.5419 126.382 19.1715C126.397 16.6501 126.382 14.1303 126.382 11.6089C126.382 11.05 126.382 11.05 125.838 11.05C124.966 11.05 124.096 11.0384 123.224 11.05C122.908 11.05 122.766 10.9723 122.791 10.6317C122.815 10.2827 122.815 9.93243 122.791 9.58345C122.766 9.24285 122.909 9.16183 123.226 9.16514C124.625 9.17671 126.02 9.16844 127.413 9.16844Z" fill="white"/>
<path d="M50.624 14.4032C50.624 12.8044 50.624 11.2072 50.624 9.60836C50.624 9.26445 50.7213 9.13879 51.0674 9.16029C51.4655 9.18343 51.8645 9.18343 52.2625 9.16029C52.5609 9.14541 52.6482 9.26445 52.6466 9.55214C52.6367 11.113 52.6466 12.6738 52.6466 14.2346C52.6466 15.888 52.6466 17.5298 52.6466 19.1783C52.6466 19.5354 52.5361 19.6743 52.1751 19.6511C51.8146 19.6263 51.4527 19.6263 51.0922 19.6511C50.7394 19.6759 50.6158 19.5618 50.6207 19.1915C50.6405 17.5993 50.624 16.0004 50.624 14.4032Z" fill="white"/>
<path d="M91.5032 14.3734V9.73062C91.5032 9.16847 91.5032 9.16847 92.0801 9.16847C92.4098 9.16847 92.7543 9.18665 93.0889 9.16847C93.4235 9.15028 93.5274 9.2561 93.5208 9.59008C93.5043 10.6764 93.5208 11.7627 93.5208 12.8473V19.0227C93.5208 19.6494 93.5208 19.6494 92.8779 19.6494C92.5482 19.6494 92.2301 19.6328 91.907 19.6494C91.584 19.6659 91.5015 19.5419 91.5032 19.2377C91.5032 17.619 91.5032 15.997 91.5032 14.3734Z" fill="white"/>
<path fill-rule="evenodd" clip-rule="evenodd" d="M9.32228 27.1498C9.26112 27.3245 9.19997 27.4992 9.13805 27.6735C9.42142 27.8115 9.72272 27.9089 10.0331 27.9628C10.7045 26.1 11.3776 24.2366 12.0523 22.3727L13.7798 17.6059C14.5226 19.6518 15.2538 21.6644 15.9869 23.682C16.3617 24.7135 16.7369 25.7464 17.1144 26.7856C17.1306 26.7452 17.1451 26.709 17.1584 26.676C17.194 26.5874 17.2206 26.5212 17.2447 26.4549C17.4391 25.9224 17.6331 25.3898 17.8271 24.8571C18.2728 23.6333 18.7186 22.4095 19.1699 21.1872C19.2573 20.9692 19.2573 20.7257 19.1699 20.5076C17.5304 15.9883 15.8864 11.469 14.2381 6.94974C14.093 6.55127 13.9463 6.15941 13.7815 5.72457C13.7659 5.75959 13.7529 5.78751 13.7419 5.8112C13.7237 5.85015 13.7109 5.87766 13.7007 5.90644C13.4004 6.7234 13.1027 7.54069 12.8052 8.35757C12.4331 9.37911 12.0612 10.4 11.6848 11.4189C11.6262 11.5966 11.6398 11.7902 11.7227 11.9579C12.2106 13.2916 12.6947 14.6265 13.1749 15.9624C13.2439 16.0807 13.2634 16.2216 13.2293 16.3543C12.9585 17.0883 12.6947 17.824 12.4181 18.5957C12.3158 18.8809 12.2118 19.1709 12.1051 19.4677L6.19409 3.2395C5.90878 3.39398 5.64218 3.58094 5.39958 3.7967C5.48367 4.02689 5.56739 4.25709 5.65109 4.48722C5.92509 5.24059 6.19884 5.99328 6.4842 6.74306C6.56336 6.93811 6.56336 7.15647 6.4842 7.35152C6.27259 7.92826 6.06406 8.50562 5.85555 9.08293C5.58166 9.84123 5.30781 10.5994 5.02705 11.3561C4.94964 11.5503 4.94964 11.767 5.02705 11.9612C6.61717 16.3405 8.21058 20.7182 9.80728 25.0942C9.90125 25.3229 9.90125 25.5797 9.80728 25.8085C9.63646 26.2523 9.4793 26.7013 9.32228 27.1498ZM6.82716 9.14455C6.91307 8.90692 7.00066 8.66463 7.09079 8.41631C7.38337 9.2216 7.67081 10.0114 7.955 10.7924C8.40893 12.0397 8.85457 13.2643 9.29959 14.4926C10.0216 16.491 10.7485 18.4888 11.4804 20.4862C11.5742 20.7155 11.5742 20.9727 11.4804 21.2021C11.2191 21.8825 10.9697 22.5683 10.7084 23.287C10.6185 23.534 10.5273 23.785 10.4337 24.041C10.4062 23.977 10.3825 23.9242 10.3618 23.8779C10.3288 23.8045 10.3032 23.7476 10.282 23.6888C8.86772 19.7923 7.45014 15.8963 6.02925 12.0009C5.94109 11.7824 5.94109 11.5381 6.02925 11.3197C6.29652 10.6123 6.55328 9.90213 6.82716 9.14455ZM13.4469 9.32928C13.5519 9.03848 13.659 8.74156 13.7699 8.43615C13.8602 8.68353 13.949 8.92669 14.0367 9.16658C14.3334 9.97849 14.6163 10.7529 14.8925 11.5264C15.9727 14.5245 17.0622 17.5205 18.1611 20.5143C18.2501 20.7308 18.2501 20.9739 18.1611 21.1905C17.903 21.8712 17.6556 22.5563 17.3966 23.2735C17.3033 23.5319 17.2085 23.7945 17.1111 24.0625C16.7502 23.0704 16.4205 22.1627 16.0908 21.2517C14.9688 18.1488 13.8425 15.047 12.7117 11.9463C12.6325 11.7524 12.6325 11.5351 12.7117 11.3412C12.958 10.6838 13.1962 10.024 13.4469 9.32928ZM19.2461 14.2892L20.4131 17.5133L20.4939 17.5183C21.1774 15.6202 21.8669 13.7248 22.5625 11.8322C22.5851 11.7556 22.5923 11.6753 22.5838 11.5958C22.5754 11.5164 22.5513 11.4394 22.5131 11.3693C21.9735 9.88012 21.4334 8.39206 20.8928 6.9051C20.8681 6.83792 20.8436 6.77079 20.8188 6.70327C20.7079 6.40021 20.594 6.0892 20.4592 5.72953C20.4408 5.77028 20.4256 5.80318 20.4128 5.83092C20.3866 5.88758 20.3703 5.92272 20.357 5.95935C19.6944 7.78581 19.0279 9.61117 18.3576 11.4354C18.3044 11.5877 18.3115 11.7545 18.3774 11.9017C18.6686 12.6964 18.9581 13.4923 19.2461 14.2892Z" fill="#FDFCFB"/>
<path d="M7.09092 8.41626C7.85081 10.5078 8.57444 12.4952 9.29972 14.4842C10.025 16.4733 10.7503 18.4888 11.4838 20.4861C11.5777 20.7155 11.5777 20.9727 11.4838 21.202C11.1327 22.1164 10.803 23.0406 10.4371 24.0409C10.3662 23.8756 10.32 23.7846 10.2854 23.6887C8.86785 19.7911 7.45026 15.8952 6.03267 12.0008C5.94451 11.7824 5.94451 11.5381 6.03267 11.3196C6.38048 10.3904 6.71345 9.45625 7.09092 8.41626Z" fill="#C72429"/>
<path d="M13.7702 8.43604C14.1658 9.52067 14.535 10.5243 14.901 11.5296C15.9889 14.5255 17.0784 17.5215 18.1696 20.5175C18.2586 20.734 18.2586 20.9771 18.1696 21.1937C17.8185 22.1196 17.4872 23.0538 17.1196 24.0657C16.7603 23.0736 16.429 22.1626 16.0993 21.2549C14.9707 18.1509 13.8416 15.048 12.7119 11.9462C12.6328 11.7523 12.6328 11.535 12.7119 11.3411C13.0614 10.4085 13.3944 9.47107 13.7702 8.43604Z" fill="#C72429"/>
</g>
<defs>
<clipPath id="clip0_772_31891">
<rect width="131.98" height="27.5655" fill="white" transform="translate(0.0195312 0.93457)"/>
</clipPath>
</defs>
</svg>
