<svg width="133" height="28" viewBox="0 0 133 28" fill="none" xmlns="http://www.w3.org/2000/svg">
<g clip-path="url(#clip0_1358_42265)">
<path d="M6.49268 2.73952C7.58067 1.96706 8.79277 1.38768 10.0762 1.02659C17.9537 -1.31959 25.9663 3.5348 27.5883 11.6216C29.0718 19.0437 23.9867 26.5022 16.5608 27.7803C14.5596 28.1412 12.5042 28.0627 10.5361 27.5505C10.4659 27.5268 10.3971 27.4992 10.33 27.4678C11.0048 25.605 11.6779 23.7416 12.3493 21.8777L14.0718 17.1208C15.1943 20.2127 16.2905 23.2285 17.4064 26.3005C17.4658 26.1451 17.5037 26.0542 17.5367 25.9698C18.1779 24.2139 18.8141 22.4564 19.4619 20.7021C19.5493 20.4841 19.5493 20.2406 19.4619 20.0225C17.8136 15.5032 16.1696 10.9839 14.5301 6.46463C14.3834 6.05624 14.235 5.65943 14.0718 5.22954C14.0306 5.32213 14.0075 5.36512 13.991 5.41142C13.3218 7.24504 12.6592 9.08528 11.9817 10.9189C11.9231 11.0966 11.9367 11.2902 12.0196 11.4579C12.5042 12.7917 12.9894 14.1265 13.4751 15.4625C13.5441 15.5808 13.5636 15.7216 13.5295 15.8543C13.1586 16.8596 12.8009 17.8682 12.4053 18.9677C10.4141 13.4966 8.45422 8.11969 6.49268 2.73952ZM20.7097 17.0133H20.7905C21.4784 15.1174 22.168 13.2221 22.8592 11.3273C22.8817 11.2507 22.889 11.1703 22.8805 11.0909C22.872 11.0114 22.848 10.9344 22.8097 10.8643C22.2702 9.37628 21.7301 7.88822 21.1894 6.40015C21.0542 6.0364 20.9207 5.66935 20.7559 5.22954C20.6998 5.35355 20.6735 5.4048 20.6537 5.45936C19.9878 7.29023 19.3213 9.11559 18.6542 10.9354C18.6011 11.0877 18.6082 11.2545 18.674 11.4017C18.9663 12.1975 19.2559 12.9934 19.5427 13.7892L20.7097 17.0133Z" fill="#C62227"/>
<path d="M9.43512 27.1734C9.03558 27.0816 8.651 26.9335 8.29281 26.7336C3.76808 24.49 1.02521 20.8922 0.428509 15.8493C-0.178085 10.7799 1.65488 6.61832 5.57302 3.37269C5.61316 3.34385 5.65561 3.31841 5.69995 3.29663C6.05929 4.28867 6.41204 5.26418 6.78457 6.243C6.86373 6.43804 6.86373 6.6564 6.78457 6.85145C6.28841 8.18575 5.81368 9.52831 5.32083 10.851C5.24341 11.0453 5.24341 11.2619 5.32083 11.4562C6.91753 15.8333 8.51094 20.211 10.1011 24.5892C10.195 24.8179 10.195 25.0747 10.1011 25.3034C9.86699 25.9251 9.656 26.5584 9.43512 27.1734Z" fill="#C62227"/>
<path d="M39.8935 12.0945C39.5638 12.9443 39.2572 13.6933 38.9605 14.4456C38.3836 15.9072 37.8067 17.3672 37.238 18.8337C37.2154 18.9372 37.154 19.0279 37.0666 19.0873C36.9792 19.1467 36.8724 19.1701 36.7682 19.1528C36.6034 19.138 36.4386 19.1528 36.2836 19.1528C35.5534 19.1528 35.5649 19.1528 35.3094 18.4419C34.1886 15.3202 33.0627 12.1997 31.932 9.0803C31.7935 8.69671 31.8001 8.67522 32.194 8.67191C32.6671 8.67191 33.1402 8.69175 33.6116 8.67191C33.9199 8.65373 34.055 8.78269 34.1539 9.05385C34.7226 10.6114 35.3078 12.1656 35.8798 13.7214C36.0347 14.1381 36.1913 14.5481 36.3743 15.0309C36.5778 14.6966 36.7395 14.3384 36.8556 13.9645C37.5034 12.3441 38.1479 10.7205 38.7743 9.09188C38.8979 8.76946 39.0627 8.64546 39.4056 8.67191C39.8035 8.69837 40.2027 8.69837 40.6007 8.67191C40.9039 8.65538 41.0572 8.74797 41.1693 9.05385C41.8485 10.904 42.554 12.7442 43.2512 14.5878C43.3023 14.7234 43.3649 14.8573 43.4424 15.0425C43.5845 14.8693 43.6864 14.6665 43.7408 14.4489C44.4463 12.6235 45.1463 10.7954 45.8408 8.96457C45.862 8.87384 45.9157 8.79409 45.9916 8.74044C46.0676 8.6868 46.1606 8.663 46.2529 8.67357C46.7259 8.68514 47.199 8.68679 47.6721 8.67357C47.9754 8.66365 48.043 8.76616 47.9375 9.05054C47.5336 10.1368 47.143 11.2297 46.7457 12.3193C45.9562 14.4687 45.16 16.6182 44.3803 18.7841C44.3527 18.9042 44.2815 19.0096 44.1807 19.0799C44.0798 19.1502 43.9565 19.1803 43.8347 19.1644C42.6924 19.1644 42.6941 19.1644 42.2803 18.1195C41.5331 16.2169 40.7842 14.3139 40.0336 12.4103C40.0023 12.3392 39.971 12.2681 39.8935 12.0945Z" fill="black"/>
<path d="M104.957 13.8354C105.592 13.8354 106.226 13.8453 106.861 13.8354C107.146 13.8354 107.262 13.9148 107.258 14.2157C107.245 15.3268 107.248 16.4378 107.258 17.5489C107.268 17.6483 107.249 17.7485 107.202 17.8367C107.155 17.925 107.084 17.9975 106.996 18.045C105.091 19.1825 103.058 19.6372 100.874 19.1114C98.8533 18.6154 97.4654 17.0298 97.1786 14.9779C97.0137 13.8056 97.078 12.6631 97.5461 11.562C98.2615 9.89037 99.5769 8.93966 101.337 8.62717C102.915 8.32258 104.548 8.55841 105.976 9.2968C106.042 9.32987 106.109 9.36294 106.174 9.40096C106.691 9.70354 106.701 9.73164 106.503 10.2806C106.386 10.6228 106.253 10.9601 106.144 11.304C106.08 11.5124 106.002 11.5669 105.814 11.4297C104.952 10.8229 103.938 10.4706 102.887 10.4128C100.93 10.2756 99.333 11.6331 99.1863 13.4336C99.0396 15.2342 99.7484 16.5007 101.209 17.0926C102.107 17.4563 103.034 17.4233 103.965 17.2579C104.428 17.1564 104.881 17.0108 105.316 16.8231C105.362 16.8135 105.404 16.7945 105.442 16.7674C105.479 16.7402 105.51 16.7055 105.534 16.6654C105.557 16.6254 105.571 16.5809 105.576 16.5348C105.581 16.4888 105.576 16.4422 105.562 16.3982C105.538 16.2248 105.538 16.049 105.562 15.8757C105.605 15.4359 105.595 15.4177 105.135 15.416C104.426 15.416 103.716 15.4061 103.007 15.416C102.719 15.416 102.616 15.3251 102.612 15.0291C102.595 13.8304 102.587 13.8304 103.765 13.8304L104.957 13.8354Z" fill="black"/>
<path d="M68.3325 13.8882C68.3325 12.3026 68.3408 10.717 68.3325 9.13139C68.3325 8.77756 68.4248 8.65852 68.7908 8.66017C71.3303 8.6756 73.8705 8.6756 76.4111 8.66017C76.7408 8.66017 76.8892 8.74946 76.8611 9.10163C76.8356 9.42574 76.8356 9.75137 76.8611 10.0755C76.8892 10.4293 76.7705 10.55 76.4029 10.5467C74.5732 10.5302 72.7419 10.5467 70.9122 10.5467C70.3551 10.5467 70.3534 10.5467 70.3534 11.0923C70.3534 11.504 70.3732 11.919 70.3534 12.3274C70.332 12.6829 70.4457 12.8069 70.8133 12.8019C72.0199 12.7805 73.2281 12.8019 74.4397 12.7887C74.7463 12.7887 74.8683 12.8813 74.8485 13.1938C74.8287 13.5308 74.8287 13.8687 74.8485 14.2057C74.8699 14.5364 74.7479 14.6703 74.4001 14.6653C73.2298 14.6488 72.0595 14.6653 70.8891 14.6653C70.3649 14.6653 70.3633 14.6653 70.3633 15.2093V16.7453C70.3633 17.2876 70.3633 17.2876 70.8891 17.2876H76.4935C77.0177 17.2876 77.0194 17.2876 77.0194 17.8299V18.6566C77.0194 19.1626 77.0194 19.1626 76.4968 19.1626C75.1144 19.1626 73.732 19.1626 72.3496 19.1626C71.1792 19.1626 70.0089 19.1626 68.8386 19.1626C68.3523 19.1626 68.3441 19.1626 68.3441 18.6666L68.3325 13.8882Z" fill="black"/>
<path d="M83.8782 8.51651C85.398 8.47021 86.7249 9.00261 87.9447 9.86899C88.1623 10.0228 88.2348 10.165 88.0881 10.4212C87.8771 10.7883 87.7007 11.1752 87.5178 11.5571C87.4189 11.7638 87.3249 11.8613 87.1073 11.6662C86.2821 10.9291 85.2334 10.4923 84.1304 10.4262C83.481 10.3749 82.8364 10.4493 82.2678 10.818C81.9381 11.0297 81.7255 11.324 81.8046 11.7258C81.8771 12.1011 82.1755 12.2631 82.5266 12.3392C83.4266 12.5343 84.348 12.5789 85.2562 12.7128C85.85 12.7821 86.4282 12.9497 86.9672 13.2089C87.9167 13.6933 88.3518 14.5134 88.4293 15.5236C88.6073 17.8582 87.1205 18.9131 85.22 19.2239C83.481 19.5067 81.9233 18.9825 80.4266 18.1806C79.7161 17.8004 79.731 17.7772 80.0194 17.0051C80.12 16.7372 80.2238 16.4694 80.3062 16.1949C80.3886 15.9204 80.4843 15.9221 80.72 16.0808C81.8853 16.8678 83.1348 17.4234 84.5837 17.3457C85.0838 17.328 85.5689 17.1693 85.9832 16.8877C86.1482 16.7738 86.2861 16.6247 86.387 16.4512C86.6705 15.9684 86.504 15.4889 85.9716 15.3203C85.2447 15.0888 84.4881 15.0491 83.7331 14.9516C83.1051 14.8689 82.4705 14.8242 81.8606 14.6391C80.3227 14.1711 79.8051 12.7658 79.9485 11.4728C80.1694 9.48871 81.6117 8.63059 83.3557 8.50824C83.5288 8.50659 83.7035 8.51651 83.8782 8.51651Z" fill="black"/>
<path d="M60.6776 8.50487C61.9666 8.46353 63.3265 9.01246 64.5677 9.91853C64.6036 9.93637 64.6352 9.96172 64.6605 9.99286C64.6858 10.024 64.7041 10.0602 64.7143 10.0991C64.7245 10.1379 64.7262 10.1785 64.7194 10.2181C64.7126 10.2577 64.6974 10.2954 64.6748 10.3286C64.4551 10.7629 64.2457 11.2038 64.0468 11.6513C63.9529 11.8563 63.8672 11.8728 63.6974 11.7125C62.8288 10.9084 61.6992 10.4473 60.5177 10.4145C59.9292 10.3695 59.3411 10.5068 58.8331 10.8081C58.6762 10.8902 58.5462 11.0159 58.4585 11.1701C58.3708 11.3243 58.3292 11.5005 58.3386 11.6777C58.3649 12.0713 58.6798 12.2416 59.0193 12.3275C59.743 12.5144 60.4913 12.5441 61.2298 12.64C62.0078 12.7409 62.7809 12.8467 63.4963 13.2071C63.903 13.403 64.2521 13.7014 64.5093 14.0733C64.7665 14.4452 64.9229 14.8777 64.9633 15.3285C65.2633 17.6647 63.8226 18.8915 61.8314 19.2305C59.8781 19.5612 58.1853 18.8701 56.5353 17.9623C56.3375 17.8532 56.3457 17.6895 56.4067 17.511C56.5715 17.0513 56.7364 16.595 56.8847 16.132C56.9638 15.8857 57.0413 15.9369 57.2144 16.0593C58.3798 16.886 59.649 17.4217 61.1045 17.3539C61.7342 17.3258 62.3342 17.1604 62.7858 16.6611C63.3018 16.0923 63.1485 15.5037 62.4084 15.3004C61.5067 15.0457 60.5688 15.016 59.6457 14.892C58.7886 14.7762 57.9463 14.644 57.2935 13.9892C56.232 12.9211 56.2056 10.8312 57.221 9.71516C58.093 8.7628 59.1957 8.50817 60.6776 8.50487Z" fill="black"/>
<path d="M110.921 13.9114C110.921 12.3274 110.921 10.7429 110.921 9.15784C110.921 8.67008 110.921 8.67008 111.416 8.66181H112.424C112.919 8.66181 112.929 8.66181 112.929 9.18594C112.929 10.221 112.929 11.2566 112.929 12.2927C112.929 12.7589 112.947 12.7755 113.423 12.7755C114.907 12.7755 116.39 12.7656 117.866 12.7755C118.236 12.7755 118.329 12.6482 118.322 12.2993C118.304 11.2262 118.322 10.1499 118.309 9.08013C118.309 8.75937 118.395 8.62544 118.731 8.64693C119.115 8.67159 119.501 8.67159 119.885 8.64693C120.226 8.62544 120.333 8.74614 120.332 9.0917C120.32 11.8248 120.332 14.5578 120.332 17.2909C120.332 17.7869 120.322 18.283 120.332 18.779C120.332 19.0386 120.241 19.1378 119.982 19.1295C119.598 19.1163 119.211 19.1295 118.828 19.1295C118.334 19.1295 118.321 19.1163 118.319 18.6335C118.319 17.448 118.307 16.2609 118.319 15.077C118.319 14.7265 118.205 14.6289 117.867 14.6323C116.362 14.6466 114.856 14.6466 113.351 14.6323C113.021 14.6323 112.922 14.7397 112.925 15.0638C112.942 16.2741 112.925 17.486 112.939 18.7013C112.939 19.0535 112.823 19.1626 112.487 19.1427C112.114 19.1204 111.741 19.1204 111.368 19.1427C111.028 19.1626 110.908 19.0386 110.911 18.6914C110.933 17.1057 110.921 15.5086 110.921 13.9114Z" fill="black"/>
<path d="M127.709 8.66844C129.079 8.66844 130.449 8.68167 131.817 8.66844C132.205 8.66844 132.323 8.78914 132.294 9.16446C132.272 9.51355 132.272 9.86363 132.294 10.2127C132.305 10.4773 132.19 10.5583 131.939 10.5566C131.006 10.5467 130.072 10.5665 129.137 10.5451C128.787 10.5451 128.694 10.6591 128.695 10.9964C128.707 13.5559 128.695 16.122 128.695 18.6715C128.695 19.1676 128.695 19.1676 128.201 19.1676C127.851 19.1676 127.5 19.1428 127.156 19.1676C126.762 19.2039 126.678 19.0419 126.679 18.6715C126.694 16.1501 126.679 13.6303 126.679 11.1089C126.679 10.55 126.679 10.55 126.135 10.55C125.263 10.55 124.393 10.5384 123.521 10.55C123.205 10.55 123.063 10.4723 123.087 10.1317C123.112 9.78273 123.112 9.43243 123.087 9.08345C123.063 8.74285 123.206 8.66183 123.523 8.66514C124.922 8.67671 126.317 8.66844 127.709 8.66844Z" fill="black"/>
<path d="M50.9209 13.9032C50.9209 12.3044 50.9209 10.7072 50.9209 9.10836C50.9209 8.76445 51.0182 8.63879 51.3643 8.66029C51.7623 8.68343 52.1614 8.68343 52.5594 8.66029C52.8577 8.64541 52.9451 8.76445 52.9434 9.05214C52.9335 10.613 52.9434 12.1738 52.9434 13.7346C52.9434 15.388 52.9434 17.0298 52.9434 18.6783C52.9434 19.0354 52.833 19.1743 52.472 19.1511C52.1114 19.1263 51.7496 19.1263 51.389 19.1511C51.0363 19.1759 50.9127 19.0618 50.9176 18.6915C50.9374 17.0993 50.9209 15.5004 50.9209 13.9032Z" fill="black"/>
<path d="M91.8001 13.8734V9.23062C91.8001 8.66847 91.8001 8.66847 92.377 8.66847C92.7067 8.66847 93.0512 8.68665 93.3858 8.66847C93.7204 8.65028 93.8242 8.7561 93.8176 9.09008C93.8011 10.1764 93.8176 11.2627 93.8176 12.3473V18.5227C93.8176 19.1494 93.8176 19.1494 93.1748 19.1494C92.8451 19.1494 92.527 19.1328 92.2039 19.1494C91.8808 19.1659 91.7984 19.0419 91.8001 18.7377C91.8001 17.119 91.8001 15.497 91.8001 13.8734Z" fill="black"/>
<path fill-rule="evenodd" clip-rule="evenodd" d="M9.61916 26.6498C9.55799 26.8245 9.49685 26.9992 9.43493 27.1735C9.71829 27.3115 10.0196 27.4089 10.33 27.4628C11.0014 25.6 11.6745 23.7366 12.3492 21.8727L14.0767 17.1059C14.8195 19.1518 15.5507 21.1644 16.2838 23.182C16.6585 24.2135 17.0338 25.2464 17.4113 26.2856C17.4274 26.2452 17.442 26.209 17.4553 26.176C17.4909 26.0874 17.5175 26.0212 17.5415 25.9549C17.736 25.4224 17.93 24.8898 18.124 24.3571C18.5697 23.1333 19.0155 21.9095 19.4668 20.6872C19.5542 20.4692 19.5542 20.2257 19.4668 20.0076C17.8273 15.4883 16.1833 10.969 14.5349 6.44974C14.3899 6.05127 14.2432 5.65941 14.0783 5.22457C14.0628 5.25959 14.0498 5.28751 14.0387 5.3112C14.0206 5.35015 14.0078 5.37766 13.9976 5.40644C13.6973 6.2234 13.3996 7.04069 13.102 7.85757C12.7299 8.87911 12.3581 9.90002 11.9816 10.9189C11.9231 11.0966 11.9367 11.2902 12.0195 11.4579C12.5075 12.7916 12.9915 14.1265 13.4717 15.4624C13.5407 15.5807 13.5603 15.7216 13.5261 15.8543C13.2553 16.5883 12.9916 17.324 12.715 18.0957C12.6127 18.3809 12.5087 18.6709 12.402 18.9677L6.49096 2.7395C6.20565 2.89398 5.93905 3.08094 5.69646 3.2967C5.78054 3.52689 5.86426 3.75709 5.94796 3.98722C6.22196 4.74059 6.49572 5.49328 6.78108 6.24306C6.86023 6.43811 6.86023 6.65647 6.78108 6.85152C6.56947 7.42826 6.36093 8.00562 6.15242 8.58293C5.87854 9.34123 5.60469 10.0994 5.32393 10.8561C5.24652 11.0503 5.24652 11.267 5.32393 11.4612C6.91404 15.8405 8.50745 20.2182 10.1042 24.5942C10.1981 24.8229 10.1981 25.0797 10.1042 25.3085C9.93334 25.7523 9.77618 26.2013 9.61916 26.6498ZM7.12404 8.64455C7.20995 8.40692 7.29754 8.16463 7.38767 7.91631C7.68024 8.7216 7.96768 9.51145 8.25188 10.2924C8.70581 11.5397 9.15145 12.7643 9.59647 13.9926C10.3184 15.991 11.0454 17.9888 11.7772 19.9862C11.8711 20.2155 11.8711 20.4727 11.7772 20.7021C11.516 21.3825 11.2666 22.0683 11.0053 22.787C10.9154 23.034 10.8242 23.285 10.7305 23.541C10.7031 23.477 10.6794 23.4242 10.6586 23.3779C10.6257 23.3045 10.6001 23.2476 10.5789 23.1888C9.1646 19.2923 7.74701 15.3963 6.32613 11.5009C6.23797 11.2824 6.23797 11.0381 6.32613 10.8197C6.59339 10.1123 6.85015 9.40213 7.12404 8.64455ZM13.7438 8.82928C13.8487 8.53848 13.9559 8.24156 14.0668 7.93615C14.157 8.18353 14.2459 8.42669 14.3335 8.66658C14.6302 9.47849 14.9132 10.2529 15.1893 11.0264C16.2696 14.0245 17.3591 17.0205 18.458 20.0143C18.547 20.2308 18.547 20.4739 18.458 20.6905C18.1999 21.3712 17.9525 22.0563 17.6935 22.7735C17.6002 23.0319 17.5054 23.2945 17.408 23.5625C17.047 22.5704 16.7174 21.6627 16.3877 20.7517C15.2657 17.6488 14.1393 14.547 13.0086 11.4463C12.9294 11.2524 12.9294 11.0351 13.0086 10.8412C13.2549 10.1838 13.493 9.524 13.7438 8.82928ZM19.5429 13.7892L20.71 17.0133L20.7907 17.0183C21.4742 15.1202 22.1638 13.2248 22.8594 11.3322C22.882 11.2556 22.8892 11.1753 22.8807 11.0958C22.8722 11.0164 22.8482 10.9394 22.81 10.8693C22.2704 9.38012 21.7303 7.89206 21.1896 6.4051C21.165 6.33792 21.1404 6.27079 21.1157 6.20327C21.0048 5.90021 20.8909 5.5892 20.7561 5.22953C20.7377 5.27028 20.7225 5.30318 20.7097 5.33092C20.6834 5.38758 20.6672 5.42272 20.6539 5.45935C19.9913 7.28581 19.3248 9.11117 18.6545 10.9354C18.6013 11.0877 18.6084 11.2545 18.6742 11.4017C18.9655 12.1964 19.255 12.9923 19.5429 13.7892Z" fill="#FDFCFB"/>
<path d="M7.38779 7.91626C8.14769 10.0078 8.87131 11.9952 9.59659 13.9842C10.3219 15.9733 11.0471 17.9888 11.7807 19.9861C11.8745 20.2155 11.8745 20.4727 11.7807 20.702C11.4296 21.6164 11.0999 22.5406 10.734 23.5409C10.6631 23.3756 10.6169 23.2846 10.5823 23.1887C9.16472 19.2911 7.74714 15.3952 6.32955 11.5008C6.24139 11.2824 6.24139 11.0381 6.32955 10.8196C6.67735 9.89042 7.01032 8.95625 7.38779 7.91626Z" fill="#C72429"/>
<path d="M14.0671 7.93604C14.4627 9.02067 14.8319 10.0243 15.1978 11.0296C16.2857 14.0255 17.3753 17.0215 18.4665 20.0175C18.5555 20.234 18.5555 20.4771 18.4665 20.6937C18.1154 21.6196 17.7841 22.5538 17.4165 23.5657C17.0572 22.5736 16.7259 21.6626 16.3962 20.7549C15.2676 17.6509 14.1385 14.548 13.0088 11.4462C12.9297 11.2523 12.9297 11.035 13.0088 10.8411C13.3583 9.90855 13.6912 8.97107 14.0671 7.93604Z" fill="#C72429"/>
</g>
<defs>
<clipPath id="clip0_1358_42265">
<rect width="131.98" height="27.5655" fill="white" transform="translate(0.316406 0.43457)"/>
</clipPath>
</defs>
</svg>
