<svg width="86" height="29" viewBox="0 0 86 29" fill="none" xmlns="http://www.w3.org/2000/svg">
<path d="M61.713 27.5106V24.2983L62.7737 24.0594C63.0148 24.0337 63.0667 23.9528 63.0667 23.6919V13.4154C63.0667 13.2059 63.0148 13.1251 62.7737 13.0479L61.713 12.7869V9.59302H69.7945V12.809L68.7301 13.0736C68.4927 13.1508 68.4371 13.2317 68.4371 13.4412V23.7066C68.4371 23.9418 68.4927 23.9969 68.7041 24.0741L69.7945 24.3645V27.5253L61.713 27.5106Z" fill="white"/>
<path d="M47.0002 27.5107L42.494 13.3751C42.4782 13.3139 42.4444 13.2588 42.3968 13.2169C42.3492 13.175 42.29 13.1482 42.2269 13.1398L40.8213 12.9046V9.64453H49.9153V12.9046L48.8546 13.2207C48.752 13.2341 48.6578 13.2839 48.5896 13.361C48.5213 13.4381 48.4837 13.5372 48.4837 13.6397C48.5018 13.9341 48.5553 14.2253 48.6432 14.5071L50.5792 22.0747H50.709L52.6375 14.5181C52.7225 14.2356 52.7759 13.9447 52.797 13.6507C52.7909 13.5459 52.7478 13.4465 52.6752 13.3699C52.6027 13.2934 52.5054 13.2445 52.4002 13.2317L51.3654 12.9156V9.65556H60.2221V12.8899L58.7645 13.1766C58.6986 13.1898 58.6382 13.2219 58.5907 13.269C58.5432 13.316 58.5107 13.376 58.4975 13.4412L54.1248 27.5217L47.0002 27.5107Z" fill="white"/>
<path d="M71.6007 26.2205C71.6183 24.5905 71.7347 22.9631 71.9493 21.3469H76.2998L76.7263 23.4015C77.2836 23.587 77.8667 23.685 78.4546 23.6918C79.4634 23.6918 80.1273 23.2434 80.1273 22.5304C80.1273 21.6373 78.9849 21.2955 77.6275 20.8985C74.9164 20.0826 71.6749 19.0278 71.6749 14.8635C71.6749 10.6993 74.4379 9.33203 78.6141 9.33203C81.2733 9.33203 83.0016 10.0157 84.8597 10.8867C84.8864 12.4282 84.7897 13.9694 84.5704 15.4957H80.2163L80.0049 13.68C79.5834 13.5043 79.1306 13.4143 78.6734 13.4154C77.6906 13.4154 77.0527 13.6506 77.0527 14.4151C77.0527 15.3119 78.2766 15.8412 79.6043 16.2859C82.2005 17.1276 85.5087 18.289 85.5087 22.1114C85.5087 25.9338 83.0609 27.8009 78.436 27.8009C76.0671 27.7863 73.7316 27.2463 71.6007 26.2205Z" fill="white"/>
<path d="M11.3363 9.64433V12.8971L12.6381 13.2646C13.1795 13.4079 13.1721 13.6836 12.8903 14.5179L10.3683 22.0929H10.1865L8.23942 14.5179C8.0206 13.7093 8.02431 13.3712 8.49162 13.2646L9.875 12.8971V9.64433H0.703125V12.8971L2.18665 13.1837C2.33129 13.2205 2.36467 13.2903 2.40176 13.4337L6.85233 27.5105H13.25L15.4753 20.031L17.7006 27.4994H24.1168L28.5674 13.4226C28.5844 13.3611 28.6173 13.305 28.6628 13.2599C28.7083 13.2148 28.7649 13.1822 28.827 13.1654L30.2623 12.886V9.6333H21.0979V12.886L22.4812 13.2536C22.9523 13.3602 22.9523 13.6983 22.7334 14.5069L20.7863 22.0819H20.6083L18.0715 14.5179C17.7933 13.6836 17.7822 13.4153 18.3237 13.2646L19.6255 12.8971V9.64433H11.3363Z" fill="white"/>
<path d="M34.457 19.4393H36.8566V18.763C36.8566 18.0279 36.4338 17.6383 35.6698 17.6383C34.9057 17.6383 34.457 18.0316 34.457 18.763V19.4393ZM29.3425 22.5229V19.0754C29.3425 15.9145 31.82 13.8232 35.5659 13.8232C39.3118 13.8232 41.7856 15.9145 41.7856 19.0754V22.0157H34.457V22.7214C34.457 23.4785 35.3545 23.9747 36.3114 23.9747C37.2682 23.9747 38.2103 23.5557 38.3661 22.9052H41.767V25.478C40.3985 27.0731 38.3141 27.7788 36.1519 27.7788C32.087 27.7751 29.3425 25.6838 29.3425 22.5229Z" fill="white"/>
<path d="M65.8705 7.99777C67.4478 7.99777 68.7263 6.73071 68.7263 5.16771C68.7263 3.60471 67.4478 2.33765 65.8705 2.33765C64.2933 2.33765 63.0148 3.60471 63.0148 5.16771C63.0148 6.73071 64.2933 7.99777 65.8705 7.99777Z" fill="white"/>
</svg>
