<svg width="30" height="30" viewBox="0 0 30 30" fill="none" xmlns="http://www.w3.org/2000/svg">
<path fill-rule="evenodd" clip-rule="evenodd" d="M15 0C6.71573 0 0 6.71573 0 15C0 23.2843 6.71573 30 15 30C23.2843 30 30 23.2843 30 15C30 6.71573 23.2843 0 15 0ZM7.5 10.5V10.5001L7.50009 10.5H7.5ZM7.5 19.5V10.5609L13.7625 16.8234C14.4459 17.5068 15.554 17.5068 16.2374 16.8234L22.5 10.5608V19.5H7.5ZM22.5 10.5V10.5002L22.4998 10.5H22.5ZM9.56045 10.5H20.4394L15.1767 15.7627C15.0791 15.8603 14.9208 15.8603 14.8232 15.7627L9.56045 10.5ZM7 9C6.44772 9 6 9.44771 6 10V20C6 20.5523 6.44772 21 7 21H23C23.5523 21 24 20.5523 24 20V10C24 9.44772 23.5523 9 23 9H7Z" fill="white"/>
</svg>
