<svg width="30" height="30" viewBox="0 0 30 30" fill="none" xmlns="http://www.w3.org/2000/svg">
<path d="M15 0C6.75 0 0 6.75 0 15C0 23.25 6.75 30 15 30C23.25 30 30 23.25 30 15C30 6.75 23.25 0 15 0ZM22.2 11.325C22.2 11.475 22.2 11.625 22.2 11.775C22.2 16.65 18.45 22.35 11.625 22.35C9.525 22.35 7.575 21.75 5.925 20.7C6.225 20.7 6.525 20.775 6.825 20.775C8.55 20.775 10.125 20.175 11.4 19.2C9.75 19.2 8.4 18.075 7.95 16.65C8.175 16.725 8.4 16.725 8.625 16.725C9 16.725 9.3 16.65 9.6 16.575C7.875 16.2 6.6 14.7 6.6 12.975C6.6 12.975 6.6 12.975 6.6 12.9C7.125 13.2 7.65 13.35 8.25 13.35C7.35 12.6 6.75 11.475 6.75 10.2C6.75 9.525 6.9 8.85 7.275 8.325C9.075 10.575 11.85 12.075 14.925 12.225C14.85 11.925 14.85 11.7 14.85 11.4C14.85 9.375 16.5 7.725 18.525 7.725C19.575 7.725 20.55 8.175 21.225 8.925C22.05 8.775 22.875 8.475 23.55 8.025C23.25 8.925 22.65 9.6 21.9 10.05C22.65 9.975 23.4 9.75 24 9.45C23.55 10.125 22.875 10.8 22.2 11.325Z" fill="white"/>
</svg>
