<svg width="30" height="30" viewBox="0 0 30 30" fill="none" xmlns="http://www.w3.org/2000/svg">
<g clip-path="url(#clip0_1040_1178)">
<path fill-rule="evenodd" clip-rule="evenodd" d="M17.882 10.9929C18.2201 10.9929 18.5445 10.8586 18.7836 10.6195C19.0227 10.3804 19.157 10.0561 19.157 9.71794C19.157 9.55101 19.1239 9.38572 19.0597 9.23163C18.9955 9.07754 18.9014 8.93769 18.7829 8.82015C18.6644 8.70261 18.5237 8.6097 18.3691 8.5468C18.2145 8.4839 18.0489 8.45224 17.882 8.45366C17.5467 8.45366 17.2251 8.58686 16.988 8.82396C16.7509 9.06106 16.6177 9.38263 16.6177 9.71794C16.6163 9.88487 16.6479 10.0504 16.7108 10.2051C16.7737 10.3597 16.8667 10.5003 16.9842 10.6189C17.1017 10.7374 17.2416 10.8315 17.3957 10.8957C17.5498 10.9599 17.7151 10.9929 17.882 10.9929Z" fill="white"/>
<path d="M9.6749 16.2751C10.3791 16.2751 10.9499 15.7043 10.9499 15.0001C10.9499 14.2959 10.3791 13.7251 9.6749 13.7251C8.97074 13.7251 8.3999 14.2959 8.3999 15.0001C8.3999 15.7043 8.97074 16.2751 9.6749 16.2751Z" fill="white"/>
<path d="M17.8819 21.5463C18.5861 21.5463 19.1569 20.9755 19.1569 20.2713C19.1569 19.5672 18.5861 18.9963 17.8819 18.9963C17.1778 18.9963 16.6069 19.5672 16.6069 20.2713C16.6069 20.9755 17.1778 21.5463 17.8819 21.5463Z" fill="white"/>
<path fill-rule="evenodd" clip-rule="evenodd" d="M15 0C11.0218 0 7.20643 1.58035 4.39339 4.3934C1.58034 7.20644 0 11.0218 0 15C0 18.9782 1.58034 22.7936 4.39339 25.6066C7.20643 28.4196 11.0218 30 15 30C18.9782 30 22.7935 28.4196 25.6066 25.6066C28.4196 22.7936 30 18.9782 30 15C30 11.0218 28.4196 7.20644 25.6066 4.3934C22.7935 1.58035 18.9782 0 15 0ZM13.1035 15C13.0986 15.2866 13.0554 15.5713 12.975 15.8464L15.75 17.625C16.3551 17.1304 17.1114 16.8582 17.8928 16.8536C18.7993 16.8536 19.6687 17.2137 20.3096 17.8546C20.9506 18.4956 21.3107 19.365 21.3107 20.2714C21.3107 21.1779 20.9506 22.0472 20.3096 22.6882C19.6687 23.3292 18.7993 23.6893 17.8928 23.6893C16.9882 23.6864 16.1216 23.3251 15.483 22.6844C14.8443 22.0438 14.4857 21.176 14.4857 20.2714C14.4858 19.9852 14.5255 19.7004 14.6036 19.425L11.8286 17.6357C11.2262 18.135 10.4681 18.4078 9.68572 18.4071C8.7811 18.4071 7.91335 18.0485 7.27269 17.4099C6.63202 16.7712 6.2707 15.9046 6.26786 15C6.26786 14.0935 6.62795 13.2242 7.26893 12.5832C7.9099 11.9422 8.77925 11.5821 9.68572 11.5821C10.4681 11.5814 11.2262 11.8543 11.8286 12.3536L14.5929 10.5643C14.5148 10.2889 14.4751 10.0041 14.475 9.71786C14.4778 8.81509 14.8377 7.95012 15.476 7.31176C16.1144 6.67341 16.9794 6.31354 17.8821 6.31072C18.7868 6.31071 19.6545 6.66934 20.2951 7.30799C20.9358 7.94665 21.2972 8.81324 21.3 9.71786C21.3 10.6243 20.9399 11.4937 20.2989 12.1346C19.658 12.7756 18.7886 13.1357 17.8821 13.1357C17.0997 13.1364 16.3417 12.8635 15.7393 12.3643L12.9643 14.1536C13.0496 14.4279 13.0965 14.7128 13.1035 15Z" fill="white"/>
</g>
<defs>
<clipPath id="clip0_1040_1178">
<rect width="30" height="30" fill="white"/>
</clipPath>
</defs>
</svg>
