<svg width="30" height="30" viewBox="0 0 30 30" fill="none" xmlns="http://www.w3.org/2000/svg">
<g clip-path="url(#clip0_1040_1206)">
<path fill-rule="evenodd" clip-rule="evenodd" d="M29.8784 15C29.8784 23.2843 23.1627 30 14.8784 30C6.59415 30 -0.121582 23.2843 -0.121582 15C-0.121582 6.71573 6.59415 0 14.8784 0C23.1627 0 29.8784 6.71573 29.8784 15ZM21.743 9.24932C22.6856 9.35467 23.4686 10.0609 23.689 11.0182C24 12.3703 24 13.8453 24 15.2388V15.2732C24 16.6766 23.9989 18.1645 23.6851 19.5278C23.4647 20.485 22.6815 21.1913 21.7395 21.2966C19.5078 21.546 17.2489 21.5473 14.9993 21.546C12.7502 21.5473 10.4908 21.546 8.25885 21.2966C7.31625 21.1911 6.53364 20.4848 6.31364 19.5278C6 18.1647 6 16.6767 6 15.2732C6 13.8696 6.00353 12.3815 6.31717 11.0182C6.53754 10.0609 7.31997 9.35467 8.26201 9.24932C10.4941 9.00015 12.7537 8.99885 15.0029 9.00015C17.2517 8.99885 19.5109 9.00015 21.743 9.24932ZM12.6771 12.1143V18.0669C13.4811 17.6501 14.2821 17.2348 15.0827 16.8197C16.1868 16.2473 17.2902 15.6752 18.3996 15.0998L12.6771 12.1143Z" fill="white"/>
</g>
<defs>
<clipPath id="clip0_1040_1206">
<rect width="30" height="30" rx="15" fill="white"/>
</clipPath>
</defs>
</svg>
