<svg width="30" height="30" viewBox="0 0 30 30" fill="none" xmlns="http://www.w3.org/2000/svg">
<path fill-rule="evenodd" clip-rule="evenodd" d="M30 15C30 23.2843 23.2843 30 15 30C6.71573 30 0 23.2843 0 15C0 6.71573 6.71573 0 15 0C23.2843 0 30 6.71573 30 15ZM10.5 7.5C8.84315 7.5 7.5 8.84315 7.5 10.5V19.5C7.5 21.1569 8.84315 22.5 10.5 22.5H19.5C21.1569 22.5 22.5 21.1569 22.5 19.5V10.5C22.5 8.84315 21.1569 7.5 19.5 7.5H10.5ZM17.25 15C17.25 16.2426 16.2426 17.25 15 17.25C13.7574 17.25 12.75 16.2426 12.75 15C12.75 13.7574 13.7574 12.75 15 12.75C16.2426 12.75 17.25 13.7574 17.25 15ZM18.75 15C18.75 17.0711 17.0711 18.75 15 18.75C12.9289 18.75 11.25 17.0711 11.25 15C11.25 12.9289 12.9289 11.25 15 11.25C17.0711 11.25 18.75 12.9289 18.75 15ZM20.625 10.3125C20.625 10.8303 20.2053 11.25 19.6875 11.25C19.1697 11.25 18.75 10.8303 18.75 10.3125C18.75 9.79473 19.1697 9.375 19.6875 9.375C20.2053 9.375 20.625 9.79473 20.625 10.3125Z" fill="white"/>
</svg>
