<svg width="20" height="20" viewBox="0 0 20 20" fill="none" xmlns="http://www.w3.org/2000/svg">
<path fill-rule="evenodd" clip-rule="evenodd" d="M20 10C20 15.5228 15.5228 20 10 20C4.47715 20 0 15.5228 0 10C0 4.47715 4.47715 0 10 0C15.5228 0 20 4.47715 20 10ZM14.5764 6.16621C15.2048 6.23645 15.7268 6.70728 15.8737 7.34546C16.0811 8.2469 16.0811 9.23022 16.0811 10.1592V10.1821C16.0811 11.1177 16.0803 12.1097 15.8711 13.0185C15.7242 13.6567 15.2021 14.1275 14.574 14.1978C13.0862 14.364 11.5803 14.3649 10.0806 14.364C8.58116 14.3649 7.07489 14.364 5.58695 14.1978C4.95856 14.1274 4.43681 13.6566 4.29015 13.0185C4.08105 12.1098 4.08105 11.1178 4.08105 10.1821C4.08105 9.24639 4.08341 8.25431 4.2925 7.34546C4.43941 6.70728 4.96103 6.23645 5.58906 6.16621C7.07712 6.0001 8.58352 5.99924 10.083 6.0001C11.5822 5.99924 13.0883 6.0001 14.5764 6.16621ZM8.53248 8.07618V12.0446C9.06875 11.7665 9.60305 11.4895 10.1371 11.2127C10.8729 10.8312 11.6082 10.45 12.3475 10.0665L8.53248 8.07618Z" fill="black"/>
</svg>
