<svg width="30" height="30" viewBox="0 0 30 30" fill="none" xmlns="http://www.w3.org/2000/svg">
<path d="M12.75 11.4751C12.525 11.4751 12.3 11.7001 12.3 11.9251V15.3001C12.3 15.5251 12.525 15.7501 12.75 15.7501C12.975 15.7501 13.2 15.5251 13.2 15.3001V11.9251C13.2 11.7001 12.975 11.4751 12.75 11.4751Z" fill="white"/>
<path d="M16.725 11.4751C16.5 11.4751 16.275 11.7001 16.275 11.9251V13.9501L14.7 11.7751C14.625 11.6251 14.4 11.5501 14.175 11.6251C14.025 11.7001 13.875 11.8501 13.875 12.0751V15.3751C13.875 15.6001 14.1 15.8251 14.325 15.8251C14.55 15.8251 14.775 15.6001 14.775 15.3751V13.4251L16.35 15.6001C16.425 15.7501 16.575 15.7501 16.725 15.7501C16.8 15.7501 16.8 15.7501 16.875 15.7501C17.025 15.6751 17.175 15.5251 17.175 15.3001V11.9251C17.1 11.7001 16.95 11.4751 16.725 11.4751Z" fill="white"/>
<path d="M11.475 14.8501H10.275V11.9251C10.275 11.7001 10.05 11.4751 9.825 11.4751C9.6 11.4751 9.375 11.7001 9.375 11.9251V15.3001C9.375 15.5251 9.6 15.7501 9.825 15.7501H11.4C11.625 15.7501 11.85 15.5251 11.85 15.3001C11.85 15.0751 11.775 14.8501 11.475 14.8501Z" fill="white"/>
<path d="M20.325 14.775H18.6V13.95H19.95C20.175 13.95 20.4 13.725 20.4 13.5C20.4 13.275 20.175 13.05 19.95 13.05H18.6V12.225H20.25C20.475 12.225 20.7 12 20.7 11.775C20.7 11.55 20.475 11.325 20.25 11.325H18.15C17.925 11.325 17.7 11.55 17.7 11.775V13.425V15.075C17.7 15.3 17.925 15.525 18.15 15.525H20.325C20.55 15.525 20.775 15.3 20.775 15.075C20.775 14.85 20.55 14.775 20.325 14.775Z" fill="white"/>
<path d="M15 0C6.75 0 0 6.75 0 15C0 23.25 6.75 30 15 30C23.25 30 30 23.25 30 15C30 6.75 23.25 0 15 0ZM22.725 18.225C21.525 19.725 16.275 23.25 15.075 24C14.55 24.3 13.95 23.925 13.95 23.325V21.525C11.025 21.375 5.775 18.825 5.775 13.725C5.775 8.475 11.025 5.925 15.075 5.925C19.425 5.925 24.375 8.775 24.375 13.725C24.3 15.075 23.925 16.725 22.725 18.225Z" fill="white"/>
</svg>
