<svg width="102" height="32" viewBox="0 0 102 32" fill="none" xmlns="http://www.w3.org/2000/svg">
<g clip-path="url(#clip0_946_24339)">
<path d="M77.6602 7.36085C79.5385 7.36085 81.0613 5.81827 81.0613 3.91541C81.0613 2.01255 79.5385 0.469971 77.6602 0.469971C75.7818 0.469971 74.259 2.01255 74.259 3.91541C74.259 5.81827 75.7818 7.36085 77.6602 7.36085Z" fill="white"/>
<path d="M72.85 31.1164V27.2056L74.1132 26.9147C74.4004 26.8834 74.4622 26.785 74.4622 26.4673V13.9563C74.4622 13.7013 74.4004 13.6028 74.1132 13.5089L72.85 13.1912V9.30273H82.4747V13.218L81.207 13.5402C80.9243 13.6341 80.8581 13.7326 80.8581 13.9876V26.4852C80.8581 26.7716 80.9243 26.8387 81.1761 26.9326L82.4747 27.2861V31.1343L72.85 31.1164Z" fill="white"/>
<path d="M55.3276 31.1165L49.9609 13.9072C49.9422 13.8328 49.9019 13.7657 49.8452 13.7147C49.7885 13.6636 49.718 13.6309 49.6429 13.6208L47.9688 13.3344V9.36548H58.7994V13.3344L57.5361 13.7193C57.4139 13.7355 57.3018 13.7963 57.2205 13.8901C57.1392 13.984 57.0944 14.1045 57.0944 14.2294C57.116 14.5878 57.1798 14.9423 57.2843 15.2854L59.59 24.4986H59.7446L62.0415 15.2988C62.1426 14.9549 62.2063 14.6007 62.2314 14.2428C62.2241 14.1152 62.1728 13.9942 62.0864 13.901C62 13.8077 61.8841 13.7482 61.7588 13.7327L60.5265 13.3479V9.3789H71.0743V13.3165L69.3384 13.6656C69.26 13.6816 69.188 13.7207 69.1314 13.778C69.0748 13.8353 69.0362 13.9083 69.0204 13.9877L63.8127 31.1299L55.3276 31.1165Z" fill="white"/>
<path d="M84.6258 29.5459C84.6467 27.5615 84.7854 25.5801 85.041 23.6126H90.2222L90.7301 26.1139C91.3939 26.3397 92.0884 26.459 92.7885 26.4674C93.9899 26.4674 94.7806 25.9215 94.7806 25.0534C94.7806 23.9661 93.4201 23.5499 91.8035 23.0667C88.5746 22.0733 84.7141 20.7891 84.7141 15.7194C84.7141 10.6497 88.0048 8.98511 92.9784 8.98511C96.1454 8.98511 98.2038 9.81738 100.417 10.8779C100.448 12.7545 100.333 14.6308 100.072 16.489H94.8866L94.6348 14.2786C94.1329 14.0646 93.5936 13.9551 93.0491 13.9564C91.8786 13.9564 91.1188 14.2428 91.1188 15.1735C91.1188 16.2653 92.5765 16.9096 94.1578 17.451C97.2497 18.4757 101.19 19.8897 101.19 24.5433C101.19 29.1969 98.2744 31.47 92.7664 31.47C89.9451 31.4521 87.1636 30.7947 84.6258 29.5459Z" fill="white"/>
<path d="M12.8533 9.36547V13.3255L14.4037 13.7729C15.0486 13.9475 15.0398 14.2831 14.7041 15.2988L11.7005 24.5209H11.4841L9.16512 15.2988C8.90452 14.3144 8.90893 13.9027 9.46548 13.7729L11.113 13.3255V9.36547H0.189697V13.3255L1.95651 13.6745C2.12878 13.7193 2.16853 13.8043 2.2127 13.9788L7.51315 31.1165H15.1325L17.7828 22.0107L20.433 31.1031H28.0745L33.3749 13.9654C33.3952 13.8905 33.4343 13.8222 33.4886 13.7673C33.5428 13.7123 33.6102 13.6727 33.6841 13.6521L35.3935 13.3121V9.35205H24.479V13.3121L26.1265 13.7595C26.6875 13.8893 26.6875 14.301 26.4269 15.2854L24.108 24.5075H23.8959L20.8747 15.2988C20.5434 14.2831 20.5302 13.9564 21.175 13.7729L22.7254 13.3255V9.36547H12.8533Z" fill="white"/>
<path d="M40.3892 21.2903H43.247V20.467C43.247 19.5721 42.7435 19.0978 41.8336 19.0978C40.9237 19.0978 40.3892 19.5765 40.3892 20.467V21.2903ZM34.2981 25.0445V20.8473C34.2981 16.9992 37.2487 14.4531 41.7099 14.4531C46.1711 14.4531 49.1173 16.9992 49.1173 20.8473V24.427H40.3892V25.2861C40.3892 26.2079 41.4581 26.812 42.5977 26.812C43.7373 26.812 44.8592 26.3019 45.0448 25.5099H49.0952V28.6421C47.4653 30.584 44.9829 31.4432 42.4078 31.4432C37.5667 31.4387 34.2981 28.8926 34.2981 25.0445Z" fill="white"/>
</g>
<defs>
<clipPath id="clip0_946_24339">
<rect width="101" height="31" fill="white" transform="translate(0.189697 0.469971)"/>
</clipPath>
</defs>
</svg>
