<svg width="20" height="20" viewBox="0 0 20 20" fill="none" xmlns="http://www.w3.org/2000/svg">
<path fill-rule="evenodd" clip-rule="evenodd" d="M10 20C15.5228 20 20 15.5228 20 10C20 4.47715 15.5228 0 10 0C4.47715 0 0 4.47715 0 10C0 15.5228 4.47715 20 10 20ZM14 7.5V11.5H6V7.5H14ZM14 13.5V12.5H6V13.5H14ZM14 14.5V15.5H6V14.5H14ZM6 6.5H14V5H6V6.5ZM13 6.25C13.2761 6.25 13.5 6.02614 13.5 5.75C13.5 5.47386 13.2761 5.25 13 5.25C12.7239 5.25 12.5 5.47386 12.5 5.75C12.5 6.02614 12.7239 6.25 13 6.25ZM12 5.75C12 6.02614 11.7761 6.25 11.5 6.25C11.2239 6.25 11 6.02614 11 5.75C11 5.47386 11.2239 5.25 11.5 5.25C11.7761 5.25 12 5.47386 12 5.75Z" fill="black"/>
</svg>
