<svg width="20" height="20" viewBox="0 0 20 20" fill="none" xmlns="http://www.w3.org/2000/svg">
<path fill-rule="evenodd" clip-rule="evenodd" d="M9.95963 20C15.4606 20 19.9193 15.5233 19.9193 10C19.9193 4.47674 15.4606 0 9.95963 0C4.45867 0 0 4.47674 0 10C0 15.5233 4.45867 20 9.95963 20ZM8.4008 12.3163C8.40113 12.5502 8.40145 12.7841 8.40145 13.0179V15.7981C8.40145 15.9672 8.43304 16.0359 8.62255 16.0306C9.30161 16.0201 9.98594 16.0201 10.665 16.0306C10.8545 16.0359 10.9019 15.9883 10.9019 15.7928C10.894 14.4174 10.895 13.045 10.896 11.6711C10.8963 11.2129 10.8966 10.7546 10.8966 10.2959C10.8966 10.1524 10.8902 10.09 10.918 10.0637C10.9464 10.0367 11.0107 10.0475 11.1546 10.0475C11.5494 10.0422 11.9494 10.0422 12.3442 10.0475C12.4601 10.0475 12.5232 10.0211 12.5338 9.88897C12.5864 9.297 12.639 8.71032 12.7022 8.12364C12.718 7.97037 12.6706 7.93865 12.5232 7.93865C12.148 7.94659 11.7698 7.94559 11.3931 7.9446C11.2677 7.94427 11.1426 7.94394 11.0177 7.94394C11.012 7.94394 11.0064 7.94399 11.0007 7.94405C10.9278 7.94475 10.8602 7.9454 10.865 7.82766C10.8694 7.68009 10.8692 7.53253 10.8691 7.38535C10.8688 7.17932 10.8686 6.97405 10.8808 6.77058C10.9072 6.33189 11.1704 6.10462 11.6125 6.10462C11.9389 6.09933 12.2706 6.09933 12.6022 6.10462C12.7075 6.10462 12.7391 6.0729 12.7391 5.9672C12.7338 5.38051 12.7338 4.78855 12.7391 4.19658C12.7391 4.10144 12.7075 4.06973 12.6127 4.06973C12.4005 4.07136 12.1883 4.07098 11.9762 4.07061C11.4992 4.06976 11.0229 4.06892 10.5492 4.09087C9.88066 4.12259 9.30161 4.37629 8.89628 4.93654C8.57517 5.37523 8.42778 5.88263 8.41725 6.42703C8.40672 6.871 8.40672 7.31498 8.41725 7.75895C8.41725 7.91751 8.38566 7.98094 8.21195 7.97037C8.03501 7.96085 7.85618 7.96276 7.67773 7.96466C7.55886 7.96593 7.44017 7.96719 7.32232 7.96508C7.20651 7.96508 7.17493 8.00208 7.17493 8.11307C7.18019 8.69447 7.18019 9.28115 7.17493 9.86254C7.16966 9.98411 7.21704 10.0211 7.33285 10.0158C7.45931 10.0136 7.5848 10.0142 7.70973 10.0149C7.87604 10.0157 8.04136 10.0166 8.20668 10.0105C8.36461 10.0052 8.40672 10.0528 8.40672 10.2114C8.39882 10.913 8.39981 11.6147 8.4008 12.3163Z" fill="black"/>
</svg>
