<svg width="20" height="20" viewBox="0 0 20 20" fill="none" xmlns="http://www.w3.org/2000/svg">
<path fill-rule="evenodd" clip-rule="evenodd" d="M20 10C20 15.5228 15.5228 20 10 20C4.47715 20 0 15.5228 0 10C0 4.47715 4.47715 0 10 0C15.5228 0 20 4.47715 20 10ZM16 9.40526C16 6.70086 13.309 4.5 10 4.5C6.69101 4.5 4 6.70086 4 9.40526C4 11.8268 6.13483 13.8579 9.01685 14.2426V15.9343C10.48 15.54 16 13.38 16 9.40526ZM7.84 9.54C7.84 9.93764 7.51765 10.26 7.12 10.26C6.72236 10.26 6.4 9.93764 6.4 9.54C6.4 9.14235 6.72236 8.82 7.12 8.82C7.51765 8.82 7.84 9.14235 7.84 9.54ZM10 10.26C10.3976 10.26 10.72 9.93764 10.72 9.54C10.72 9.14235 10.3976 8.82 10 8.82C9.60236 8.82 9.28 9.14235 9.28 9.54C9.28 9.93764 9.60236 10.26 10 10.26ZM13.6 9.54C13.6 9.93764 13.2776 10.26 12.88 10.26C12.4824 10.26 12.16 9.93764 12.16 9.54C12.16 9.14235 12.4824 8.82 12.88 8.82C13.2776 8.82 13.6 9.14235 13.6 9.54Z" fill="black"/>
</svg>
