<svg width="20" height="20" viewBox="0 0 20 20" fill="none" xmlns="http://www.w3.org/2000/svg">
<path d="M17.0635 2.93651C15.2381 1.11111 12.7778 0 9.99999 0C7.22221 0 4.7619 1.11111 2.93651 2.93651C1.11111 4.76191 0 7.22222 0 10C0 15.1587 3.96825 19.4444 9.04761 19.9206C9.36507 19.9206 9.68253 20 9.99999 20C10.7143 20 11.3492 19.9206 11.9841 19.7619C13.9682 19.3651 15.7143 18.4127 17.0635 17.0635C18.8889 15.2381 20 12.7778 20 10C20 7.22222 18.8889 4.76191 17.0635 2.93651ZM17.0635 5.95237C16.9048 6.19047 16.6667 6.42857 16.5079 6.66667C16.2698 6.90476 16.0317 7.06349 15.7936 7.30159L15.7143 7.38095C15.7143 7.61904 15.7143 7.77777 15.7143 8.01587C15.7143 8.1746 15.7143 8.33334 15.7143 8.49207C15.7143 8.73016 15.6349 8.88888 15.6349 9.12698C15.5556 9.5238 15.4762 9.92063 15.3175 10.2381C15.2381 10.4762 15.1587 10.7143 15 10.9524C14.8413 11.1905 14.7619 11.5079 14.6032 11.746C14.4444 12.0635 14.2063 12.3016 14.0476 12.619C13.8889 12.8571 13.7302 13.0159 13.4921 13.254C13.254 13.4921 13.0159 13.7301 12.7778 13.8889C12.619 13.9682 12.5397 14.127 12.3809 14.2063C12.0635 14.4444 11.746 14.6032 11.4286 14.7619C11.1905 14.8413 10.9524 15 10.7143 15.0794C10.3968 15.2381 9.99999 15.3175 9.60317 15.3968C9.36507 15.4762 9.12698 15.4762 8.88889 15.4762C8.73016 15.4762 8.57143 15.4762 8.33333 15.4762C8.1746 15.4762 8.01587 15.4762 7.85714 15.4762C7.77777 15.4762 7.77777 15.4762 7.69841 15.4762C7.53968 15.4762 7.38094 15.4762 7.22221 15.3968C6.98412 15.3968 6.66666 15.3175 6.42856 15.2381C6.1111 15.1587 5.87302 15.0794 5.55555 15C5.23809 14.9206 5 14.7619 4.7619 14.6825C4.52381 14.5238 4.28571 14.4444 4.04761 14.2857C4.04761 14.2857 4.04762 14.2857 4.12698 14.2857C4.20635 14.2857 4.20634 14.2857 4.28571 14.2857C4.36507 14.2857 4.52381 14.2857 4.60318 14.2857C4.68254 14.2857 4.7619 14.2857 4.84126 14.2857C4.92063 14.2857 4.99999 14.2857 5.07936 14.2857C5.23809 14.2857 5.39682 14.2857 5.47618 14.2063C5.95238 14.127 6.34921 14.0476 6.74603 13.8095C7.06349 13.6508 7.38095 13.4921 7.69841 13.254C7.77777 13.1746 7.85714 13.1746 7.93651 13.0952C7.61905 13.0952 7.38095 13.0159 7.14286 12.9365C6.90476 12.8571 6.66666 12.6984 6.42856 12.5397C6.19047 12.3809 6.03174 12.1429 5.87301 11.9841C5.71428 11.746 5.47618 11.3492 5.47618 11.2698C5.71428 11.2698 5.87301 11.3492 6.11111 11.3492C6.3492 11.3492 6.66667 11.2698 6.74603 11.2698C6.50794 11.1905 6.3492 11.1111 6.11111 11.0317C5.87301 10.873 5.63492 10.7143 5.39683 10.5555C5.15873 10.3175 5 10.0794 4.92063 9.84127C4.84127 9.60317 4.7619 9.44444 4.68253 9.20635C4.60317 9.04762 4.60318 8.80952 4.60318 8.65079C4.60318 8.65079 4.60318 8.65079 4.60318 8.57142C4.84127 8.73015 5.15872 8.80953 5.47618 8.88889C5.55555 8.88889 5.71429 8.88889 5.79365 8.88889C5.71429 8.80953 5.63492 8.73016 5.47618 8.65079C5.23809 8.4127 4.99999 8.1746 4.84126 7.85714C4.68253 7.53968 4.60317 7.14285 4.52381 6.74602C4.52381 6.66666 4.52381 6.50793 4.52381 6.42857C4.52381 6.19047 4.60317 6.03174 4.68253 5.79365C4.7619 5.63492 4.84127 5.47619 4.92063 5.31746C5.07936 5.47619 5.15873 5.63492 5.31746 5.71429C5.47619 5.87302 5.63492 6.03174 5.79365 6.19047C6.03175 6.42857 6.26984 6.58729 6.50793 6.74602C6.82539 6.98412 7.22221 7.22222 7.61904 7.38095C7.85713 7.46031 8.09524 7.61905 8.33333 7.69841C8.73016 7.85714 9.12698 7.93651 9.52381 8.01587C9.7619 8.01587 9.92064 8.09524 10.1587 8.09524C10.2381 8.09524 10.3175 8.09524 10.4762 8.09524C10.5556 8.09524 10.5556 8.09524 10.5556 8.01587C10.5556 7.85714 10.4762 7.69841 10.4762 7.53967C10.4762 7.38094 10.4762 7.22221 10.4762 7.14285C10.5556 6.82539 10.6349 6.50793 10.7936 6.19047C10.9524 5.95238 11.1111 5.71429 11.3492 5.47619C11.5079 5.31746 11.746 5.15873 11.9841 5.07937C12.3016 4.92064 12.6984 4.84127 13.0952 4.84127C13.1746 4.84127 13.1746 4.84127 13.254 4.84127C13.4127 4.84127 13.4921 4.84127 13.6508 4.84127C14.0476 4.92063 14.3651 5.07936 14.6825 5.23809C14.8413 5.31746 15 5.47618 15.0794 5.55555H15.1587C15.2381 5.55555 15.3175 5.47619 15.4762 5.47619C15.7143 5.39683 15.873 5.31746 16.1111 5.23809C16.3492 5.15873 16.5873 5 16.8254 4.84127C16.746 5 16.6667 5.23809 16.5873 5.39682C16.5079 5.55555 16.3492 5.71429 16.2698 5.87302C16.1905 5.95238 16.0317 6.11111 15.9524 6.19047C15.873 6.26984 15.7937 6.26983 15.7143 6.3492C15.7937 6.3492 15.7936 6.3492 15.873 6.3492C16.1905 6.26983 16.4286 6.26984 16.746 6.11111C16.746 6.03175 16.9048 6.03174 17.0635 5.95237Z" fill="black"/>
</svg>
