<svg width="30" height="30" viewBox="0 0 30 30" fill="none" xmlns="http://www.w3.org/2000/svg">
<path fill-rule="evenodd" clip-rule="evenodd" d="M15 0C6.75 0 0 6.75 0 15C0 23.25 6.75 30 15 30C23.25 30 30 23.25 30 15C30 6.75 23.25 0 15 0ZM18.975 9.15C18.45 9.15 18 9.15 17.475 9.15C16.8 9.15 16.425 9.525 16.35 10.125C16.35 10.65 16.35 11.175 16.35 11.7C16.35 11.925 16.425 11.85 16.575 11.85C17.325 11.85 18.075 11.85 18.825 11.85C19.05 11.85 19.125 11.925 19.125 12.15C19.05 13.05 18.975 13.875 18.9 14.775C18.9 15 18.825 15 18.6 15C18 15 17.4 15 16.8 15C16.35 15 16.425 14.925 16.425 15.375C16.425 18.15 16.425 20.85 16.425 23.625C16.425 23.925 16.35 24 16.05 24C15 24 14.025 24 12.975 24C12.675 24 12.675 23.925 12.675 23.625C12.675 22.275 12.675 20.85 12.675 19.5C12.675 18.075 12.675 16.725 12.675 15.3C12.675 15.075 12.6 15 12.375 15C11.925 15 11.475 15 11.025 15C10.875 15 10.8 14.925 10.8 14.775C10.8 13.875 10.8 13.05 10.8 12.15C10.8 12 10.875 11.925 11.025 11.925C11.475 11.925 11.925 11.925 12.375 11.925C12.6 11.925 12.675 11.85 12.675 11.625C12.675 10.95 12.675 10.275 12.675 9.6C12.675 8.775 12.9 8.025 13.425 7.35C14.025 6.525 14.925 6.15 15.9 6.075C16.95 6 18 6.075 18.975 6.075C19.125 6.075 19.125 6.15 19.125 6.3C19.125 7.2 19.125 8.1 19.125 8.925C19.2 9.075 19.125 9.15 18.975 9.15Z" fill="black"/>
</svg>
