<svg width="28" height="28" viewBox="0 0 28 28" fill="none" xmlns="http://www.w3.org/2000/svg">
<path fill-rule="evenodd" clip-rule="evenodd" d="M14 0C10.287 0 6.726 1.475 4.10049 4.10051C1.47499 6.72602 0 10.287 0 14C0 17.713 1.47499 21.274 4.10049 23.8995C6.726 26.525 10.287 28 14 28C17.713 28 21.274 26.525 23.8995 23.8995C26.525 21.274 28 17.713 28 14C28 10.287 26.525 6.72602 23.8995 4.10051C21.274 1.475 17.713 0 14 0V0ZM12.23 14C12.2254 14.2675 12.185 14.5332 12.11 14.79L14.7 16.45C15.2647 15.9884 15.9706 15.7343 16.7 15.73C17.546 15.73 18.3574 16.0661 18.9557 16.6643C19.5539 17.2626 19.89 18.074 19.89 18.92C19.89 19.766 19.5539 20.5774 18.9557 21.1757C18.3574 21.7739 17.546 22.11 16.7 22.11C15.8557 22.1074 15.0469 21.7701 14.4508 21.1721C13.8547 20.5742 13.52 19.7643 13.52 18.92C13.5201 18.6529 13.5571 18.387 13.63 18.13L11.04 16.46C10.4777 16.926 9.77025 17.1807 9.04001 17.18C8.1957 17.18 7.3858 16.8453 6.78784 16.2492C6.18989 15.6531 5.85265 14.8443 5.85001 14C5.85001 13.154 6.18609 12.3426 6.78433 11.7443C7.38257 11.1461 8.19397 10.81 9.04001 10.81C9.77025 10.8093 10.4777 11.064 11.04 11.53L13.62 9.86C13.5471 9.60299 13.5101 9.33714 13.51 9.07C13.5126 8.22742 13.8485 7.42011 14.4443 6.82431C15.0401 6.22852 15.8474 5.89264 16.69 5.89C17.5343 5.89 18.3442 6.22471 18.9421 6.82079C19.5401 7.41687 19.8774 8.22569 19.88 9.07C19.88 9.91604 19.5439 10.7274 18.9457 11.3257C18.3474 11.9239 17.536 12.26 16.69 12.26C15.9598 12.2607 15.2523 12.006 14.69 11.54L12.1 13.21C12.1797 13.4661 12.2234 13.7319 12.23 14V14Z" fill="white"/>
</svg>
