<svg width="20" height="21" viewBox="0 0 20 21" fill="none" xmlns="http://www.w3.org/2000/svg">
<rect y="0.5" width="20" height="20" rx="10" fill="white"/>
<path d="M14.8999 7.04466C14.7319 6.77939 14.3817 6.72038 14.1436 6.89722C13.8915 7.07407 13.8214 7.45738 14.0035 7.72265C14.6478 8.68072 14.9839 9.88948 14.8719 11.1719C14.6618 13.6041 12.7989 15.5645 10.4877 15.8004C7.4342 16.11 4.85693 13.4418 5.12306 10.2285C5.33312 7.61944 7.4202 5.5853 9.89942 5.52634V6.46972C9.89942 6.80872 10.2636 7.01509 10.5297 6.83823L12.8408 5.31997C13.107 5.14312 13.107 4.7451 12.8408 4.58296L10.5297 3.0647C10.2496 2.88785 9.89942 3.09421 9.89942 3.43321V4.37659C6.90194 4.42081 4.40871 6.74979 4.04453 9.90422C3.59626 13.8251 6.59379 17.1565 10.2776 16.9943C13.3311 16.8469 15.8384 14.2379 15.9924 11.0245C16.0625 9.53574 15.6423 8.16486 14.8999 7.04459L14.8999 7.04466Z" fill="black"/>
</svg>
