<svg width="201" height="44" viewBox="0 0 201 44" fill="none" xmlns="http://www.w3.org/2000/svg">
<path d="M69.5149 31.7117C68.6194 28.9818 67.4698 26.2948 66.4903 23.5844C65.7337 21.4902 65.0337 19.3959 64.3397 17.2725L58.9084 31.7019H57.7881C57.5632 30.9765 57.311 30.2492 57.0314 29.557C56.1067 27.1566 55.1839 24.7543 54.2943 22.3247C53.1212 19.1132 52.0263 15.8451 50.8513 12.6336H54.5054C56.2142 17.3251 57.8096 22.0459 59.4343 26.7647L64.6427 12.2144H66.0426L71.167 26.8485L76.481 12.6375H78.1604L70.9089 31.7117H69.5149Z" fill="white"/>
<path d="M82.2251 31.4601C82.2544 27.1878 82.3092 22.9428 82.3092 18.6705C82.3092 16.6582 82.3092 14.6478 82.2544 12.6375H85.7267C85.7267 18.9201 85.7541 25.1774 85.7541 31.4601H82.2251Z" fill="white"/>
<path d="M91.1581 26.6845C92.0829 28.5564 93.5375 29.9799 95.7233 29.9799C97.4595 29.9799 98.8867 28.9737 98.8867 27.131C98.8867 22.4961 90.6537 23.6407 90.6537 17.2722C90.6537 14.3122 93.3146 12.3584 96.1143 12.3584C97.739 12.3584 99.614 12.8888 100.875 13.9768L99.702 16.5117C98.9747 15.1468 97.6862 14.0821 96.0909 14.0821C94.691 14.0821 93.7662 15.1429 93.7662 16.5117C93.7662 21.1467 101.978 19.8266 101.978 26.1736C101.978 29.5528 99.0451 31.7875 95.7898 31.7875C93.5219 31.7875 91.8131 31.0621 90.1063 29.6094L91.1581 26.6845Z" fill="white"/>
<path d="M106.027 31.4601V12.6375H115.998L116.753 14.5367C115.241 14.3124 113.701 14.3124 112.16 14.3124H109.47V21.1274H110.815C112.343 21.1431 113.87 21.0611 115.388 20.8817L115.333 22.9214C113.899 22.8083 112.471 22.7524 111.048 22.7537C110.516 22.7537 109.984 22.781 109.452 22.8083V29.7909H112.813C114.549 29.7909 116.313 29.7909 118.021 29.4829L117.322 31.4659L106.027 31.4601Z" fill="white"/>
<path d="M121.566 26.6845C122.491 28.5564 123.947 29.9799 126.131 29.9799C127.867 29.9799 129.295 28.9737 129.295 27.131C129.295 22.4961 121.062 23.6407 121.062 17.2722C121.062 14.3122 123.723 12.3584 126.522 12.3584C128.147 12.3584 130.024 12.8888 131.283 13.9768L130.11 16.5117C129.381 15.1468 128.092 14.0821 126.497 14.0821C125.097 14.0821 124.172 15.1429 124.172 16.5117C124.172 21.1467 132.384 19.8266 132.384 26.1736C132.384 29.5528 129.451 31.7875 126.194 31.7875C123.926 31.7875 122.219 31.0621 120.51 29.6094L121.566 26.6845Z" fill="white"/>
<path d="M136.714 31.4601C136.744 27.1878 136.798 22.9428 136.798 18.6705C136.798 16.6582 136.798 14.6478 136.744 12.6375H140.218C140.218 18.9201 140.245 25.1774 140.245 31.4601H136.714Z" fill="white"/>
<path d="M158.584 22.7478H161.748V30.2413C159.843 31.1909 156.764 31.8013 154.664 31.8013C149.147 31.8013 144.584 27.8644 144.584 22.194C144.584 16.5528 148.885 12.3079 154.555 12.3079C157.384 12.3079 159.513 13.0878 161.789 14.7375L160.723 17.5298C159.632 15.2133 157.503 14.0959 154.956 14.0959C150.39 14.0959 148.32 18.1167 148.32 22.194C148.32 26.5794 150.588 30.1263 155.292 30.1263C156.328 30.1263 157.728 29.8474 158.596 29.2313L158.584 22.7478Z" fill="white"/>
<path d="M177.932 31.4601V22.8317H169.84C169.812 25.7078 169.84 28.5839 169.84 31.4601H166.395C166.395 26.9928 166.479 22.4904 166.479 18.027C166.479 16.2409 166.479 14.4255 166.424 12.6375H169.84V21.1274H177.932V16.8824C177.932 15.457 177.932 14.0609 177.875 12.6375H181.377V31.4601H177.932Z" fill="white"/>
<path d="M190.419 31.4601V14.3124H184.036L184.456 12.6375H200.473L200.5 14.3124H193.921C193.921 20.0374 193.892 25.7351 193.892 31.4601H190.419Z" fill="white"/>
<path d="M22.5197 2.06405e-05C18.2095 -0.00588507 13.9932 1.25565 10.398 3.62688L11.8174 7.49358L12.531 9.44351L19.853 29.516L21.7123 24.3643L19.0455 17.0424L22.5197 7.52673L31.3569 31.7468L27.8729 41.2897L22.5197 26.6009L20.5646 32.0197L17.8861 39.3359L16.5175 43.1051C19.5468 43.9604 22.7247 44.158 25.837 43.6848C28.9494 43.2116 31.9238 42.0784 34.5599 40.3617C37.196 38.6449 39.4325 36.3845 41.1186 33.7328C42.8046 31.0812 43.9012 28.0998 44.3343 24.9897C44.7673 21.8796 44.5269 18.713 43.6291 15.7035C42.7313 12.6939 41.1971 9.91125 39.1298 7.54307C37.0625 5.17489 34.5102 3.27621 31.645 1.97503C28.7797 0.673838 25.6681 0.000372302 22.5197 2.06405e-05ZM33.224 26.638L29.7537 17.0541L33.2299 7.52478L36.7198 17.0794L33.224 26.638Z" fill="#C61D20"/>
<path d="M8.33734 17.0737L11.0119 9.7127L9.11548 4.53955C5.97796 6.94147 3.54675 10.1416 2.0771 13.8039C0.607462 17.4662 0.153614 21.4557 0.763212 25.3533C1.37281 29.2509 3.02337 32.9129 5.54157 35.9548C8.05978 38.9967 11.3527 41.3063 15.0747 42.6411L16.3631 39.0688L8.33734 17.0737Z" fill="#C61D20"/>
<path d="M11.8234 11.9358L9.95624 17.0738L17.1745 36.8539L19.0514 31.749L11.8234 11.9358Z" fill="#C61D20"/>
<path d="M29.7419 31.7466L22.5256 11.9666L20.6702 17.0481L27.8806 36.8476L29.7419 31.7466Z" fill="#C61D20"/>
</svg>
