<svg width="212" height="44" viewBox="0 0 212 44" fill="none" xmlns="http://www.w3.org/2000/svg">
<g clip-path="url(#clip0_1427_40731)">
<path d="M10.6556 3.67398C12.3899 2.44268 14.322 1.51912 16.3678 0.943546C28.9247 -2.79631 41.697 4.94169 44.2825 17.8322C46.6473 29.6632 38.5414 41.5522 26.7045 43.5895C23.5145 44.1647 20.2381 44.0397 17.1009 43.2231C16.9891 43.1854 16.8794 43.1414 16.7725 43.0914C17.848 40.122 18.9209 37.1517 19.9912 34.1805L22.7369 26.5981C24.5263 31.5265 26.2736 36.3338 28.0524 41.2307C28.147 40.9829 28.2074 40.838 28.26 40.7036C29.2821 37.9046 30.2963 35.103 31.3289 32.3067C31.4682 31.9591 31.4682 31.571 31.3289 31.2235C28.7014 24.0196 26.0809 16.8157 23.4674 9.61189C23.2335 8.96091 22.9971 8.32837 22.7369 7.64313C22.6712 7.79072 22.6345 7.85925 22.6082 7.93304C21.5414 10.8559 20.4852 13.7892 19.4052 16.7121C19.3119 16.9953 19.3336 17.304 19.4657 17.5713C20.2382 19.6973 21.0115 21.8251 21.7858 23.9546C21.8957 24.1432 21.9269 24.3677 21.8725 24.5792C21.2813 26.1816 20.7111 27.7893 20.0805 29.542C16.9065 20.8209 13.7824 12.2501 10.6556 3.67398ZM33.3179 26.4267H33.4467C34.5432 23.4046 35.6424 20.3834 36.7442 17.3631C36.7801 17.2409 36.7917 17.1128 36.7781 16.9862C36.7646 16.8596 36.7263 16.7368 36.6654 16.6251C35.8053 14.2531 34.9443 11.8811 34.0825 9.5091C33.8671 8.92928 33.6542 8.34419 33.3915 7.64313C33.3021 7.8408 33.2601 7.9225 33.2286 8.00947C32.1671 10.9279 31.1047 13.8376 30.0414 16.7384C29.9567 16.9811 29.968 17.2471 30.0729 17.4817C30.5389 18.7502 31.0004 20.0188 31.4576 21.2874L33.3179 26.4267Z" fill="#C62227"/>
<path d="M15.3456 42.6223C14.7087 42.4759 14.0957 42.2399 13.5248 41.9213C6.31225 38.3448 1.94007 32.6099 0.988914 24.5714C0.0219906 16.4908 2.94378 9.85709 9.18937 4.68349C9.25334 4.63752 9.32101 4.59697 9.39169 4.56226C9.96448 6.14359 10.5268 7.69857 11.1206 9.25882C11.2468 9.56973 11.2468 9.9178 11.1206 10.2287C10.3297 12.3556 9.57298 14.4957 8.78736 16.6041C8.66396 16.9137 8.66396 17.2591 8.78736 17.5687C11.3325 24.5459 13.8725 31.524 16.4071 38.503C16.5569 38.8676 16.5569 39.2769 16.4071 39.6415C16.034 40.6325 15.6977 41.6419 15.3456 42.6223Z" fill="#C62227"/>
<path d="M63.8968 18.5859C63.3713 19.9405 62.8826 21.1344 62.4096 22.3336C61.49 24.6635 60.5704 26.9907 59.6639 29.3284C59.6278 29.4933 59.53 29.6379 59.3906 29.7326C59.2513 29.8272 59.081 29.8646 58.915 29.8371C58.6523 29.8133 58.3895 29.8371 58.1425 29.8371C56.9786 29.8371 56.9969 29.8371 56.5897 28.7038C54.803 23.7278 53.0084 18.7537 51.2059 13.7812C50.9852 13.1698 50.9957 13.1355 51.6237 13.1303C52.3778 13.1303 53.1319 13.1619 53.8834 13.1303C54.3747 13.1013 54.5902 13.3068 54.7478 13.7391C55.6543 16.2218 56.5871 18.6992 57.4988 21.1793C57.7458 21.8434 57.9954 22.497 58.2871 23.2666C58.6115 22.7338 58.8692 22.1628 59.0543 21.5667C60.0869 18.9838 61.1143 16.3957 62.1127 13.7997C62.3098 13.2858 62.5725 13.0881 63.119 13.1303C63.7533 13.1724 64.3897 13.1724 65.024 13.1303C65.5074 13.1039 65.7518 13.2515 65.9305 13.7391C67.013 16.6883 68.1376 19.6216 69.249 22.5603C69.3305 22.7764 69.4303 22.9899 69.5538 23.2851C69.7803 23.0089 69.9428 22.6858 70.0294 22.3389C71.154 19.4292 72.2698 16.5152 73.3768 13.5968C73.4106 13.4521 73.4962 13.325 73.6173 13.2395C73.7384 13.154 73.8866 13.1161 74.0337 13.1329C74.7878 13.1514 75.5419 13.154 76.296 13.1329C76.7795 13.1171 76.8872 13.2805 76.719 13.7338C76.0753 15.4654 75.4526 17.2075 74.8193 18.9443C73.5608 22.3705 72.2917 25.7967 71.0489 29.2493C71.0048 29.4407 70.8914 29.6087 70.7306 29.7207C70.5699 29.8328 70.3733 29.8808 70.1792 29.8555C68.3583 29.8555 68.3609 29.8555 67.7014 28.1898C66.5103 25.1572 65.3165 22.1237 64.1201 19.0893C64.0702 18.9759 64.0203 18.8626 63.8968 18.5859Z" fill="white"/>
<path d="M167.61 21.3611C168.621 21.3611 169.633 21.377 170.645 21.3611C171.099 21.3611 171.283 21.4876 171.278 21.9673C171.257 23.7384 171.262 25.5095 171.278 27.2806C171.294 27.439 171.263 27.5987 171.188 27.7394C171.114 27.8801 171 27.9956 170.86 28.0713C167.823 29.8845 164.583 30.6093 161.101 29.7712C157.88 28.9805 155.668 26.453 155.211 23.1823C154.948 21.3137 155.05 19.4925 155.797 17.7373C156.937 15.0727 159.034 13.5573 161.84 13.0591C164.354 12.5736 166.958 12.9495 169.234 14.1265C169.339 14.1793 169.446 14.232 169.549 14.2926C170.374 14.7749 170.39 14.8197 170.074 15.6947C169.888 16.2403 169.675 16.7779 169.502 17.3261C169.399 17.6582 169.276 17.7452 168.976 17.5264C167.602 16.5592 165.986 15.9977 164.31 15.9055C161.191 15.6868 158.645 17.8506 158.411 20.7207C158.177 23.5908 159.307 25.6097 161.635 26.5532C163.067 27.133 164.544 27.0803 166.028 26.8167C166.767 26.6549 167.488 26.4228 168.183 26.1236C168.255 26.1083 168.323 26.0781 168.382 26.0348C168.442 25.9915 168.492 25.9361 168.529 25.8723C168.565 25.8084 168.589 25.7375 168.596 25.6641C168.604 25.5907 168.597 25.5165 168.574 25.4463C168.536 25.17 168.536 24.8897 168.574 24.6134C168.642 23.9124 168.627 23.8834 167.894 23.8807C166.764 23.8807 165.631 23.8649 164.501 23.8807C164.042 23.8807 163.879 23.7358 163.871 23.264C163.845 21.3532 163.831 21.3532 165.71 21.3532L167.61 21.3611Z" fill="white"/>
<path d="M109.229 21.4455C109.229 18.918 109.242 16.3905 109.229 13.863C109.229 13.299 109.376 13.1092 109.96 13.1118C114.008 13.1364 118.057 13.1364 122.107 13.1118C122.632 13.1118 122.869 13.2542 122.824 13.8155C122.783 14.3322 122.783 14.8512 122.824 15.3679C122.869 15.9319 122.679 16.1243 122.094 16.119C119.177 16.0927 116.258 16.119 113.341 16.119C112.453 16.119 112.451 16.119 112.451 16.9887C112.451 17.645 112.482 18.3065 112.451 18.9575C112.416 19.5242 112.598 19.7218 113.184 19.7139C115.107 19.6796 117.033 19.7139 118.964 19.6928C119.453 19.6928 119.647 19.8404 119.616 20.3385C119.584 20.8757 119.584 21.4143 119.616 21.9515C119.65 22.4786 119.456 22.6921 118.901 22.6842C117.036 22.6578 115.17 22.6842 113.305 22.6842C112.469 22.6842 112.466 22.6842 112.466 23.5513V25.9997C112.466 26.8642 112.466 26.8642 113.305 26.8642H122.238C123.074 26.8642 123.076 26.8642 123.076 27.7286V29.0464C123.076 29.8529 123.076 29.8529 122.243 29.8529C120.04 29.8529 117.836 29.8529 115.633 29.8529C113.767 29.8529 111.901 29.8529 110.036 29.8529C109.261 29.8529 109.248 29.8529 109.248 29.0622L109.229 21.4455Z" fill="white"/>
<path d="M134.009 12.8826C136.432 12.8088 138.547 13.6575 140.491 15.0385C140.838 15.2836 140.954 15.5103 140.72 15.9188C140.384 16.5039 140.102 17.1206 139.811 17.7294C139.653 18.0588 139.503 18.2143 139.157 17.9033C137.841 16.7283 136.17 16.032 134.411 15.9267C133.376 15.845 132.349 15.9636 131.442 16.5513C130.917 16.8887 130.578 17.3578 130.704 17.9982C130.819 18.5965 131.295 18.8548 131.855 18.976C133.289 19.287 134.758 19.3582 136.206 19.5717C137.152 19.6821 138.074 19.9493 138.933 20.3623C140.447 21.1345 141.14 22.4418 141.264 24.0521C141.548 27.7735 139.178 29.455 136.148 29.9505C133.376 30.4011 130.893 29.5657 128.507 28.2874C127.375 27.6813 127.398 27.6444 127.858 26.4136C128.019 25.9866 128.184 25.5596 128.315 25.1221C128.447 24.6846 128.599 24.6873 128.975 24.9403C130.833 26.1948 132.824 27.0804 135.134 26.9565C135.931 26.9283 136.704 26.6753 137.365 26.2264C137.628 26.0449 137.847 25.8073 138.008 25.5306C138.46 24.7611 138.195 23.9968 137.346 23.7279C136.187 23.3589 134.981 23.2957 133.778 23.1402C132.777 23.0084 131.765 22.9373 130.793 22.6421C128.342 21.8962 127.517 19.656 127.745 17.595C128.097 14.4323 130.396 13.0645 133.176 12.8694C133.452 12.8668 133.731 12.8826 134.009 12.8826Z" fill="white"/>
<path d="M97.0271 12.8641C99.0818 12.7982 101.25 13.6732 103.228 15.1175C103.285 15.1459 103.336 15.1863 103.376 15.236C103.416 15.2856 103.446 15.3434 103.462 15.4053C103.478 15.4672 103.481 15.5319 103.47 15.595C103.459 15.6581 103.435 15.7182 103.399 15.7711C103.048 16.4634 102.715 17.1662 102.398 17.8795C102.248 18.2063 102.111 18.2327 101.841 17.9771C100.456 16.6954 98.6556 15.9603 96.7722 15.9081C95.8342 15.8363 94.8968 16.0552 94.0869 16.5354C93.8369 16.6664 93.6296 16.8667 93.4899 17.1125C93.3501 17.3583 93.2837 17.6392 93.2987 17.9217C93.3407 18.549 93.8426 18.8204 94.3838 18.9575C95.5373 19.2553 96.7302 19.3027 97.9073 19.4556C99.1475 19.6164 100.38 19.785 101.52 20.3596C102.169 20.6717 102.725 21.1475 103.135 21.7403C103.545 22.3331 103.794 23.0225 103.859 23.741C104.337 27.4651 102.04 29.4206 98.8664 29.9609C95.7528 30.488 93.0543 29.3864 90.4242 27.9395C90.1089 27.7655 90.122 27.5046 90.2192 27.2199C90.482 26.4873 90.7447 25.7598 90.9812 25.0219C91.1073 24.6292 91.2308 24.7109 91.5067 24.9059C93.3643 26.2237 95.3875 27.0776 97.7076 26.9696C98.7113 26.9248 99.6678 26.6612 100.388 25.8653C101.21 24.9586 100.966 24.0204 99.786 23.6962C98.3487 23.2903 96.8537 23.2429 95.3823 23.0452C94.016 22.8607 92.6733 22.6499 91.6328 21.6062C89.9407 19.9036 89.8987 16.5723 91.5172 14.7933C92.9072 13.2752 94.665 12.8693 97.0271 12.8641Z" fill="white"/>
<path d="M177.116 21.4824C177.116 18.9575 177.116 16.4317 177.116 13.9051C177.116 13.1276 177.116 13.1276 177.904 13.1145H179.512C180.301 13.1145 180.316 13.1145 180.316 13.9499C180.316 15.5998 180.316 17.2505 180.316 18.9021C180.316 19.6454 180.345 19.6717 181.105 19.6717C183.469 19.6717 185.834 19.6559 188.186 19.6717C188.777 19.6717 188.924 19.4688 188.914 18.9127C188.885 17.2022 188.914 15.4865 188.893 13.7813C188.893 13.27 189.029 13.0565 189.565 13.0907C190.178 13.1301 190.792 13.1301 191.404 13.0907C191.948 13.0565 192.119 13.2489 192.117 13.7997C192.098 18.1563 192.117 22.5129 192.117 26.8694C192.117 27.6601 192.101 28.4508 192.117 29.2414C192.117 29.6552 191.972 29.8133 191.559 29.8002C190.947 29.7791 190.33 29.8002 189.72 29.8002C188.932 29.8002 188.911 29.7791 188.908 29.0095C188.908 27.1198 188.89 25.2275 188.908 23.3404C188.908 22.7817 188.727 22.6262 188.188 22.6315C185.789 22.6543 183.389 22.6543 180.989 22.6315C180.464 22.6315 180.306 22.8028 180.311 23.3193C180.337 25.2486 180.311 27.1804 180.332 29.1176C180.332 29.6789 180.148 29.8529 179.612 29.8213C179.018 29.7857 178.422 29.7857 177.828 29.8213C177.287 29.8529 177.095 29.6552 177.1 29.1017C177.135 26.5742 177.116 24.0283 177.116 21.4824Z" fill="white"/>
<path d="M203.877 13.1251C206.061 13.1251 208.244 13.1461 210.425 13.1251C211.043 13.1251 211.232 13.3174 211.184 13.9157C211.15 14.4722 211.15 15.0302 211.184 15.5867C211.203 16.0084 211.019 16.1375 210.62 16.1349C209.132 16.119 207.643 16.1507 206.153 16.1164C205.596 16.1164 205.446 16.2983 205.449 16.8359C205.467 20.9158 205.449 25.0061 205.449 29.0702C205.449 29.8608 205.449 29.8608 204.66 29.8608C204.103 29.8608 203.544 29.8213 202.995 29.8608C202.367 29.9188 202.233 29.6605 202.235 29.0702C202.259 25.051 202.235 21.0344 202.235 17.0151C202.235 16.1243 202.235 16.1243 201.368 16.1243C199.978 16.1243 198.591 16.1059 197.201 16.1243C196.696 16.1243 196.47 16.0004 196.51 15.4575C196.549 14.9012 196.549 14.3429 196.51 13.7866C196.47 13.2437 196.699 13.1145 197.203 13.1198C199.434 13.1382 201.657 13.1251 203.877 13.1251Z" fill="white"/>
<path d="M81.4748 21.4692C81.4748 18.9206 81.4748 16.3747 81.4748 13.8261C81.4748 13.2779 81.6299 13.0776 82.1816 13.1119C82.8161 13.1488 83.4521 13.1488 84.0866 13.1119C84.5622 13.0881 84.7014 13.2779 84.6988 13.7365C84.683 16.2245 84.6988 18.7124 84.6988 21.2004C84.6988 23.8359 84.6988 26.453 84.6988 29.0807C84.6988 29.65 84.5227 29.8714 83.9473 29.8345C83.3726 29.7949 82.7958 29.7949 82.221 29.8345C81.6588 29.874 81.4617 29.6921 81.4696 29.1018C81.5011 26.5637 81.4748 24.0152 81.4748 21.4692Z" fill="white"/>
<path d="M146.637 21.4217V14.021C146.637 13.125 146.637 13.125 147.557 13.125C148.082 13.125 148.631 13.1539 149.165 13.125C149.698 13.096 149.864 13.2646 149.853 13.797C149.827 15.5286 149.853 17.2601 149.853 18.9891V28.8329C149.853 29.8317 149.853 29.8317 148.828 29.8317C148.303 29.8317 147.796 29.8054 147.281 29.8317C146.766 29.8581 146.634 29.6604 146.637 29.1755C146.637 26.5953 146.637 24.0098 146.637 21.4217Z" fill="white"/>
<path fill-rule="evenodd" clip-rule="evenodd" d="M15.6392 41.7876C15.5417 42.0661 15.4442 42.3445 15.3455 42.6223C15.7972 42.8423 16.2775 42.9976 16.7722 43.0835C17.8425 40.1142 18.9154 37.1439 19.9909 34.1727L22.7446 26.5744C23.9292 29.8372 25.0953 33.0469 26.2644 36.2646C26.8613 37.9073 27.4588 39.552 28.06 41.207C28.0857 41.1427 28.1088 41.0851 28.13 41.0325C28.1868 40.8912 28.2293 40.7855 28.2676 40.6799C28.5777 39.8308 28.887 38.9814 29.1964 38.132C29.9068 36.1816 30.6172 34.231 31.3365 32.283C31.4758 31.9355 31.4758 31.5474 31.3365 31.1998C28.723 23.996 26.1025 16.7921 23.475 9.58826C23.2438 8.95309 23.01 8.32846 22.7472 7.63531C22.7224 7.69113 22.7016 7.73564 22.6841 7.7734C22.6552 7.83549 22.6348 7.87934 22.6185 7.92522C22.1398 9.22745 21.6653 10.5302 21.191 11.8323C20.5978 13.4607 20.0051 15.088 19.405 16.7122C19.3116 16.9954 19.3334 17.3041 19.4654 17.5714C20.2432 19.6974 21.0148 21.8251 21.7803 23.9547C21.8902 24.1432 21.9214 24.3678 21.867 24.5793C21.4353 25.7494 21.0148 26.9222 20.5739 28.1523C20.4109 28.6068 20.2452 29.0692 20.075 29.5421L10.6528 3.67407C10.198 3.92031 9.77302 4.21834 9.38632 4.56225C9.52035 4.9292 9.65381 5.29614 9.78723 5.66298C10.224 6.86386 10.6604 8.06366 11.1152 9.25882C11.2414 9.56972 11.2414 9.91779 11.1152 10.2287C10.7779 11.148 10.4455 12.0684 10.1131 12.9886C9.67656 14.1973 9.24004 15.406 8.7925 16.612C8.6691 16.9216 8.6691 17.267 8.7925 17.5766C11.3272 24.5573 13.8671 31.5354 16.4123 38.5109C16.5621 38.8755 16.5621 39.2848 16.4123 39.6494C16.14 40.3569 15.8895 41.0726 15.6392 41.7876ZM11.6619 13.0868C11.7988 12.708 11.9385 12.3218 12.0821 11.926C12.5485 13.2096 13.0067 14.4686 13.4597 15.7133C14.1832 17.7017 14.8936 19.6537 15.603 21.6117C16.7539 24.7972 17.9126 27.9818 19.0792 31.1656C19.2288 31.5311 19.2288 31.9412 19.0792 32.3068C18.6627 33.3913 18.2652 34.4847 17.8486 35.6302C17.7054 36.0241 17.56 36.4241 17.4107 36.832C17.367 36.7301 17.3292 36.6459 17.2961 36.5721C17.2436 36.4551 17.2028 36.3644 17.169 36.2706C14.9146 30.0595 12.6549 23.8493 10.39 17.6399C10.2495 17.2917 10.2495 16.9023 10.39 16.554C10.8161 15.4265 11.2253 14.2944 11.6619 13.0868ZM22.2139 13.3812C22.3812 12.9177 22.552 12.4444 22.7288 11.9576C22.8726 12.3519 23.0142 12.7395 23.154 13.1218C23.6269 14.4161 24.078 15.6506 24.5181 16.8835C26.24 21.6626 27.9768 26.4382 29.7285 31.2104C29.8702 31.5556 29.8702 31.9431 29.7285 32.2883C29.3171 33.3733 28.9227 34.4655 28.5098 35.6087C28.3611 36.0206 28.21 36.4391 28.0548 36.8663C27.4793 35.2849 26.9538 33.838 26.4283 32.3858C24.6399 27.4398 22.8444 22.4955 21.0419 17.5529C20.9158 17.2438 20.9158 16.8974 21.0419 16.5883C21.4346 15.5404 21.8142 14.4886 22.2139 13.3812ZM31.4579 21.2875L33.3181 26.4268L33.4469 26.4347C34.5364 23.4091 35.6356 20.3879 36.7444 17.3711C36.7803 17.2489 36.7919 17.1208 36.7784 16.9942C36.7648 16.8676 36.7265 16.7448 36.6656 16.6331C35.8055 14.2593 34.9446 11.8873 34.0827 9.5171C34.0435 9.41001 34.0043 9.30301 33.9649 9.19538C33.7881 8.71231 33.6066 8.21654 33.3917 7.64322C33.3623 7.70817 33.3381 7.7606 33.3176 7.80481C33.2759 7.89515 33.25 7.95117 33.2288 8.00956C32.1725 10.921 31.1101 13.8306 30.0416 16.7385C29.9569 16.9812 29.9682 17.2472 30.0732 17.4818C30.5374 18.7486 30.9989 20.0172 31.4579 21.2875Z" fill="#FDFCFB"/>
<path d="M12.0823 11.9258C13.2936 15.2598 14.4471 18.4277 15.6032 21.5983C16.7593 24.7688 17.9154 27.9816 19.0846 31.1653C19.2343 31.5309 19.2343 31.9409 19.0846 32.3065C18.525 33.764 17.9995 35.2373 17.4161 36.8318C17.3032 36.5682 17.2296 36.4233 17.1744 36.2704C14.9148 30.0575 12.6551 23.8473 10.3954 17.6397C10.2549 17.2914 10.2549 16.902 10.3954 16.5538C10.9498 15.0726 11.4806 13.5835 12.0823 11.9258Z" fill="#C72429"/>
<path d="M22.729 11.9575C23.3596 13.6864 23.9482 15.2862 24.5315 16.8886C26.2656 21.6643 28.0024 26.4399 29.7418 31.2155C29.8836 31.5608 29.8836 31.9482 29.7418 32.2935C29.1821 33.7694 28.654 35.2585 28.0681 36.8714C27.4953 35.2901 26.9672 33.8379 26.4417 32.391C24.6427 27.4432 22.8428 22.4971 21.0421 17.5528C20.916 17.2437 20.916 16.8973 21.0421 16.5882C21.5992 15.1017 22.1299 13.6074 22.729 11.9575Z" fill="#C72429"/>
</g>
<defs>
<clipPath id="clip0_1427_40731">
<rect width="210.379" height="43.94" fill="white" transform="translate(0.810303)"/>
</clipPath>
</defs>
</svg>
